<?xml version="1.0" encoding="UTF-8" standalone="no"?>
<svg width="57.9437mm" height="29.6333mm"
 viewBox="0 0 219 112"
 xmlns="http://www.w3.org/2000/svg" xmlns:xlink="http://www.w3.org/1999/xlink"  version="1.2" baseProfile="tiny">
<defs>
</defs>
<g fill="none" stroke="black" stroke-width="1" fill-rule="evenodd" stroke-linecap="square" stroke-linejoin="bevel" >

<g fill="#ffffff" fill-opacity="1" stroke="none" transform="matrix(1,0,0,1,0,0)"
font-family="TeX Gyre Heros" font-size="16" font-weight="400" font-style="normal" 
>
<path vector-effect="non-scaling-stroke" fill-rule="evenodd" d="M0,0 L219,0 L219,112 L0,112 L0,0z "/>
</g>

<g fill="none" stroke="#000000" stroke-opacity="1" stroke-width="1" stroke-linecap="square" stroke-linejoin="bevel" transform="matrix(1,0,0,1,0,0)"
font-family="TeX Gyre Heros" font-size="16" font-weight="400" font-style="normal" 
>
</g>

<g fill="none" stroke="#000000" stroke-opacity="1" stroke-width="1" stroke-linecap="square" stroke-linejoin="bevel" transform="matrix(1,0,0,1,0,0)"
font-family="TeX Gyre Heros" font-size="16" font-weight="400" font-style="normal" 
clip-path="url(#clip4129)" >
<defs><clipPath id="clip4129"><path vector-effect="non-scaling-stroke" fill-rule="evenodd" d="M0,0 L219,0 L219,112 L0,112 L0,0z "/>
</clipPath></defs></g>

<g fill="none" stroke="#000000" stroke-opacity="1" stroke-width="1" stroke-linecap="square" stroke-linejoin="bevel" transform="matrix(1,0,0,1,192,60)"
font-family="TeX Gyre Heros" font-size="16" font-weight="400" font-style="normal" 
clip-path="url(#clip4130)" >
<defs><clipPath id="clip4130"><path vector-effect="non-scaling-stroke" fill-rule="evenodd" d="M-192,-60 L27,-60 L27,52 L-192,52 L-192,-60z "/>
</clipPath></defs></g>

<g fill="#00d100" fill-opacity="1" stroke="none" transform="matrix(1,0,0,1,192,60)"
font-family="TeX Gyre Heros" font-size="16" font-weight="400" font-style="normal" 
clip-path="url(#clip4130)" >
<path vector-effect="none" fill-rule="nonzero" d="M0,10 C0,15.5228 4.47715,20 10,20 C15.5228,20 20,15.5228 20,10 C20,4.47715 15.5228,0 10,0 C4.47715,0 0,4.47715 0,10 z "/>
</g>

<g fill="none" stroke="#000000" stroke-opacity="1" stroke-width="1" stroke-linecap="square" stroke-linejoin="bevel" transform="matrix(1,0,0,1,192,60)"
font-family="TeX Gyre Heros" font-size="16" font-weight="400" font-style="normal" 
clip-path="url(#clip4130)" >
</g>

<g fill="none" stroke="#000000" stroke-opacity="1" stroke-width="1" stroke-linecap="square" stroke-linejoin="bevel" transform="matrix(1,0,0,1,192,60)"
font-family="TeX Gyre Heros" font-size="16" font-weight="400" font-style="normal" 
clip-path="url(#clip4130)" >
</g>

<g fill="none" stroke="#000000" stroke-opacity="1" stroke-width="1" stroke-linecap="square" stroke-linejoin="bevel" transform="matrix(1,0,0,1,192,60)"
font-family="TeX Gyre Heros" font-size="16" font-weight="400" font-style="normal" 
clip-path="url(#clip4131)" >
<defs><clipPath id="clip4131"><path vector-effect="non-scaling-stroke" fill-rule="evenodd" d="M0,0 L20,0 L20,20 L0,20 L0,0z "/>
</clipPath></defs></g>

<g fill="none" stroke="#000000" stroke-opacity="1" stroke-width="1" stroke-linecap="square" stroke-linejoin="bevel" transform="matrix(1,0,0,1,202,70)"
font-family="Liberation Sans" font-size="10" font-weight="400" font-style="normal" 
clip-path="url(#clip4132)" >
<defs><clipPath id="clip4132"><path vector-effect="none" fill-rule="evenodd" d="M-10,-10 L10,-10 L10,10 L-10,10 L-10,-10z "/>
</clipPath></defs></g>

<g fill="none" stroke="#000000" stroke-opacity="1" stroke-width="1" stroke-linecap="square" stroke-linejoin="bevel" transform="matrix(1,0,0,1,202,70)"
font-family="Liberation Sans" font-size="10" font-weight="400" font-style="normal" 
clip-path="url(#clip4132)" >
<text textLength="5.54688" fill="#000000" fill-opacity="1" stroke="none" xml:space="preserve" x="-2.5" y="3" font-family="Liberation Sans" font-size="10" font-weight="400" font-style="normal" 
 >1</text>
</g>

<g fill="none" stroke="#000000" stroke-opacity="1" stroke-width="1" stroke-linecap="square" stroke-linejoin="bevel" transform="matrix(1,0,0,1,202,70)"
font-family="Liberation Sans" font-size="10" font-weight="400" font-style="normal" 
clip-path="url(#clip4132)" >
</g>

<g fill="none" stroke="#000000" stroke-opacity="1" stroke-width="1" stroke-linecap="square" stroke-linejoin="bevel" transform="matrix(1,0,0,1,202,70)"
font-family="Liberation Sans" font-size="10" font-weight="400" font-style="normal" 
clip-path="url(#clip4133)" >
<defs><clipPath id="clip4133"><path vector-effect="none" fill-rule="evenodd" d="M-192,-60 L27,-60 L27,52 L-192,52 L-192,-60z "/>
</clipPath></defs></g>

<g fill="none" stroke="#000000" stroke-opacity="1" stroke-width="1" stroke-linecap="square" stroke-linejoin="bevel" transform="matrix(1,0,0,1,0,0)"
font-family="Liberation Sans" font-size="10" font-weight="400" font-style="normal" 
clip-path="url(#clip4133)" >
</g>

<g fill="none" stroke="#000000" stroke-opacity="1" stroke-width="1" stroke-linecap="square" stroke-linejoin="bevel" transform="matrix(1,0,0,1,192,60)"
font-family="TeX Gyre Heros" font-size="16" font-weight="400" font-style="normal" 
clip-path="url(#clip4133)" >
</g>

<g fill="none" stroke="#000000" stroke-opacity="1" stroke-width="1" stroke-linecap="square" stroke-linejoin="bevel" transform="matrix(1,0,0,1,192,60)"
font-family="TeX Gyre Heros" font-size="16" font-weight="400" font-style="normal" 
clip-path="url(#clip4133)" >
</g>

<g fill="none" stroke="#000000" stroke-opacity="1" stroke-width="1" stroke-linecap="butt" stroke-linejoin="miter" stroke-miterlimit="2" transform="matrix(1,0,0,1,192.5,60.5)"
font-family="TeX Gyre Heros" font-size="16" font-weight="400" font-style="normal" 
clip-path="url(#clip4134)" >
<defs><clipPath id="clip4134"><path vector-effect="none" fill-rule="evenodd" d="M-192.5,-60.5 L26.5,-60.5 L26.5,51.5 L-192.5,51.5 L-192.5,-60.5z "/>
</clipPath></defs><path vector-effect="none" fill-rule="nonzero" d="M0,10 C0,15.5228 4.47715,20 10,20 C15.5228,20 20,15.5228 20,10 C20,4.47715 15.5228,0 10,0 C4.47715,0 0,4.47715 0,10 z "/>
</g>

<g fill="none" stroke="#000000" stroke-opacity="1" stroke-width="1" stroke-linecap="square" stroke-linejoin="bevel" transform="matrix(1,0,0,1,192,60)"
font-family="TeX Gyre Heros" font-size="16" font-weight="400" font-style="normal" 
clip-path="url(#clip4135)" >
<defs><clipPath id="clip4135"><path vector-effect="non-scaling-stroke" fill-rule="evenodd" d="M-192,-60 L27,-60 L27,52 L-192,52 L-192,-60z "/>
</clipPath></defs></g>

<g fill="none" stroke="#000000" stroke-opacity="1" stroke-width="1" stroke-linecap="square" stroke-linejoin="bevel" transform="matrix(1,0,0,1,202,82)"
font-family="TeX Gyre Heros" font-size="16" font-weight="400" font-style="normal" 
clip-path="url(#clip4136)" >
<defs><clipPath id="clip4136"><path vector-effect="non-scaling-stroke" fill-rule="evenodd" d="M-202,-82 L17,-82 L17,30 L-202,30 L-202,-82z "/>
</clipPath></defs></g>

<g fill="none" stroke="none" transform="matrix(1,0,0,1,202,82)"
font-family="TeX Gyre Heros" font-size="16" font-weight="400" font-style="normal" 
clip-path="url(#clip4136)" >
<path vector-effect="none" fill-rule="evenodd" d="M-7.66406,0 L7.66406,0 L7.66406,17 L-7.66406,17 L-7.66406,0z "/>
</g>

<g fill="none" stroke="#000000" stroke-opacity="1" stroke-width="1" stroke-linecap="square" stroke-linejoin="bevel" transform="matrix(1,0,0,1,202,82)"
font-family="TeX Gyre Heros" font-size="10" font-weight="400" font-style="normal" 
clip-path="url(#clip4136)" >
</g>

<g fill="none" stroke="#000000" stroke-opacity="1" stroke-width="1" stroke-linecap="square" stroke-linejoin="bevel" transform="matrix(1,0,0,1,194.336,82)"
font-family="TeX Gyre Heros" font-size="10" font-weight="400" font-style="normal" 
clip-path="url(#clip4137)" >
<defs><clipPath id="clip4137"><path vector-effect="non-scaling-stroke" fill-rule="evenodd" d="M-194.336,-82 L24.6641,-82 L24.6641,30 L-194.336,30 L-194.336,-82z "/>
</clipPath></defs></g>

<g fill="none" stroke="#000000" stroke-opacity="1" stroke-width="1" stroke-linecap="square" stroke-linejoin="bevel" transform="matrix(1,0,0,1,194.336,82)"
font-family="TeX Gyre Heros" font-size="10" font-weight="400" font-style="normal" 
clip-path="url(#clip4137)" >
</g>

<g fill="none" stroke="#000000" stroke-opacity="1" stroke-width="1" stroke-linecap="square" stroke-linejoin="bevel" transform="matrix(1,0,0,1,194.336,82)"
font-family="TeX Gyre Heros" font-size="10" font-weight="400" font-style="normal" 
clip-path="url(#clip4138)" >
<defs><clipPath id="clip4138"><path vector-effect="non-scaling-stroke" fill-rule="evenodd" d="M0,0 L15,0 L15,17 L0,17 L0,0z "/>
</clipPath></defs><text textLength="13.3281" fill="#000000" fill-opacity="1" stroke="none" xml:space="preserve" x="1" y="13" font-family="TeX Gyre Heros" font-size="10" font-weight="400" font-style="normal" 
 >ym</text>
</g>

<g fill="none" stroke="#000000" stroke-opacity="1" stroke-width="1" stroke-linecap="square" stroke-linejoin="bevel" transform="matrix(1,0,0,1,194.336,82)"
font-family="TeX Gyre Heros" font-size="10" font-weight="400" font-style="normal" 
clip-path="url(#clip4139)" >
<defs><clipPath id="clip4139"><path vector-effect="non-scaling-stroke" fill-rule="evenodd" d="M-194.336,-82 L24.6641,-82 L24.6641,30 L-194.336,30 L-194.336,-82z "/>
</clipPath></defs></g>

<g fill="none" stroke="#000000" stroke-opacity="1" stroke-width="1" stroke-linecap="square" stroke-linejoin="bevel" transform="matrix(1,0,0,1,0,0)"
font-family="TeX Gyre Heros" font-size="10" font-weight="400" font-style="normal" 
clip-path="url(#clip4139)" >
</g>

<g fill="none" stroke="#000000" stroke-opacity="1" stroke-width="1" stroke-linecap="square" stroke-linejoin="bevel" transform="matrix(1,0,0,1,194.336,82)"
font-family="TeX Gyre Heros" font-size="10" font-weight="400" font-style="normal" 
clip-path="url(#clip4139)" >
</g>

<g fill="none" stroke="#000000" stroke-opacity="1" stroke-width="1" stroke-linecap="square" stroke-linejoin="bevel" transform="matrix(1,0,0,1,194.336,82)"
font-family="TeX Gyre Heros" font-size="10" font-weight="400" font-style="normal" 
clip-path="url(#clip4139)" >
</g>

<g fill="none" stroke="#000000" stroke-opacity="1" stroke-width="1" stroke-linecap="square" stroke-linejoin="bevel" transform="matrix(1,0,0,1,202,82)"
font-family="TeX Gyre Heros" font-size="10" font-weight="400" font-style="normal" 
clip-path="url(#clip4140)" >
<defs><clipPath id="clip4140"><path vector-effect="non-scaling-stroke" fill-rule="evenodd" d="M-202,-82 L17,-82 L17,30 L-202,30 L-202,-82z "/>
</clipPath></defs></g>

<g fill="none" stroke="#000000" stroke-opacity="1" stroke-width="1" stroke-linecap="square" stroke-linejoin="bevel" transform="matrix(1,0,0,1,202,82)"
font-family="TeX Gyre Heros" font-size="16" font-weight="400" font-style="normal" 
clip-path="url(#clip4140)" >
</g>

<g fill="none" stroke="#000000" stroke-opacity="1" stroke-width="1" stroke-linecap="square" stroke-linejoin="bevel" transform="matrix(1,0,0,1,192,2)"
font-family="TeX Gyre Heros" font-size="16" font-weight="400" font-style="normal" 
clip-path="url(#clip4141)" >
<defs><clipPath id="clip4141"><path vector-effect="non-scaling-stroke" fill-rule="evenodd" d="M-192,-2 L27,-2 L27,110 L-192,110 L-192,-2z "/>
</clipPath></defs></g>

<g fill="#e8d152" fill-opacity="1" stroke="none" transform="matrix(1,0,0,1,192,2)"
font-family="TeX Gyre Heros" font-size="16" font-weight="400" font-style="normal" 
clip-path="url(#clip4141)" >
<path vector-effect="none" fill-rule="evenodd" d="M0,0 L25,0 L25,26 L0,26 L0,0z "/>
</g>

<g fill="none" stroke="#000000" stroke-opacity="1" stroke-width="1" stroke-linecap="square" stroke-linejoin="bevel" transform="matrix(1,0,0,1,192,2)"
font-family="TeX Gyre Heros" font-size="16" font-weight="400" font-style="normal" 
clip-path="url(#clip4141)" >
</g>

<g fill="none" stroke="#000000" stroke-opacity="1" stroke-width="1" stroke-linecap="square" stroke-linejoin="bevel" transform="matrix(1,0,0,1,192,2)"
font-family="TeX Gyre Heros" font-size="16" font-weight="400" font-style="normal" 
clip-path="url(#clip4141)" >
</g>

<g fill="none" stroke="#000000" stroke-opacity="1" stroke-width="1" stroke-linecap="square" stroke-linejoin="bevel" transform="matrix(1,0,0,1,192,2)"
font-family="TeX Gyre Heros" font-size="16" font-weight="400" font-style="normal" 
clip-path="url(#clip4142)" >
<defs><clipPath id="clip4142"><path vector-effect="non-scaling-stroke" fill-rule="evenodd" d="M0,0 L25,0 L25,26 L0,26 L0,0z "/>
</clipPath></defs></g>

<g fill="none" stroke="#000000" stroke-opacity="1" stroke-width="1" stroke-linecap="square" stroke-linejoin="bevel" transform="matrix(1,0,0,1,204,15)"
font-family="Liberation Sans" font-size="10" font-weight="400" font-style="normal" 
clip-path="url(#clip4143)" >
<defs><clipPath id="clip4143"><path vector-effect="none" fill-rule="evenodd" d="M-12,-13 L13,-13 L13,13 L-12,13 L-12,-13z "/>
</clipPath></defs></g>

<g fill="none" stroke="#000000" stroke-opacity="1" stroke-width="1" stroke-linecap="square" stroke-linejoin="bevel" transform="matrix(1,0,0,1,204,15)"
font-family="Liberation Sans" font-size="10" font-weight="400" font-style="normal" 
clip-path="url(#clip4143)" >
<text textLength="13.3281" fill="#000000" fill-opacity="1" stroke="none" xml:space="preserve" x="-6.5" y="3" font-family="Liberation Sans" font-size="10" font-weight="400" font-style="normal" 
 >ym</text>
</g>

<g fill="none" stroke="#000000" stroke-opacity="1" stroke-width="1" stroke-linecap="square" stroke-linejoin="bevel" transform="matrix(1,0,0,1,204,15)"
font-family="Liberation Sans" font-size="10" font-weight="400" font-style="normal" 
clip-path="url(#clip4143)" >
</g>

<g fill="none" stroke="#000000" stroke-opacity="1" stroke-width="1" stroke-linecap="square" stroke-linejoin="bevel" transform="matrix(1,0,0,1,204,15)"
font-family="Liberation Sans" font-size="10" font-weight="400" font-style="normal" 
clip-path="url(#clip4144)" >
<defs><clipPath id="clip4144"><path vector-effect="none" fill-rule="evenodd" d="M-192,-2 L27,-2 L27,110 L-192,110 L-192,-2z "/>
</clipPath></defs></g>

<g fill="none" stroke="#000000" stroke-opacity="1" stroke-width="1" stroke-linecap="square" stroke-linejoin="bevel" transform="matrix(1,0,0,1,0,0)"
font-family="Liberation Sans" font-size="10" font-weight="400" font-style="normal" 
clip-path="url(#clip4144)" >
</g>

<g fill="none" stroke="#000000" stroke-opacity="1" stroke-width="1" stroke-linecap="square" stroke-linejoin="bevel" transform="matrix(1,0,0,1,192,2)"
font-family="TeX Gyre Heros" font-size="16" font-weight="400" font-style="normal" 
clip-path="url(#clip4144)" >
</g>

<g fill="none" stroke="#000000" stroke-opacity="1" stroke-width="1" stroke-linecap="square" stroke-linejoin="bevel" transform="matrix(1,0,0,1,192,2)"
font-family="TeX Gyre Heros" font-size="16" font-weight="400" font-style="normal" 
clip-path="url(#clip4144)" >
</g>

<g fill="none" stroke="#000000" stroke-opacity="1" stroke-width="1" stroke-linecap="butt" stroke-linejoin="miter" stroke-miterlimit="2" transform="matrix(1,0,0,1,192.5,2.5)"
font-family="TeX Gyre Heros" font-size="16" font-weight="400" font-style="normal" 
clip-path="url(#clip4145)" >
<defs><clipPath id="clip4145"><path vector-effect="none" fill-rule="evenodd" d="M-192.5,-2.5 L26.5,-2.5 L26.5,109.5 L-192.5,109.5 L-192.5,-2.5z "/>
</clipPath></defs><path vector-effect="none" fill-rule="evenodd" d="M0,0 L25,0 L25,26 L0,26 L0,0z "/>
</g>

<g fill="none" stroke="#000000" stroke-opacity="1" stroke-width="1" stroke-linecap="square" stroke-linejoin="bevel" transform="matrix(1,0,0,1,192,2)"
font-family="TeX Gyre Heros" font-size="16" font-weight="400" font-style="normal" 
clip-path="url(#clip4146)" >
<defs><clipPath id="clip4146"><path vector-effect="non-scaling-stroke" fill-rule="evenodd" d="M-192,-2 L27,-2 L27,110 L-192,110 L-192,-2z "/>
</clipPath></defs></g>

<g fill="none" stroke="#000000" stroke-opacity="1" stroke-width="1" stroke-linecap="square" stroke-linejoin="bevel" transform="matrix(1,0,0,1,52,49)"
font-family="TeX Gyre Heros" font-size="16" font-weight="400" font-style="normal" 
clip-path="url(#clip4147)" >
<defs><clipPath id="clip4147"><path vector-effect="non-scaling-stroke" fill-rule="evenodd" d="M-52,-49 L167,-49 L167,63 L-52,63 L-52,-49z "/>
</clipPath></defs></g>

<g fill="#80ff80" fill-opacity="1" stroke="none" transform="matrix(1,0,0,1,52,49)"
font-family="TeX Gyre Heros" font-size="16" font-weight="400" font-style="normal" 
clip-path="url(#clip4147)" >
<path vector-effect="none" fill-rule="evenodd" d="M0,0 L75,0 L75,42 L0,42 L0,0z "/>
</g>

<g fill="none" stroke="#000000" stroke-opacity="1" stroke-width="1" stroke-linecap="square" stroke-linejoin="bevel" transform="matrix(1,0,0,1,52,49)"
font-family="TeX Gyre Heros" font-size="16" font-weight="400" font-style="normal" 
clip-path="url(#clip4147)" >
</g>

<g fill="none" stroke="#000000" stroke-opacity="1" stroke-width="1" stroke-linecap="square" stroke-linejoin="bevel" transform="matrix(1,0,0,1,52,49)"
font-family="TeX Gyre Heros" font-size="16" font-weight="400" font-style="normal" 
clip-path="url(#clip4147)" >
</g>

<g fill="none" stroke="#000000" stroke-opacity="1" stroke-width="1" stroke-linecap="square" stroke-linejoin="bevel" transform="matrix(1,0,0,1,52,49)"
font-family="TeX Gyre Heros" font-size="16" font-weight="400" font-style="normal" 
clip-path="url(#clip4148)" >
<defs><clipPath id="clip4148"><path vector-effect="non-scaling-stroke" fill-rule="evenodd" d="M0,0 L75,0 L75,42 L0,42 L0,0z "/>
</clipPath></defs></g>

<g fill="none" stroke="#000000" stroke-opacity="1" stroke-width="1" stroke-linecap="square" stroke-linejoin="bevel" transform="matrix(1,0,0,1,89,70)"
font-family="Liberation Sans" font-size="10" font-weight="400" font-style="normal" 
clip-path="url(#clip4149)" >
<defs><clipPath id="clip4149"><path vector-effect="none" fill-rule="evenodd" d="M-37,-21 L38,-21 L38,21 L-37,21 L-37,-21z "/>
</clipPath></defs></g>

<g fill="none" stroke="#000000" stroke-opacity="1" stroke-width="1" stroke-linecap="square" stroke-linejoin="bevel" transform="matrix(1,0,0,1,89,70)"
font-family="Liberation Sans" font-size="10" font-weight="400" font-style="normal" 
clip-path="url(#clip4149)" >
<text textLength="8.32812" fill="#000000" fill-opacity="1" stroke="none" xml:space="preserve" x="-4.5" y="3" font-family="Liberation Sans" font-size="10" font-weight="400" font-style="normal" 
 >M</text>
</g>

<g fill="none" stroke="#000000" stroke-opacity="1" stroke-width="1" stroke-linecap="square" stroke-linejoin="bevel" transform="matrix(1,0,0,1,89,70)"
font-family="Liberation Sans" font-size="10" font-weight="400" font-style="normal" 
clip-path="url(#clip4149)" >
</g>

<g fill="none" stroke="#000000" stroke-opacity="1" stroke-width="1" stroke-linecap="square" stroke-linejoin="bevel" transform="matrix(1,0,0,1,89,70)"
font-family="Liberation Sans" font-size="10" font-weight="400" font-style="normal" 
clip-path="url(#clip4150)" >
<defs><clipPath id="clip4150"><path vector-effect="none" fill-rule="evenodd" d="M-52,-49 L167,-49 L167,63 L-52,63 L-52,-49z "/>
</clipPath></defs></g>

<g fill="none" stroke="#000000" stroke-opacity="1" stroke-width="1" stroke-linecap="square" stroke-linejoin="bevel" transform="matrix(1,0,0,1,0,0)"
font-family="Liberation Sans" font-size="10" font-weight="400" font-style="normal" 
clip-path="url(#clip4150)" >
</g>

<g fill="none" stroke="#000000" stroke-opacity="1" stroke-width="1" stroke-linecap="square" stroke-linejoin="bevel" transform="matrix(1,0,0,1,52,49)"
font-family="TeX Gyre Heros" font-size="16" font-weight="400" font-style="normal" 
clip-path="url(#clip4150)" >
</g>

<g fill="none" stroke="#000000" stroke-opacity="1" stroke-width="1" stroke-linecap="square" stroke-linejoin="bevel" transform="matrix(1,0,0,1,52,49)"
font-family="TeX Gyre Heros" font-size="16" font-weight="400" font-style="normal" 
clip-path="url(#clip4150)" >
</g>

<g fill="none" stroke="#000000" stroke-opacity="1" stroke-width="1" stroke-linecap="butt" stroke-linejoin="miter" stroke-miterlimit="2" transform="matrix(1,0,0,1,52.5,49.5)"
font-family="TeX Gyre Heros" font-size="16" font-weight="400" font-style="normal" 
clip-path="url(#clip4151)" >
<defs><clipPath id="clip4151"><path vector-effect="none" fill-rule="evenodd" d="M-52.5,-49.5 L166.5,-49.5 L166.5,62.5 L-52.5,62.5 L-52.5,-49.5z "/>
</clipPath></defs><path vector-effect="none" fill-rule="evenodd" d="M0,0 L75,0 L75,42 L0,42 L0,0z "/>
</g>

<g fill="none" stroke="#000000" stroke-opacity="1" stroke-width="1" stroke-linecap="square" stroke-linejoin="bevel" transform="matrix(1,0,0,1,52,49)"
font-family="TeX Gyre Heros" font-size="16" font-weight="400" font-style="normal" 
clip-path="url(#clip4152)" >
<defs><clipPath id="clip4152"><path vector-effect="non-scaling-stroke" fill-rule="evenodd" d="M-52,-49 L167,-49 L167,63 L-52,63 L-52,-49z "/>
</clipPath></defs></g>

<g fill="none" stroke="#000000" stroke-opacity="1" stroke-width="1" stroke-linecap="square" stroke-linejoin="bevel" transform="matrix(1,0,0,1,89.5,93)"
font-family="TeX Gyre Heros" font-size="16" font-weight="400" font-style="normal" 
clip-path="url(#clip4153)" >
<defs><clipPath id="clip4153"><path vector-effect="non-scaling-stroke" fill-rule="evenodd" d="M-89.5,-93 L129.5,-93 L129.5,19 L-89.5,19 L-89.5,-93z "/>
</clipPath></defs></g>

<g fill="none" stroke="none" transform="matrix(1,0,0,1,89.5,93)"
font-family="TeX Gyre Heros" font-size="16" font-weight="400" font-style="normal" 
clip-path="url(#clip4153)" >
<path vector-effect="none" fill-rule="evenodd" d="M-17.3672,0 L17.3672,0 L17.3672,17 L-17.3672,17 L-17.3672,0z "/>
</g>

<g fill="none" stroke="#000000" stroke-opacity="1" stroke-width="1" stroke-linecap="square" stroke-linejoin="bevel" transform="matrix(1,0,0,1,89.5,93)"
font-family="TeX Gyre Heros" font-size="10" font-weight="400" font-style="normal" 
clip-path="url(#clip4153)" >
</g>

<g fill="none" stroke="#000000" stroke-opacity="1" stroke-width="1" stroke-linecap="square" stroke-linejoin="bevel" transform="matrix(1,0,0,1,72.1328,93)"
font-family="TeX Gyre Heros" font-size="10" font-weight="400" font-style="normal" 
clip-path="url(#clip4154)" >
<defs><clipPath id="clip4154"><path vector-effect="non-scaling-stroke" fill-rule="evenodd" d="M-72.1328,-93 L146.867,-93 L146.867,19 L-72.1328,19 L-72.1328,-93z "/>
</clipPath></defs></g>

<g fill="none" stroke="#000000" stroke-opacity="1" stroke-width="1" stroke-linecap="square" stroke-linejoin="bevel" transform="matrix(1,0,0,1,72.1328,93)"
font-family="TeX Gyre Heros" font-size="10" font-weight="400" font-style="normal" 
clip-path="url(#clip4154)" >
</g>

<g fill="none" stroke="#000000" stroke-opacity="1" stroke-width="1" stroke-linecap="square" stroke-linejoin="bevel" transform="matrix(1,0,0,1,72.1328,93)"
font-family="TeX Gyre Heros" font-size="10" font-weight="400" font-style="normal" 
clip-path="url(#clip4155)" >
<defs><clipPath id="clip4155"><path vector-effect="non-scaling-stroke" fill-rule="evenodd" d="M0,0 L35,0 L35,17 L0,17 L0,0z "/>
</clipPath></defs><text textLength="32.7344" fill="#000000" fill-opacity="1" stroke="none" xml:space="preserve" x="1" y="13" font-family="TeX Gyre Heros" font-size="10" font-weight="400" font-style="normal" 
 >Modelo</text>
</g>

<g fill="none" stroke="#000000" stroke-opacity="1" stroke-width="1" stroke-linecap="square" stroke-linejoin="bevel" transform="matrix(1,0,0,1,72.1328,93)"
font-family="TeX Gyre Heros" font-size="10" font-weight="400" font-style="normal" 
clip-path="url(#clip4156)" >
<defs><clipPath id="clip4156"><path vector-effect="non-scaling-stroke" fill-rule="evenodd" d="M-72.1328,-93 L146.867,-93 L146.867,19 L-72.1328,19 L-72.1328,-93z "/>
</clipPath></defs></g>

<g fill="none" stroke="#000000" stroke-opacity="1" stroke-width="1" stroke-linecap="square" stroke-linejoin="bevel" transform="matrix(1,0,0,1,0,0)"
font-family="TeX Gyre Heros" font-size="10" font-weight="400" font-style="normal" 
clip-path="url(#clip4156)" >
</g>

<g fill="none" stroke="#000000" stroke-opacity="1" stroke-width="1" stroke-linecap="square" stroke-linejoin="bevel" transform="matrix(1,0,0,1,72.1328,93)"
font-family="TeX Gyre Heros" font-size="10" font-weight="400" font-style="normal" 
clip-path="url(#clip4156)" >
</g>

<g fill="none" stroke="#000000" stroke-opacity="1" stroke-width="1" stroke-linecap="square" stroke-linejoin="bevel" transform="matrix(1,0,0,1,72.1328,93)"
font-family="TeX Gyre Heros" font-size="10" font-weight="400" font-style="normal" 
clip-path="url(#clip4156)" >
</g>

<g fill="none" stroke="#000000" stroke-opacity="1" stroke-width="1" stroke-linecap="square" stroke-linejoin="bevel" transform="matrix(1,0,0,1,89.5,93)"
font-family="TeX Gyre Heros" font-size="10" font-weight="400" font-style="normal" 
clip-path="url(#clip4157)" >
<defs><clipPath id="clip4157"><path vector-effect="non-scaling-stroke" fill-rule="evenodd" d="M-89.5,-93 L129.5,-93 L129.5,19 L-89.5,19 L-89.5,-93z "/>
</clipPath></defs></g>

<g fill="none" stroke="#000000" stroke-opacity="1" stroke-width="1" stroke-linecap="square" stroke-linejoin="bevel" transform="matrix(1,0,0,1,89.5,93)"
font-family="TeX Gyre Heros" font-size="16" font-weight="400" font-style="normal" 
clip-path="url(#clip4157)" >
</g>

<g fill="none" stroke="#000000" stroke-opacity="1" stroke-width="1" stroke-linecap="square" stroke-linejoin="bevel" transform="matrix(1,0,0,1,2,60)"
font-family="TeX Gyre Heros" font-size="16" font-weight="400" font-style="normal" 
clip-path="url(#clip4158)" >
<defs><clipPath id="clip4158"><path vector-effect="non-scaling-stroke" fill-rule="evenodd" d="M-2,-60 L217,-60 L217,52 L-2,52 L-2,-60z "/>
</clipPath></defs></g>

<g fill="#00d100" fill-opacity="1" stroke="none" transform="matrix(1,0,0,1,2,60)"
font-family="TeX Gyre Heros" font-size="16" font-weight="400" font-style="normal" 
clip-path="url(#clip4158)" >
<path vector-effect="none" fill-rule="nonzero" d="M0,10 C0,15.5228 4.47715,20 10,20 C15.5228,20 20,15.5228 20,10 C20,4.47715 15.5228,0 10,0 C4.47715,0 0,4.47715 0,10 z "/>
</g>

<g fill="none" stroke="#000000" stroke-opacity="1" stroke-width="1" stroke-linecap="square" stroke-linejoin="bevel" transform="matrix(1,0,0,1,2,60)"
font-family="TeX Gyre Heros" font-size="16" font-weight="400" font-style="normal" 
clip-path="url(#clip4158)" >
</g>

<g fill="none" stroke="#000000" stroke-opacity="1" stroke-width="1" stroke-linecap="square" stroke-linejoin="bevel" transform="matrix(1,0,0,1,2,60)"
font-family="TeX Gyre Heros" font-size="16" font-weight="400" font-style="normal" 
clip-path="url(#clip4158)" >
</g>

<g fill="none" stroke="#000000" stroke-opacity="1" stroke-width="1" stroke-linecap="square" stroke-linejoin="bevel" transform="matrix(1,0,0,1,2,60)"
font-family="TeX Gyre Heros" font-size="16" font-weight="400" font-style="normal" 
clip-path="url(#clip4159)" >
<defs><clipPath id="clip4159"><path vector-effect="non-scaling-stroke" fill-rule="evenodd" d="M0,0 L20,0 L20,20 L0,20 L0,0z "/>
</clipPath></defs></g>

<g fill="none" stroke="#000000" stroke-opacity="1" stroke-width="1" stroke-linecap="square" stroke-linejoin="bevel" transform="matrix(1,0,0,1,12,70)"
font-family="Liberation Sans" font-size="10" font-weight="400" font-style="normal" 
clip-path="url(#clip4160)" >
<defs><clipPath id="clip4160"><path vector-effect="none" fill-rule="evenodd" d="M-10,-10 L10,-10 L10,10 L-10,10 L-10,-10z "/>
</clipPath></defs></g>

<g fill="none" stroke="#000000" stroke-opacity="1" stroke-width="1" stroke-linecap="square" stroke-linejoin="bevel" transform="matrix(1,0,0,1,12,70)"
font-family="Liberation Sans" font-size="10" font-weight="400" font-style="normal" 
clip-path="url(#clip4160)" >
<text textLength="5.54688" fill="#000000" fill-opacity="1" stroke="none" xml:space="preserve" x="-2.5" y="3" font-family="Liberation Sans" font-size="10" font-weight="400" font-style="normal" 
 >1</text>
</g>

<g fill="none" stroke="#000000" stroke-opacity="1" stroke-width="1" stroke-linecap="square" stroke-linejoin="bevel" transform="matrix(1,0,0,1,12,70)"
font-family="Liberation Sans" font-size="10" font-weight="400" font-style="normal" 
clip-path="url(#clip4160)" >
</g>

<g fill="none" stroke="#000000" stroke-opacity="1" stroke-width="1" stroke-linecap="square" stroke-linejoin="bevel" transform="matrix(1,0,0,1,12,70)"
font-family="Liberation Sans" font-size="10" font-weight="400" font-style="normal" 
clip-path="url(#clip4161)" >
<defs><clipPath id="clip4161"><path vector-effect="none" fill-rule="evenodd" d="M-2,-60 L217,-60 L217,52 L-2,52 L-2,-60z "/>
</clipPath></defs></g>

<g fill="none" stroke="#000000" stroke-opacity="1" stroke-width="1" stroke-linecap="square" stroke-linejoin="bevel" transform="matrix(1,0,0,1,0,0)"
font-family="Liberation Sans" font-size="10" font-weight="400" font-style="normal" 
clip-path="url(#clip4161)" >
</g>

<g fill="none" stroke="#000000" stroke-opacity="1" stroke-width="1" stroke-linecap="square" stroke-linejoin="bevel" transform="matrix(1,0,0,1,2,60)"
font-family="TeX Gyre Heros" font-size="16" font-weight="400" font-style="normal" 
clip-path="url(#clip4161)" >
</g>

<g fill="none" stroke="#000000" stroke-opacity="1" stroke-width="1" stroke-linecap="square" stroke-linejoin="bevel" transform="matrix(1,0,0,1,2,60)"
font-family="TeX Gyre Heros" font-size="16" font-weight="400" font-style="normal" 
clip-path="url(#clip4161)" >
</g>

<g fill="none" stroke="#000000" stroke-opacity="1" stroke-width="1" stroke-linecap="butt" stroke-linejoin="miter" stroke-miterlimit="2" transform="matrix(1,0,0,1,2.5,60.5)"
font-family="TeX Gyre Heros" font-size="16" font-weight="400" font-style="normal" 
clip-path="url(#clip4162)" >
<defs><clipPath id="clip4162"><path vector-effect="none" fill-rule="evenodd" d="M-2.5,-60.5 L216.5,-60.5 L216.5,51.5 L-2.5,51.5 L-2.5,-60.5z "/>
</clipPath></defs><path vector-effect="none" fill-rule="nonzero" d="M0,10 C0,15.5228 4.47715,20 10,20 C15.5228,20 20,15.5228 20,10 C20,4.47715 15.5228,0 10,0 C4.47715,0 0,4.47715 0,10 z "/>
</g>

<g fill="none" stroke="#000000" stroke-opacity="1" stroke-width="1" stroke-linecap="square" stroke-linejoin="bevel" transform="matrix(1,0,0,1,2,60)"
font-family="TeX Gyre Heros" font-size="16" font-weight="400" font-style="normal" 
clip-path="url(#clip4163)" >
<defs><clipPath id="clip4163"><path vector-effect="non-scaling-stroke" fill-rule="evenodd" d="M-2,-60 L217,-60 L217,52 L-2,52 L-2,-60z "/>
</clipPath></defs></g>

<g fill="none" stroke="#000000" stroke-opacity="1" stroke-width="1" stroke-linecap="square" stroke-linejoin="bevel" transform="matrix(1,0,0,1,12,82)"
font-family="TeX Gyre Heros" font-size="16" font-weight="400" font-style="normal" 
clip-path="url(#clip4164)" >
<defs><clipPath id="clip4164"><path vector-effect="non-scaling-stroke" fill-rule="evenodd" d="M-12,-82 L207,-82 L207,30 L-12,30 L-12,-82z "/>
</clipPath></defs></g>

<g fill="none" stroke="none" transform="matrix(1,0,0,1,12,82)"
font-family="TeX Gyre Heros" font-size="16" font-weight="400" font-style="normal" 
clip-path="url(#clip4164)" >
<path vector-effect="none" fill-rule="evenodd" d="M-3.16406,0 L3.16406,0 L3.16406,17 L-3.16406,17 L-3.16406,0z "/>
</g>

<g fill="none" stroke="#000000" stroke-opacity="1" stroke-width="1" stroke-linecap="square" stroke-linejoin="bevel" transform="matrix(1,0,0,1,12,82)"
font-family="TeX Gyre Heros" font-size="10" font-weight="400" font-style="normal" 
clip-path="url(#clip4164)" >
</g>

<g fill="none" stroke="#000000" stroke-opacity="1" stroke-width="1" stroke-linecap="square" stroke-linejoin="bevel" transform="matrix(1,0,0,1,8.83594,82)"
font-family="TeX Gyre Heros" font-size="10" font-weight="400" font-style="normal" 
clip-path="url(#clip4165)" >
<defs><clipPath id="clip4165"><path vector-effect="non-scaling-stroke" fill-rule="evenodd" d="M-8.83594,-82 L210.164,-82 L210.164,30 L-8.83594,30 L-8.83594,-82z "/>
</clipPath></defs></g>

<g fill="none" stroke="#000000" stroke-opacity="1" stroke-width="1" stroke-linecap="square" stroke-linejoin="bevel" transform="matrix(1,0,0,1,8.83594,82)"
font-family="TeX Gyre Heros" font-size="10" font-weight="400" font-style="normal" 
clip-path="url(#clip4165)" >
</g>

<g fill="none" stroke="#000000" stroke-opacity="1" stroke-width="1" stroke-linecap="square" stroke-linejoin="bevel" transform="matrix(1,0,0,1,8.83594,82)"
font-family="TeX Gyre Heros" font-size="10" font-weight="400" font-style="normal" 
clip-path="url(#clip4166)" >
<defs><clipPath id="clip4166"><path vector-effect="non-scaling-stroke" fill-rule="evenodd" d="M0,0 L6,0 L6,17 L0,17 L0,0z "/>
</clipPath></defs><text textLength="3.32812" fill="#000000" fill-opacity="1" stroke="none" xml:space="preserve" x="1.5" y="13" font-family="TeX Gyre Heros" font-size="10" font-weight="400" font-style="normal" 
 >r</text>
</g>

<g fill="none" stroke="#000000" stroke-opacity="1" stroke-width="1" stroke-linecap="square" stroke-linejoin="bevel" transform="matrix(1,0,0,1,8.83594,82)"
font-family="TeX Gyre Heros" font-size="10" font-weight="400" font-style="normal" 
clip-path="url(#clip4167)" >
<defs><clipPath id="clip4167"><path vector-effect="non-scaling-stroke" fill-rule="evenodd" d="M-8.83594,-82 L210.164,-82 L210.164,30 L-8.83594,30 L-8.83594,-82z "/>
</clipPath></defs></g>

<g fill="none" stroke="#000000" stroke-opacity="1" stroke-width="1" stroke-linecap="square" stroke-linejoin="bevel" transform="matrix(1,0,0,1,0,0)"
font-family="TeX Gyre Heros" font-size="10" font-weight="400" font-style="normal" 
clip-path="url(#clip4167)" >
</g>

<g fill="none" stroke="#000000" stroke-opacity="1" stroke-width="1" stroke-linecap="square" stroke-linejoin="bevel" transform="matrix(1,0,0,1,8.83594,82)"
font-family="TeX Gyre Heros" font-size="10" font-weight="400" font-style="normal" 
clip-path="url(#clip4167)" >
</g>

<g fill="none" stroke="#000000" stroke-opacity="1" stroke-width="1" stroke-linecap="square" stroke-linejoin="bevel" transform="matrix(1,0,0,1,8.83594,82)"
font-family="TeX Gyre Heros" font-size="10" font-weight="400" font-style="normal" 
clip-path="url(#clip4167)" >
</g>

<g fill="none" stroke="#000000" stroke-opacity="1" stroke-width="1" stroke-linecap="square" stroke-linejoin="bevel" transform="matrix(1,0,0,1,12,82)"
font-family="TeX Gyre Heros" font-size="10" font-weight="400" font-style="normal" 
clip-path="url(#clip4168)" >
<defs><clipPath id="clip4168"><path vector-effect="non-scaling-stroke" fill-rule="evenodd" d="M-12,-82 L207,-82 L207,30 L-12,30 L-12,-82z "/>
</clipPath></defs></g>

<g fill="none" stroke="#000000" stroke-opacity="1" stroke-width="1" stroke-linecap="square" stroke-linejoin="bevel" transform="matrix(1,0,0,1,12,82)"
font-family="TeX Gyre Heros" font-size="16" font-weight="400" font-style="normal" 
clip-path="url(#clip4168)" >
</g>

<g fill="none" stroke="#000000" stroke-opacity="1" stroke-width="1" stroke-linecap="square" stroke-linejoin="bevel" transform="matrix(1,0,0,1,-38,-45)"
font-family="TeX Gyre Heros" font-size="16" font-weight="400" font-style="normal" 
clip-path="url(#clip4169)" >
<defs><clipPath id="clip4169"><path vector-effect="non-scaling-stroke" fill-rule="evenodd" d="M38,45 L257,45 L257,157 L38,157 L38,45z "/>
</clipPath></defs></g>

<g fill="none" stroke="#000000" stroke-opacity="1" stroke-width="1" stroke-linecap="butt" stroke-linejoin="miter" stroke-miterlimit="2" transform="matrix(1,0,0,1,-38,-45)"
font-family="TeX Gyre Heros" font-size="16" font-weight="400" font-style="normal" 
clip-path="url(#clip4169)" >
<path vector-effect="none" fill-rule="evenodd" d="M165,115 L195,115"/>
</g>

<g fill="none" stroke="#000000" stroke-opacity="1" stroke-width="1" stroke-linecap="square" stroke-linejoin="bevel" transform="matrix(1,0,0,1,-38,-45)"
font-family="TeX Gyre Heros" font-size="16" font-weight="400" font-style="normal" 
clip-path="url(#clip4169)" >
</g>

<g fill="none" stroke="#000000" stroke-opacity="1" stroke-width="1" stroke-linecap="square" stroke-linejoin="bevel" transform="matrix(1,0,0,1,157,70)"
font-family="TeX Gyre Heros" font-size="16" font-weight="400" font-style="normal" 
clip-path="url(#clip4170)" >
<defs><clipPath id="clip4170"><path vector-effect="non-scaling-stroke" fill-rule="evenodd" d="M-157,-70 L62,-70 L62,42 L-157,42 L-157,-70z "/>
</clipPath></defs></g>

<g fill="none" stroke="#000000" stroke-opacity="1" stroke-width="1" stroke-linecap="square" stroke-linejoin="bevel" transform="matrix(1,0,0,1,157,70)"
font-family="TeX Gyre Heros" font-size="16" font-weight="400" font-style="normal" 
clip-path="url(#clip4170)" >
</g>

<g fill="none" stroke="#000000" stroke-opacity="1" stroke-width="1" stroke-linecap="square" stroke-linejoin="bevel" transform="matrix(1,0,0,1,192,15)"
font-family="TeX Gyre Heros" font-size="16" font-weight="400" font-style="normal" 
clip-path="url(#clip4171)" >
<defs><clipPath id="clip4171"><path vector-effect="non-scaling-stroke" fill-rule="evenodd" d="M-192,-15 L27,-15 L27,97 L-192,97 L-192,-15z "/>
</clipPath></defs></g>

<g fill="#000000" fill-opacity="1" stroke="none" transform="matrix(1,0,0,1,192,15)"
font-family="TeX Gyre Heros" font-size="16" font-weight="400" font-style="normal" 
clip-path="url(#clip4171)" >
<path vector-effect="none" fill-rule="nonzero" d="M0,0 L-8,-4 L-8,4 L0,0z "/>
</g>

<g fill="none" stroke="#000000" stroke-opacity="1" stroke-width="1" stroke-linecap="square" stroke-linejoin="bevel" transform="matrix(1,0,0,1,192,15)"
font-family="TeX Gyre Heros" font-size="16" font-weight="400" font-style="normal" 
clip-path="url(#clip4171)" >
</g>

<g fill="none" stroke="#000000" stroke-opacity="1" stroke-width="1" stroke-linecap="square" stroke-linejoin="bevel" transform="matrix(1,0,0,1,-38,-45)"
font-family="TeX Gyre Heros" font-size="16" font-weight="400" font-style="normal" 
clip-path="url(#clip4172)" >
<defs><clipPath id="clip4172"><path vector-effect="non-scaling-stroke" fill-rule="evenodd" d="M38,45 L257,45 L257,157 L38,157 L38,45z "/>
</clipPath></defs></g>

<g fill="none" stroke="#000000" stroke-opacity="1" stroke-width="1" stroke-linecap="butt" stroke-linejoin="miter" stroke-miterlimit="2" transform="matrix(1,0,0,1,-38,-45)"
font-family="TeX Gyre Heros" font-size="16" font-weight="400" font-style="normal" 
clip-path="url(#clip4172)" >
<path vector-effect="none" fill-rule="evenodd" d="M195,115 L195,60 L222,60"/>
</g>

<g fill="none" stroke="#000000" stroke-opacity="1" stroke-width="1" stroke-linecap="square" stroke-linejoin="bevel" transform="matrix(1,0,0,1,-38,-45)"
font-family="TeX Gyre Heros" font-size="16" font-weight="400" font-style="normal" 
clip-path="url(#clip4172)" >
</g>

<g fill="none" stroke="#000000" stroke-opacity="1" stroke-width="1" stroke-linecap="square" stroke-linejoin="bevel" transform="matrix(1,0,0,1,192,70)"
font-family="TeX Gyre Heros" font-size="16" font-weight="400" font-style="normal" 
clip-path="url(#clip4173)" >
<defs><clipPath id="clip4173"><path vector-effect="non-scaling-stroke" fill-rule="evenodd" d="M-192,-70 L27,-70 L27,42 L-192,42 L-192,-70z "/>
</clipPath></defs></g>

<g fill="#000000" fill-opacity="1" stroke="none" transform="matrix(1,0,0,1,192,70)"
font-family="TeX Gyre Heros" font-size="16" font-weight="400" font-style="normal" 
clip-path="url(#clip4173)" >
<path vector-effect="none" fill-rule="nonzero" d="M0,0 L-8,-4 L-8,4 L0,0z "/>
</g>

<g fill="none" stroke="#000000" stroke-opacity="1" stroke-width="1" stroke-linecap="square" stroke-linejoin="bevel" transform="matrix(1,0,0,1,192,70)"
font-family="TeX Gyre Heros" font-size="16" font-weight="400" font-style="normal" 
clip-path="url(#clip4173)" >
</g>

<g fill="none" stroke="#000000" stroke-opacity="1" stroke-width="1" stroke-linecap="square" stroke-linejoin="bevel" transform="matrix(1,0,0,1,-38,-45)"
font-family="TeX Gyre Heros" font-size="16" font-weight="400" font-style="normal" 
clip-path="url(#clip4174)" >
<defs><clipPath id="clip4174"><path vector-effect="non-scaling-stroke" fill-rule="evenodd" d="M38,45 L257,45 L257,157 L38,157 L38,45z "/>
</clipPath></defs></g>

<g fill="none" stroke="#000000" stroke-opacity="1" stroke-width="1" stroke-linecap="butt" stroke-linejoin="miter" stroke-miterlimit="2" transform="matrix(1,0,0,1,-38,-45)"
font-family="TeX Gyre Heros" font-size="16" font-weight="400" font-style="normal" 
clip-path="url(#clip4174)" >
<path vector-effect="none" fill-rule="evenodd" d="M195,115 L222,115"/>
</g>

<g fill="none" stroke="#000000" stroke-opacity="1" stroke-width="1" stroke-linecap="square" stroke-linejoin="bevel" transform="matrix(1,0,0,1,-38,-45)"
font-family="TeX Gyre Heros" font-size="16" font-weight="400" font-style="normal" 
clip-path="url(#clip4174)" >
</g>

<g fill="none" stroke="#000000" stroke-opacity="1" stroke-width="1" stroke-linecap="square" stroke-linejoin="bevel" transform="matrix(1,0,0,1,157,70)"
font-family="TeX Gyre Heros" font-size="16" font-weight="400" font-style="normal" 
clip-path="url(#clip4175)" >
<defs><clipPath id="clip4175"><path vector-effect="non-scaling-stroke" fill-rule="evenodd" d="M-157,-70 L62,-70 L62,42 L-157,42 L-157,-70z "/>
</clipPath></defs></g>

<g fill="#000000" fill-opacity="1" stroke="none" transform="matrix(1,0,0,1,157,70)"
font-family="TeX Gyre Heros" font-size="16" font-weight="400" font-style="normal" 
clip-path="url(#clip4175)" >
<path vector-effect="none" fill-rule="evenodd" d="M2,0 C2,1.10457 1.10457,2 0,2 C-1.10457,2 -2,1.10457 -2,0 C-2,-1.10457 -1.10457,-2 0,-2 C1.10457,-2 2,-1.10457 2,0 z "/>
</g>

<g fill="none" stroke="#000000" stroke-opacity="1" stroke-width="1" stroke-linecap="square" stroke-linejoin="bevel" transform="matrix(1,0,0,1,157,70)"
font-family="TeX Gyre Heros" font-size="16" font-weight="400" font-style="normal" 
clip-path="url(#clip4175)" >
</g>

<g fill="none" stroke="#000000" stroke-opacity="1" stroke-width="1" stroke-linecap="square" stroke-linejoin="bevel" transform="matrix(1,0,0,1,52,70)"
font-family="TeX Gyre Heros" font-size="16" font-weight="400" font-style="normal" 
clip-path="url(#clip4176)" >
<defs><clipPath id="clip4176"><path vector-effect="non-scaling-stroke" fill-rule="evenodd" d="M-52,-70 L167,-70 L167,42 L-52,42 L-52,-70z "/>
</clipPath></defs></g>

<g fill="#000000" fill-opacity="1" stroke="none" transform="matrix(1,0,0,1,52,70)"
font-family="TeX Gyre Heros" font-size="16" font-weight="400" font-style="normal" 
clip-path="url(#clip4176)" >
<path vector-effect="none" fill-rule="nonzero" d="M0,0 L-8,-4 L-8,4 L0,0z "/>
</g>

<g fill="none" stroke="#000000" stroke-opacity="1" stroke-width="1" stroke-linecap="square" stroke-linejoin="bevel" transform="matrix(1,0,0,1,52,70)"
font-family="TeX Gyre Heros" font-size="16" font-weight="400" font-style="normal" 
clip-path="url(#clip4176)" >
</g>

<g fill="none" stroke="#000000" stroke-opacity="1" stroke-width="1" stroke-linecap="square" stroke-linejoin="bevel" transform="matrix(1,0,0,1,-38,-45)"
font-family="TeX Gyre Heros" font-size="16" font-weight="400" font-style="normal" 
clip-path="url(#clip4177)" >
<defs><clipPath id="clip4177"><path vector-effect="non-scaling-stroke" fill-rule="evenodd" d="M38,45 L257,45 L257,157 L38,157 L38,45z "/>
</clipPath></defs></g>

<g fill="none" stroke="#000000" stroke-opacity="1" stroke-width="1" stroke-linecap="butt" stroke-linejoin="miter" stroke-miterlimit="2" transform="matrix(1,0,0,1,-38,-45)"
font-family="TeX Gyre Heros" font-size="16" font-weight="400" font-style="normal" 
clip-path="url(#clip4177)" >
<path vector-effect="none" fill-rule="evenodd" d="M60,115 L82,115"/>
</g>

<g fill="none" stroke="#000000" stroke-opacity="1" stroke-width="1" stroke-linecap="square" stroke-linejoin="bevel" transform="matrix(1,0,0,1,-38,-45)"
font-family="TeX Gyre Heros" font-size="16" font-weight="400" font-style="normal" 
clip-path="url(#clip4177)" >
</g>

<g fill="none" stroke="#000000" stroke-opacity="1" stroke-width="1" stroke-linecap="square" stroke-linejoin="bevel" transform="matrix(1,0,0,1,0,0)"
font-family="TeX Gyre Heros" font-size="16" font-weight="400" font-style="normal" 
>
</g>

<g fill="none" stroke="#000000" stroke-opacity="1" stroke-width="1" stroke-linecap="square" stroke-linejoin="bevel" transform="matrix(1,0,0,1,0,0)"
font-family="TeX Gyre Heros" font-size="16" font-weight="400" font-style="normal" 
>
</g>

<g fill="none" stroke="#000000" stroke-opacity="1" stroke-width="1" stroke-linecap="square" stroke-linejoin="bevel" transform="matrix(1,0,0,1,0,0)"
font-family="TeX Gyre Heros" font-size="16" font-weight="400" font-style="normal" 
clip-path="url(#clip4178)" >
<defs><clipPath id="clip4178"><path vector-effect="non-scaling-stroke" fill-rule="evenodd" d="M0,0 L219,0 L219,112 L0,112 L0,0z "/>
</clipPath></defs></g>

<g fill="none" stroke="#000000" stroke-opacity="1" stroke-width="1" stroke-linecap="square" stroke-linejoin="bevel" transform="matrix(1,0,0,1,0,0)"
font-family="TeX Gyre Heros" font-size="16" font-weight="400" font-style="normal" 
>
</g>

<g fill="none" stroke="#000000" stroke-opacity="1" stroke-width="1" stroke-linecap="square" stroke-linejoin="bevel" transform="matrix(1,0,0,1,0,0)"
font-family="TeX Gyre Heros" font-size="16" font-weight="400" font-style="normal" 
>
</g>

<g fill="none" stroke="#000000" stroke-opacity="1" stroke-width="1" stroke-linecap="square" stroke-linejoin="bevel" transform="matrix(1,0,0,1,0,0)"
font-family="TeX Gyre Heros" font-size="16" font-weight="400" font-style="normal" 
clip-path="url(#clip4179)" >
<defs><clipPath id="clip4179"><path vector-effect="non-scaling-stroke" fill-rule="evenodd" d="M0,0 L1,0 L1,1 L0,1 L0,0z "/>
</clipPath></defs></g>

<g fill="none" stroke="#000000" stroke-opacity="1" stroke-width="1" stroke-linecap="square" stroke-linejoin="bevel" transform="matrix(1,0,0,1,0,0)"
font-family="TeX Gyre Heros" font-size="16" font-weight="400" font-style="normal" 
>
</g>

<g fill="none" stroke="#000000" stroke-opacity="1" stroke-width="1" stroke-linecap="square" stroke-linejoin="bevel" transform="matrix(1,0,0,1,0,0)"
font-family="TeX Gyre Heros" font-size="16" font-weight="400" font-style="normal" 
>
</g>
</g>
</svg>
