<?xml version="1.0" encoding="UTF-8"?><svg width="138.642mm" height="68.7917mm" viewBox="0 0 524 260" xmlns="http://www.w3.org/2000/svg" xmlns:xlink="http://www.w3.org/1999/xlink"><g fill="none" stroke="black" stroke-width="1" fill-rule="evenodd" stroke-linecap="square" stroke-linejoin="bevel"><g clip-path="none" fill="#ffffff" fill-opacity="1" opacity="1" stroke="none" stroke-opacity="0" transform="matrix(1,0,0,1,0,0)"><path d="M0,0 L524.43,0 L524.43,260 L0,260 L0,0 z" fill-rule="evenodd" vector-effect="none"/></g><defs><clipPath id="clip3"><path d="M-395.438,-185 L128.992,-185 L128.992,75 L-395.438,75 L-395.438,-185 z"/></clipPath></defs><g clip-path="url(#clip3)" fill="#ffff80" fill-opacity="1" opacity="1" stroke="none" stroke-opacity="0" transform="matrix(1,0,0,1,395.438,185)"><path d="M-80.4375,-7 L80.4375,-7 L80.4375,7 L-80.4375,7 L-80.4375,-7 z" fill-rule="evenodd" vector-effect="none"/></g><defs><clipPath id="clip8"><path d="M-5,-5 L166,-5 L166,19 L-5,19 L-5,-5 z"/></clipPath></defs><g clip-path="url(#clip8)" fill="none" opacity="1" stroke="none" stroke-opacity="0" transform="matrix(1,0,0,1,315,178)"><path d="M1,1 L159.875,1 L159.875,13 L1,13 L1,1 z" fill-rule="evenodd" vector-effect="none"/></g><defs><clipPath id="clip9"><path d="M-5,-5 L166,-5 L166,19 L-5,19 L-5,-5 z"/></clipPath></defs><g clip-path="url(#clip9)" fill="#ffff80" fill-opacity="1" opacity="1" stroke="#000000" stroke-linecap="square" stroke-linejoin="bevel" stroke-opacity="1" stroke-width="1" transform="matrix(1,0,0,1,315,178)"><text fill="#000000" fill-opacity="1" font-family="Arial" font-size="10" font-style="normal" font-weight="400" stroke="none" textLength="158.875" x="1" xml:space="preserve" y="10">dtheta = - gamma * epsilon * yf / m2</text></g><defs><clipPath id="clip17"><path d="M-114.812,-74 L409.617,-74 L409.617,186 L-114.812,186 L-114.812,-74 z"/></clipPath></defs><g clip-path="url(#clip17)" fill="#ffffff" fill-opacity="1" opacity="1" stroke="none" stroke-opacity="0" transform="matrix(1,0,0,1,114.812,74)"><path d="M-16.8125,-7 L16.8125,-7 L16.8125,7 L-16.8125,7 L-16.8125,-7 z" fill-rule="evenodd" vector-effect="none"/></g><defs><clipPath id="clip22"><path d="M-5,-5 L39,-5 L39,19 L-5,19 L-5,-5 z"/></clipPath></defs><g clip-path="url(#clip22)" fill="none" opacity="1" stroke="none" stroke-opacity="0" transform="matrix(1,0,0,1,98,67)"><path d="M1,1 L32.625,1 L32.625,13 L1,13 L1,1 z" fill-rule="evenodd" vector-effect="none"/></g><defs><clipPath id="clip23"><path d="M-5,-5 L39,-5 L39,19 L-5,19 L-5,-5 z"/></clipPath></defs><g clip-path="url(#clip23)" fill="#ffffff" fill-opacity="1" opacity="1" stroke="#000000" stroke-linecap="square" stroke-linejoin="bevel" stroke-opacity="1" stroke-width="1" transform="matrix(1,0,0,1,98,67)"><text fill="#000000" fill-opacity="1" font-family="Arial" font-size="10" font-style="normal" font-weight="400" stroke="none" textLength="31.625" x="1" xml:space="preserve" y="10">epsilon</text></g><defs><clipPath id="clip31"><path d="M-350.859,-94 L173.57,-94 L173.57,166 L-350.859,166 L-350.859,-94 z"/></clipPath></defs><g clip-path="url(#clip31)" fill="#ffffff" fill-opacity="1" opacity="1" stroke="none" stroke-opacity="0" transform="matrix(1,0,0,1,350.859,94)"><path d="M-14.8594,-7 L14.8594,-7 L14.8594,7 L-14.8594,7 L-14.8594,-7 z" fill-rule="evenodd" vector-effect="none"/></g><defs><clipPath id="clip36"><path d="M-5,-5 L35,-5 L35,19 L-5,19 L-5,-5 z"/></clipPath></defs><g clip-path="url(#clip36)" fill="none" opacity="1" stroke="none" stroke-opacity="0" transform="matrix(1,0,0,1,336,87)"><path d="M1,1 L28.7188,1 L28.7188,13 L1,13 L1,1 z" fill-rule="evenodd" vector-effect="none"/></g><defs><clipPath id="clip37"><path d="M-5,-5 L35,-5 L35,19 L-5,19 L-5,-5 z"/></clipPath></defs><g clip-path="url(#clip37)" fill="#ffffff" fill-opacity="1" opacity="1" stroke="#000000" stroke-linecap="square" stroke-linejoin="bevel" stroke-opacity="1" stroke-width="1" transform="matrix(1,0,0,1,336,87)"><text fill="#000000" fill-opacity="1" font-family="Arial" font-size="10" font-style="normal" font-weight="400" stroke="none" textLength="27.7188" x="1" xml:space="preserve" y="10">dtheta</text></g><defs><clipPath id="clip45"><path d="M-439.086,-92 L85.3438,-92 L85.3438,168 L-439.086,168 L-439.086,-92 z"/></clipPath></defs><g clip-path="url(#clip45)" fill="#ffffff" fill-opacity="1" opacity="1" stroke="none" stroke-opacity="0" transform="matrix(1,0,0,1,439.086,92)"><path d="M-12.0859,-7 L12.0859,-7 L12.0859,7 L-12.0859,7 L-12.0859,-7 z" fill-rule="evenodd" vector-effect="none"/></g><defs><clipPath id="clip50"><path d="M-5,-5 L30,-5 L30,19 L-5,19 L-5,-5 z"/></clipPath></defs><g clip-path="url(#clip50)" fill="none" opacity="1" stroke="none" stroke-opacity="0" transform="matrix(1,0,0,1,427,85)"><path d="M1,1 L23.1719,1 L23.1719,13 L1,13 L1,1 z" fill-rule="evenodd" vector-effect="none"/></g><defs><clipPath id="clip51"><path d="M-5,-5 L30,-5 L30,19 L-5,19 L-5,-5 z"/></clipPath></defs><g clip-path="url(#clip51)" fill="#ffffff" fill-opacity="1" opacity="1" stroke="#000000" stroke-linecap="square" stroke-linejoin="bevel" stroke-opacity="1" stroke-width="1" transform="matrix(1,0,0,1,427,85)"><text fill="#000000" fill-opacity="1" font-family="Arial" font-size="10" font-style="normal" font-weight="400" stroke="none" textLength="22.1719" x="1" xml:space="preserve" y="10">theta</text></g><defs><clipPath id="clip59"><path d="M-487,-94 L37.4297,-94 L37.4297,166 L-487,166 L-487,-94 z"/></clipPath></defs><g clip-path="url(#clip59)" fill="#00d100" fill-opacity="1" opacity="1" stroke="none" stroke-opacity="0" transform="matrix(1,0,0,1,487,94)"><path d="M0,10 C0,15.5228 4.47715,20 10,20 C15.5228,20 20,15.5228 20,10 C20,4.47715 15.5228,0 10,0 C4.47715,0 0,4.47715 0,10 z" fill-rule="nonzero" vector-effect="none"/></g><defs><clipPath id="clip63"><path d="M-10,-10 L10,-10 L10,10 L-10,10 L-10,-10 z"/></clipPath></defs><g clip-path="url(#clip63)" fill="none" opacity="1" stroke="#000000" stroke-linecap="butt" stroke-linejoin="miter" stroke-miterlimit="2" stroke-opacity="1" stroke-width="1" transform="matrix(1,0,0,1,497,104)"><text fill="#000000" fill-opacity="1" font-family="Arial" font-size="10" font-style="normal" font-weight="400" stroke="none" textLength="5.54688" x="-2.76562" xml:space="preserve" y="3.5">1</text></g><defs><clipPath id="clip68"><path d="M-487.5,-94.5 L36.9297,-94.5 L36.9297,165.5 L-487.5,165.5 L-487.5,-94.5 z"/></clipPath></defs><g clip-path="url(#clip68)" fill="none" opacity="1" stroke="#000000" stroke-linecap="butt" stroke-linejoin="miter" stroke-miterlimit="2" stroke-opacity="1" stroke-width="1" transform="matrix(1,0,0,1,487.5,94.5)"><path d="M0,10 C0,15.5228 4.47715,20 10,20 C15.5228,20 20,15.5228 20,10 C20,4.47715 15.5228,0 10,0 C4.47715,0 0,4.47715 0,10 z" fill-rule="nonzero" vector-effect="none"/></g><defs><clipPath id="clip71"><path d="M-497.43,-116 L27,-116 L27,144 L-497.43,144 L-497.43,-116 z"/></clipPath></defs><g clip-path="url(#clip71)" fill="none" opacity="1" stroke="none" stroke-opacity="0" transform="matrix(1,0,0,1,497.43,116)"><path d="M-12.0859,0 L12.0859,0 L12.0859,14 L-12.0859,14 L-12.0859,0 z" fill-rule="evenodd" vector-effect="none"/></g><defs><clipPath id="clip75"><path d="M0,0 L24,0 L24,14 L0,14 L0,0 z"/></clipPath></defs><g clip-path="url(#clip75)" fill="none" opacity="1" stroke="#000000" stroke-linecap="square" stroke-linejoin="bevel" stroke-opacity="1" stroke-width="1" transform="matrix(1,0,0,1,485.344,116)"><text fill="#000000" fill-opacity="1" font-family="Arial" font-size="10" font-style="normal" font-weight="400" stroke="none" textLength="22.1719" x="1" xml:space="preserve" y="10">theta</text></g><defs><clipPath id="clip83"><path d="M-482,-46 L42.4297,-46 L42.4297,214 L-482,214 L-482,-46 z"/></clipPath></defs><g clip-path="url(#clip83)" fill="#e8d152" fill-opacity="1" opacity="1" stroke="none" stroke-opacity="0" transform="matrix(1,0,0,1,482,46)"><path d="M0,0 L40,0 L40,26 L0,26 L0,0 z" fill-rule="evenodd" vector-effect="none"/></g><defs><clipPath id="clip87"><path d="M0,0 L40,0 L40,26 L0,26 L0,0 z"/></clipPath></defs><g clip-path="url(#clip87)" fill="none" opacity="1" stroke="none" stroke-opacity="0" transform="matrix(1,0,0,1,482,46)"><path d="M0,0 L40,0 L40,26 L0,26 L0,0 z" fill-rule="evenodd" vector-effect="none"/></g><defs><clipPath id="clip98"><path d="M-15,-5 L19,-5 L19,9 L-15,9 L-15,-5 z"/></clipPath></defs><g clip-path="url(#clip98)" fill="#000000" fill-opacity="1" opacity="1" stroke="none" stroke-opacity="0" transform="matrix(1,0,0,1,499.93,56.5)"><path d="M-12.7031,0.390625 L-13.6562,0.390625 L-13.6562,-0.234375 L-12.7031,-0.234375 L-12.7031,-2.15625 L-11.625,-2.15625 L-11.625,-0.234375 L-9.59375,-0.234375 L-9.59375,0.390625 L-11.625,0.390625 L-11.625,4.35938 C-11.625,4.88021 -11.5729,5.21615 -11.4688,5.36719 C-11.3646,5.51823 -11.1771,5.59375 -10.9062,5.59375 C-10.625,5.59375 -10.4193,5.51042 -10.2891,5.34375 C-10.1589,5.17708 -10.0885,4.90625 -10.0781,4.53125 L-9.26562,4.53125 C-9.29688,5.10417 -9.45312,5.52083 -9.73438,5.78125 C-10.0156,6.04167 -10.4375,6.17188 -11,6.17188 C-11.625,6.17188 -12.0651,6.03385 -12.3203,5.75781 C-12.5755,5.48177 -12.7031,5.01562 -12.7031,4.35938 L-12.7031,0.390625 M-8.6875,6 L-8.6875,5.375 L-7.71875,5.375 L-7.71875,-2.5 L-8.75,-2.5 L-8.75,-3.125 L-6.64062,-3.125 L-6.64062,0.875 C-6.44271,0.458333 -6.1849,0.140625 -5.86719,-0.078125 C-5.54948,-0.296875 -5.17708,-0.40625 -4.75,-0.40625 C-4.0625,-0.40625 -3.55729,-0.208333 -3.23438,0.1875 C-2.91146,0.583333 -2.75,1.19792 -2.75,2.03125 L-2.75,5.375 L-1.79688,5.375 L-1.79688,6 L-4.76562,6 L-4.76562,5.375 L-3.84375,5.375 L-3.84375,2.375 C-3.84375,1.61458 -3.9349,1.09375 -4.11719,0.8125 C-4.29948,0.53125 -4.63021,0.390625 -5.10938,0.390625 C-5.60938,0.390625 -5.98958,0.572917 -6.25,0.9375 C-6.51042,1.30208 -6.64062,1.83333 -6.64062,2.53125 L-6.64062,5.375 L-5.70312,5.375 L-5.70312,6 L-8.6875,6 M5.03125,3 L0.390625,3 L0.390625,3.04688 C0.390625,3.89062 0.549479,4.52604 0.867188,4.95312 C1.1849,5.38021 1.65104,5.59375 2.26562,5.59375 C2.73438,5.59375 3.11979,5.46875 3.42188,5.21875 C3.72396,4.96875 3.9375,4.59896 4.0625,4.10938 L4.9375,4.10938 C4.76042,4.79688 4.4401,5.3125 3.97656,5.65625 C3.51302,6 2.90625,6.17188 2.15625,6.17188 C1.23958,6.17188 0.505208,5.8724 -0.046875,5.27344 C-0.598958,4.67448 -0.875,3.875 -0.875,2.875 C-0.875,1.89583 -0.601562,1.10417 -0.0546875,0.5 C0.492188,-0.104167 1.20312,-0.40625 2.07812,-0.40625 C3.02604,-0.40625 3.75,-0.114583 4.25,0.46875 C4.75,1.05208 5.01042,1.89583 5.03125,3 M3.76562,2.375 C3.74479,1.64583 3.59115,1.09896 3.30469,0.734375 C3.01823,0.369792 2.60938,0.1875 2.07812,0.1875 C1.58854,0.1875 1.20052,0.372396 0.914062,0.742188 C0.627604,1.11198 0.453125,1.65625 0.390625,2.375 L3.76562,2.375 M6.92188,0.390625 L5.96875,0.390625 L5.96875,-0.234375 L6.92188,-0.234375 L6.92188,-2.15625 L8,-2.15625 L8,-0.234375 L10.0312,-0.234375 L10.0312,0.390625 L8,0.390625 L8,4.35938 C8,4.88021 8.05208,5.21615 8.15625,5.36719 C8.26042,5.51823 8.44792,5.59375 8.71875,5.59375 C9,5.59375 9.20573,5.51042 9.33594,5.34375 C9.46615,5.17708 9.53646,4.90625 9.54688,4.53125 L10.3594,4.53125 C10.3281,5.10417 10.1719,5.52083 9.89062,5.78125 C9.60938,6.04167 9.1875,6.17188 8.625,6.17188 C8,6.17188 7.5599,6.03385 7.30469,5.75781 C7.04948,5.48177 6.92188,5.01562 6.92188,4.35938 L6.92188,0.390625 M15.2188,4.04688 L15.2188,2.71875 L13.8281,2.71875 C13.2865,2.71875 12.8854,2.83594 12.625,3.07031 C12.3646,3.30469 12.2344,3.65625 12.2344,4.125 C12.2344,4.5625 12.3672,4.90885 12.6328,5.16406 C12.8984,5.41927 13.2604,5.54688 13.7188,5.54688 C14.1667,5.54688 14.5286,5.40625 14.8047,5.125 C15.0807,4.84375 15.2188,4.48438 15.2188,4.04688 M16.2969,2.10938 L16.2969,5.375 L17.25,5.375 L17.25,6 L15.2188,6 L15.2188,5.32812 C14.9792,5.61979 14.7031,5.83333 14.3906,5.96875 C14.0781,6.10417 13.7135,6.17188 13.2969,6.17188 C12.599,6.17188 12.0469,5.98698 11.6406,5.61719 C11.2344,5.2474 11.0312,4.75 11.0312,4.125 C11.0312,3.47917 11.2656,2.97917 11.7344,2.625 C12.2031,2.27083 12.8594,2.09375 13.7031,2.09375 L15.2188,2.09375 L15.2188,1.67188 C15.2188,1.19271 15.0755,0.825521 14.7891,0.570312 C14.5026,0.315104 14.099,0.1875 13.5781,0.1875 C13.1406,0.1875 12.7969,0.283854 12.5469,0.476562 C12.2969,0.669271 12.1406,0.958333 12.0781,1.34375 L11.5156,1.34375 L11.5156,0.078125 C11.8906,-0.078125 12.2552,-0.197917 12.6094,-0.28125 C12.9635,-0.364583 13.3073,-0.40625 13.6406,-0.40625 C14.5052,-0.40625 15.1641,-0.190104 15.6172,0.242188 C16.0703,0.674479 16.2969,1.29688 16.2969,2.10938" fill-rule="nonzero" vector-effect="none"/></g><defs><clipPath id="clip121"><path d="M-482.5,-46.5 L41.9297,-46.5 L41.9297,213.5 L-482.5,213.5 L-482.5,-46.5 z"/></clipPath></defs><g clip-path="url(#clip121)" fill="none" opacity="1" stroke="#000000" stroke-linecap="butt" stroke-linejoin="miter" stroke-miterlimit="2" stroke-opacity="1" stroke-width="1" transform="matrix(1,0,0,1,482.5,46.5)"><path d="M0,0 L40,0 L40,26 L0,26 L0,0 z" fill-rule="evenodd" vector-effect="none"/></g><defs><clipPath id="clip124"><path d="M-167,-21 L357.43,-21 L357.43,239 L-167,239 L-167,-21 z"/></clipPath></defs><g clip-path="url(#clip124)" fill="#e8d152" fill-opacity="1" opacity="1" stroke="none" stroke-opacity="0" transform="matrix(1,0,0,1,167,21)"><path d="M0,0 L40,0 L40,26 L0,26 L0,0 z" fill-rule="evenodd" vector-effect="none"/></g><defs><clipPath id="clip128"><path d="M0,0 L40,0 L40,26 L0,26 L0,0 z"/></clipPath></defs><g clip-path="url(#clip128)" fill="none" opacity="1" stroke="none" stroke-opacity="0" transform="matrix(1,0,0,1,167,21)"><path d="M0,0 L40,0 L40,26 L0,26 L0,0 z" fill-rule="evenodd" vector-effect="none"/></g><defs><clipPath id="clip139"><path d="M-21,-5 L25,-5 L25,9 L-21,9 L-21,-5 z"/></clipPath></defs><g clip-path="url(#clip139)" fill="#000000" fill-opacity="1" opacity="1" stroke="none" stroke-opacity="0" transform="matrix(0.7,0,0,0.7,185.93,32.5)"><path d="M-13.5,3 L-18.1406,3 L-18.1406,3.04688 C-18.1406,3.89062 -17.9818,4.52604 -17.6641,4.95312 C-17.3464,5.38021 -16.8802,5.59375 -16.2656,5.59375 C-15.7969,5.59375 -15.4115,5.46875 -15.1094,5.21875 C-14.8073,4.96875 -14.5938,4.59896 -14.4688,4.10938 L-13.5938,4.10938 C-13.7708,4.79688 -14.0911,5.3125 -14.5547,5.65625 C-15.0182,6 -15.625,6.17188 -16.375,6.17188 C-17.2917,6.17188 -18.026,5.8724 -18.5781,5.27344 C-19.1302,4.67448 -19.4062,3.875 -19.4062,2.875 C-19.4062,1.89583 -19.1328,1.10417 -18.5859,0.5 C-18.0391,-0.104167 -17.3281,-0.40625 -16.4531,-0.40625 C-15.5052,-0.40625 -14.7812,-0.114583 -14.2812,0.46875 C-13.7812,1.05208 -13.5208,1.89583 -13.5,3 M-14.7656,2.375 C-14.7865,1.64583 -14.9401,1.09896 -15.2266,0.734375 C-15.513,0.369792 -15.9219,0.1875 -16.4531,0.1875 C-16.9427,0.1875 -17.3307,0.372396 -17.6172,0.742188 C-17.9036,1.11198 -18.0781,1.65625 -18.1406,2.375 L-14.7656,2.375 M-10.4375,2.57812 L-10.4375,3.1875 C-10.4375,3.9375 -10.2943,4.51042 -10.0078,4.90625 C-9.72135,5.30208 -9.30729,5.5 -8.76562,5.5 C-8.21354,5.5 -7.79688,5.27865 -7.51562,4.83594 C-7.23438,4.39323 -7.09375,3.73958 -7.09375,2.875 C-7.09375,2.02083 -7.23438,1.375 -7.51562,0.9375 C-7.79688,0.5 -8.21354,0.28125 -8.76562,0.28125 C-9.30729,0.28125 -9.72135,0.476562 -10.0078,0.867188 C-10.2943,1.25781 -10.4375,1.82812 -10.4375,2.57812 M-11.5156,0.390625 L-12.5625,0.390625 L-12.5625,-0.234375 L-10.4375,-0.234375 L-10.4375,0.75 C-10.2292,0.354167 -9.96354,0.0625 -9.64062,-0.125 C-9.31771,-0.3125 -8.91146,-0.40625 -8.42188,-0.40625 C-7.66146,-0.40625 -7.03906,-0.101562 -6.55469,0.507812 C-6.07031,1.11719 -5.82812,1.90625 -5.82812,2.875 C-5.82812,3.85417 -6.07031,4.64844 -6.55469,5.25781 C-7.03906,5.86719 -7.66146,6.17188 -8.42188,6.17188 C-8.91146,6.17188 -9.31771,6.07812 -9.64062,5.89062 C-9.96354,5.70312 -10.2292,5.41667 -10.4375,5.03125 L-10.4375,7.875 L-9.42188,7.875 L-9.42188,8.5 L-12.5625,8.5 L-12.5625,7.875 L-11.5156,7.875 L-11.5156,0.390625 M-4.5625,5.65625 L-4.5625,4.20312 L-3.9375,4.20312 C-3.92708,4.66146 -3.78385,5.00781 -3.50781,5.24219 C-3.23177,5.47656 -2.82292,5.59375 -2.28125,5.59375 C-1.79167,5.59375 -1.42188,5.5026 -1.17188,5.32031 C-0.921875,5.13802 -0.796875,4.86979 -0.796875,4.51562 C-0.796875,4.24479 -0.888021,4.02604 -1.07031,3.85938 C-1.2526,3.69271 -1.64583,3.51562 -2.25,3.32812 L-3.03125,3.0625 C-3.5625,2.88542 -3.94792,2.66927 -4.1875,2.41406 C-4.42708,2.15885 -4.54688,1.82812 -4.54688,1.42188 C-4.54688,0.859375 -4.33854,0.414062 -3.92188,0.0859375 C-3.50521,-0.242188 -2.92708,-0.40625 -2.1875,-0.40625 C-1.85417,-0.40625 -1.50781,-0.361979 -1.14844,-0.273438 C-0.789062,-0.184896 -0.416667,-0.0572917 -0.03125,0.109375 L-0.03125,1.46875 L-0.640625,1.46875 C-0.661458,1.0625 -0.804688,0.747396 -1.07031,0.523438 C-1.33594,0.299479 -1.69792,0.1875 -2.15625,0.1875 C-2.60417,0.1875 -2.94531,0.265625 -3.17969,0.421875 C-3.41406,0.578125 -3.53125,0.817708 -3.53125,1.14062 C-3.53125,1.40104 -3.44271,1.61198 -3.26562,1.77344 C-3.08854,1.9349 -2.73438,2.09375 -2.20312,2.25 L-1.35938,2.51562 C-0.765625,2.70312 -0.338542,2.9349 -0.078125,3.21094 C0.182292,3.48698 0.3125,3.83854 0.3125,4.26562 C0.3125,4.85938 0.0859375,5.32552 -0.367188,5.66406 C-0.820312,6.0026 -1.44271,6.17188 -2.23438,6.17188 C-2.64062,6.17188 -3.03385,6.1276 -3.41406,6.03906 C-3.79427,5.95052 -4.17708,5.82292 -4.5625,5.65625 M2.09375,-2.15625 C2.09375,-2.34375 2.15885,-2.5026 2.28906,-2.63281 C2.41927,-2.76302 2.57292,-2.82812 2.75,-2.82812 C2.9375,-2.82812 3.09635,-2.76302 3.22656,-2.63281 C3.35677,-2.5026 3.42188,-2.34375 3.42188,-2.15625 C3.42188,-1.97917 3.35677,-1.82552 3.22656,-1.69531 C3.09635,-1.5651 2.9375,-1.5 2.75,-1.5 C2.57292,-1.5 2.41927,-1.5651 2.28906,-1.69531 C2.15885,-1.82552 2.09375,-1.97917 2.09375,-2.15625 M3.46875,5.375 L4.48438,5.375 L4.48438,6 L1.35938,6 L1.35938,5.375 L2.39062,5.375 L2.39062,0.390625 L1.35938,0.390625 L1.35938,-0.234375 L3.46875,-0.234375 L3.46875,5.375 M7.21875,5.375 L8.23438,5.375 L8.23438,6 L5.09375,6 L5.09375,5.375 L6.14062,5.375 L6.14062,-2.5 L5.09375,-2.5 L5.09375,-3.125 L7.21875,-3.125 L7.21875,5.375 M12.1875,5.59375 C12.7708,5.59375 13.2083,5.36458 13.5,4.90625 C13.7917,4.44792 13.9375,3.77083 13.9375,2.875 C13.9375,1.98958 13.7917,1.32031 13.5,0.867188 C13.2083,0.414062 12.7708,0.1875 12.1875,0.1875 C11.6146,0.1875 11.1797,0.414062 10.8828,0.867188 C10.5859,1.32031 10.4375,1.98958 10.4375,2.875 C10.4375,3.77083 10.5859,4.44792 10.8828,4.90625 C11.1797,5.36458 11.6146,5.59375 12.1875,5.59375 M12.1875,6.17188 C11.2812,6.17188 10.5521,5.8724 10,5.27344 C9.44792,4.67448 9.17188,3.875 9.17188,2.875 C9.17188,1.88542 9.44792,1.09115 10,0.492188 C10.5521,-0.106771 11.2812,-0.40625 12.1875,-0.40625 C13.0938,-0.40625 13.8229,-0.106771 14.375,0.492188 C14.9271,1.09115 15.2031,1.88542 15.2031,2.875 C15.2031,3.875 14.9271,4.67448 14.375,5.27344 C13.8229,5.8724 13.0938,6.17188 12.1875,6.17188 M16.2969,6 L16.2969,5.375 L17.2656,5.375 L17.2656,0.390625 L16.2344,0.390625 L16.2344,-0.234375 L18.3438,-0.234375 L18.3438,0.875 C18.5417,0.458333 18.7995,0.140625 19.1172,-0.078125 C19.4349,-0.296875 19.8073,-0.40625 20.2344,-0.40625 C20.9219,-0.40625 21.4271,-0.208333 21.75,0.1875 C22.0729,0.583333 22.2344,1.19792 22.2344,2.03125 L22.2344,5.375 L23.1875,5.375 L23.1875,6 L20.2188,6 L20.2188,5.375 L21.1406,5.375 L21.1406,2.375 C21.1406,1.61458 21.0469,1.09375 20.8594,0.8125 C20.6719,0.53125 20.3438,0.390625 19.875,0.390625 C19.375,0.390625 18.9948,0.572917 18.7344,0.9375 C18.474,1.30208 18.3438,1.83333 18.3438,2.53125 L18.3438,5.375 L19.2812,5.375 L19.2812,6 L16.2969,6" fill-rule="nonzero" vector-effect="none"/></g><defs><clipPath id="clip162"><path d="M-167.5,-21.5 L356.93,-21.5 L356.93,238.5 L-167.5,238.5 L-167.5,-21.5 z"/></clipPath></defs><g clip-path="url(#clip162)" fill="none" opacity="1" stroke="#000000" stroke-linecap="butt" stroke-linejoin="miter" stroke-miterlimit="2" stroke-opacity="1" stroke-width="1" transform="matrix(1,0,0,1,167.5,21.5)"><path d="M0,0 L40,0 L40,26 L0,26 L0,0 z" fill-rule="evenodd" vector-effect="none"/></g><defs><clipPath id="clip165"><path d="M-62,-69 L462.43,-69 L462.43,191 L-62,191 L-62,-69 z"/></clipPath></defs><g clip-path="url(#clip165)" fill="#ffffff" fill-opacity="1" opacity="1" stroke="none" stroke-opacity="0" transform="matrix(1,0,0,1,62,69)"><path d="M30,15 C30,23.2843 23.2843,30 15,30 C6.71573,30 0,23.2843 0,15 C0,6.71573 6.71573,0 15,0 C23.2843,0 30,6.71573 30,15 z" fill-rule="nonzero" vector-effect="none"/></g><defs><clipPath id="clip169"><path d="M100,100 L130,100 L130,130 L100,130 L100,100 z"/></clipPath></defs><g clip-path="url(#clip169)" fill="none" opacity="1" stroke="#000000" stroke-linecap="butt" stroke-linejoin="miter" stroke-miterlimit="2" stroke-opacity="1" stroke-width="1" transform="matrix(1,0,0,1,-37.5,-30.5)"><polyline fill="none" points="113,105 117,105" vector-effect="none"/></g><defs><clipPath id="clip170"><path d="M100,100 L130,100 L130,130 L100,130 L100,100 z"/></clipPath></defs><g clip-path="url(#clip170)" fill="none" opacity="1" stroke="#000000" stroke-linecap="butt" stroke-linejoin="miter" stroke-miterlimit="2" stroke-opacity="1" stroke-width="1" transform="matrix(1,0,0,1,-37.5,-30.5)"><polyline fill="none" points="103,115 107,115" vector-effect="none"/></g><defs><clipPath id="clip171"><path d="M100,100 L130,100 L130,130 L100,130 L100,100 z"/></clipPath></defs><g clip-path="url(#clip171)" fill="none" opacity="1" stroke="#000000" stroke-linecap="butt" stroke-linejoin="miter" stroke-miterlimit="2" stroke-opacity="1" stroke-width="1" transform="matrix(1,0,0,1,-37.5,-30.5)"><polyline fill="none" points="105,113 105,117" vector-effect="none"/></g><defs><clipPath id="clip176"><path d="M-62.5,-69.5 L461.93,-69.5 L461.93,190.5 L-62.5,190.5 L-62.5,-69.5 z"/></clipPath></defs><g clip-path="url(#clip176)" fill="none" opacity="1" stroke="#000000" stroke-linecap="butt" stroke-linejoin="miter" stroke-miterlimit="2" stroke-opacity="1" stroke-width="1" transform="matrix(1,0,0,1,62.5,69.5)"><path d="M30,15 C30,23.2843 23.2843,30 15,30 C6.71573,30 0,23.2843 0,15 C0,6.71573 6.71573,0 15,0 C23.2843,0 30,6.71573 30,15 z" fill-rule="nonzero" vector-effect="none"/></g><defs><clipPath id="clip179"><path d="M-167,-196 L357.43,-196 L357.43,64 L-167,64 L-167,-196 z"/></clipPath></defs><g clip-path="url(#clip179)" fill="#ff80ff" fill-opacity="1" opacity="1" stroke="none" stroke-opacity="0" transform="matrix(1,0,0,1,167,196)"><path d="M0,0 L50,0 L50,46 L0,46 L0,0 z" fill-rule="evenodd" vector-effect="none"/></g><defs><clipPath id="clip183"><path d="M-3,-23 L47,-23 L47,23 L-3,23 L-3,-23 z"/></clipPath></defs><g clip-path="url(#clip183)" fill="none" opacity="1" stroke="#000000" stroke-linecap="butt" stroke-linejoin="miter" stroke-miterlimit="2" stroke-opacity="1" stroke-width="1" transform="matrix(1,0,0,1,170,219)"><text fill="#000000" fill-opacity="1" font-family="Arial" font-size="9" font-style="normal" font-weight="400" stroke="none" textLength="7" x="0" xml:space="preserve" y="3">yf</text></g><defs><clipPath id="clip184"><path d="M-47,-23 L3,-23 L3,23 L-47,23 L-47,-23 z"/></clipPath></defs><g clip-path="url(#clip184)" fill="none" opacity="1" stroke="#000000" stroke-linecap="butt" stroke-linejoin="miter" stroke-miterlimit="2" stroke-opacity="1" stroke-width="1" transform="matrix(1,0,0,1,214,219)"><text fill="#000000" fill-opacity="1" font-family="Arial" font-size="9" font-style="normal" font-weight="400" stroke="none" textLength="12.4844" x="-12.4844" xml:space="preserve" y="3">m2</text></g><defs><clipPath id="clip189"><path d="M-167.5,-196.5 L356.93,-196.5 L356.93,63.5 L-167.5,63.5 L-167.5,-196.5 z"/></clipPath></defs><g clip-path="url(#clip189)" fill="none" opacity="1" stroke="#000000" stroke-linecap="butt" stroke-linejoin="miter" stroke-miterlimit="2" stroke-opacity="1" stroke-width="1" transform="matrix(1,0,0,1,167.5,196.5)"><path d="M0,0 L50,0 L50,46 L0,46 L0,0 z" fill-rule="evenodd" vector-effect="none"/></g><defs><clipPath id="clip192"><path d="M-192.43,-244 L332,-244 L332,16 L-192.43,16 L-192.43,-244 z"/></clipPath></defs><g clip-path="url(#clip192)" fill="none" opacity="1" stroke="none" stroke-opacity="0" transform="matrix(1,0,0,1,192.43,244)"><path d="M-31.5156,0 L31.5156,0 L31.5156,14 L-31.5156,14 L-31.5156,0 z" fill-rule="evenodd" vector-effect="none"/></g><defs><clipPath id="clip196"><path d="M0,0 L63,0 L63,14 L0,14 L0,0 z"/></clipPath></defs><g clip-path="url(#clip196)" fill="none" opacity="1" stroke="#000000" stroke-linecap="square" stroke-linejoin="bevel" stroke-opacity="1" stroke-width="1" transform="matrix(1,0,0,1,160.914,244)"><text fill="#000000" fill-opacity="1" font-family="Arial" font-size="10" font-style="normal" font-weight="400" stroke="none" textLength="61.0312" x="1" xml:space="preserve" y="10">Normalization</text></g><defs><clipPath id="clip204"><path d="M-382,-85 L142.43,-85 L142.43,175 L-382,175 L-382,-85 z"/></clipPath></defs><g clip-path="url(#clip204)" fill="#ffffff" fill-opacity="1" opacity="1" stroke="none" stroke-opacity="0" transform="matrix(1,0,0,1,382,85)"><path d="M0,0 L40,0 L40,38 L0,38 L0,0 z" fill-rule="evenodd" vector-effect="none"/></g><defs><clipPath id="clip208"><path d="M-20,-17 L20,-17 L20,21 L-20,21 L-20,-17 z"/></clipPath></defs><g clip-path="url(#clip208)" fill="none" opacity="1" stroke="#000000" stroke-linecap="butt" stroke-linejoin="miter" stroke-miterlimit="2" stroke-opacity="1" stroke-width="1" transform="matrix(1,0,0,1,402,102)"><text fill="#000000" fill-opacity="1" font-family="Arial" font-size="10" font-style="normal" font-weight="400" stroke="none" textLength="5.54688" x="-2.76562" xml:space="preserve" y="1">1</text></g><defs><clipPath id="clip209"><path d="M420,116 L460,116 L460,154 L420,154 L420,116 z"/></clipPath></defs><g clip-path="url(#clip209)" fill="none" opacity="1" stroke="#000000" stroke-linecap="butt" stroke-linejoin="miter" stroke-miterlimit="2" stroke-opacity="1" stroke-width="1" transform="matrix(1,0,0,1,-37.5,-30.5)"><polyline fill="none" points="437,135 443,135" vector-effect="none"/></g><defs><clipPath id="clip210"><path d="M-20,-27 L20,-27 L20,11 L-20,11 L-20,-27 z"/></clipPath></defs><g clip-path="url(#clip210)" fill="none" opacity="1" stroke="#000000" stroke-linecap="butt" stroke-linejoin="miter" stroke-miterlimit="2" stroke-opacity="1" stroke-width="1" transform="matrix(1,0,0,1,402,112)"><text fill="#000000" fill-opacity="1" font-family="Arial" font-size="10" font-style="normal" font-weight="400" stroke="none" textLength="5" x="-2.5" xml:space="preserve" y="1">s</text></g><defs><clipPath id="clip215"><path d="M-382.5,-85.5 L141.93,-85.5 L141.93,174.5 L-382.5,174.5 L-382.5,-85.5 z"/></clipPath></defs><g clip-path="url(#clip215)" fill="none" opacity="1" stroke="#000000" stroke-linecap="butt" stroke-linejoin="miter" stroke-miterlimit="2" stroke-opacity="1" stroke-width="1" transform="matrix(1,0,0,1,382.5,85.5)"><path d="M0,0 L40,0 L40,38 L0,38 L0,0 z" fill-rule="evenodd" vector-effect="none"/></g><defs><clipPath id="clip218"><path d="M-482,-2 L42.4297,-2 L42.4297,258 L-482,258 L-482,-2 z"/></clipPath></defs><g clip-path="url(#clip218)" fill="#61bdfc" fill-opacity="1" opacity="1" stroke="none" stroke-opacity="0" transform="matrix(1,0,0,1,482,2)"><path d="M10,0 L40,0 L40,24 L10,24 L0,12 L10,0 z" fill-rule="nonzero" vector-effect="none"/></g><defs><clipPath id="clip222"><path d="M-24,-11 L16,-11 L16,13 L-24,13 L-24,-11 z"/></clipPath></defs><g clip-path="url(#clip222)" fill="none" opacity="1" stroke="#000000" stroke-linecap="butt" stroke-linejoin="miter" stroke-miterlimit="2" stroke-opacity="1" stroke-width="1" transform="matrix(1,0,0,1,506,13)"><text fill="#000000" fill-opacity="1" font-family="Arial" font-size="10" font-style="normal" font-weight="400" stroke="none" textLength="22.1719" x="-11.0781" xml:space="preserve" y="3.5">theta</text></g><defs><clipPath id="clip227"><path d="M-482.5,-2.5 L41.9297,-2.5 L41.9297,257.5 L-482.5,257.5 L-482.5,-2.5 z"/></clipPath></defs><g clip-path="url(#clip227)" fill="none" opacity="1" stroke="#000000" stroke-linecap="butt" stroke-linejoin="miter" stroke-miterlimit="2" stroke-opacity="1" stroke-width="1" transform="matrix(1,0,0,1,482.5,2.5)"><path d="M10,0 L40,0 L40,24 L10,24 L0,12 L10,0 z" fill-rule="nonzero" vector-effect="none"/></g><defs><clipPath id="clip230"><path d="M-52,-152 L472.43,-152 L472.43,108 L-52,108 L-52,-152 z"/></clipPath></defs><g clip-path="url(#clip230)" fill="#61bdfc" fill-opacity="1" opacity="1" stroke="none" stroke-opacity="0" transform="matrix(1,0,0,1,52,152)"><path d="M0,0 L37.5,0 L50,12 L37.5,24 L0,24 L0,0 z" fill-rule="nonzero" vector-effect="none"/></g><defs><clipPath id="clip234"><path d="M-18,-11 L32,-11 L32,13 L-18,13 L-18,-11 z"/></clipPath></defs><g clip-path="url(#clip234)" fill="none" opacity="1" stroke="#000000" stroke-linecap="butt" stroke-linejoin="miter" stroke-miterlimit="2" stroke-opacity="1" stroke-width="1" transform="matrix(1,0,0,1,70,163)"><text fill="#000000" fill-opacity="1" font-family="Arial" font-size="10" font-style="normal" font-weight="400" stroke="none" textLength="7.76562" x="-3.875" xml:space="preserve" y="3.5">yf</text></g><defs><clipPath id="clip239"><path d="M-52.5,-152.5 L471.93,-152.5 L471.93,107.5 L-52.5,107.5 L-52.5,-152.5 z"/></clipPath></defs><g clip-path="url(#clip239)" fill="none" opacity="1" stroke="#000000" stroke-linecap="butt" stroke-linejoin="miter" stroke-miterlimit="2" stroke-opacity="1" stroke-width="1" transform="matrix(1,0,0,1,52.5,152.5)"><path d="M0,0 L37.5,0 L50,12 L37.5,24 L0,24 L0,0 z" fill-rule="nonzero" vector-effect="none"/></g><defs><clipPath id="clip242"><path d="M-287,-75 L237.43,-75 L237.43,185 L-287,185 L-287,-75 z"/></clipPath></defs><g clip-path="url(#clip242)" fill="#ffffff" fill-opacity="1" opacity="1" stroke="none" stroke-opacity="0" transform="matrix(1,0,0,1,287,75)"><path d="M0,0 L40,0 L40,58 L0,58 L0,0 z" fill-rule="evenodd" vector-effect="none"/></g><defs><clipPath id="clip246"><path d="M325,106 L365,106 L365,164 L325,164 L325,106 z"/></clipPath></defs><g clip-path="url(#clip246)" fill="none" opacity="1" stroke="#000000" stroke-linecap="butt" stroke-linejoin="miter" stroke-miterlimit="2" stroke-opacity="1" stroke-width="1" transform="matrix(1,0,0,1,-37.5,-30.5)"><polyline fill="none" points="335,118 329,112" vector-effect="none"/></g><defs><clipPath id="clip247"><path d="M325,106 L365,106 L365,164 L325,164 L325,106 z"/></clipPath></defs><g clip-path="url(#clip247)" fill="none" opacity="1" stroke="#000000" stroke-linecap="butt" stroke-linejoin="miter" stroke-miterlimit="2" stroke-opacity="1" stroke-width="1" transform="matrix(1,0,0,1,-37.5,-30.5)"><polyline fill="none" points="335,112 329,118" vector-effect="none"/></g><defs><clipPath id="clip248"><path d="M325,106 L365,106 L365,164 L325,164 L325,106 z"/></clipPath></defs><g clip-path="url(#clip248)" fill="none" opacity="1" stroke="#000000" stroke-linecap="butt" stroke-linejoin="miter" stroke-miterlimit="2" stroke-opacity="1" stroke-width="1" transform="matrix(1,0,0,1,-37.5,-30.5)"><polyline fill="none" points="335,138 329,132" vector-effect="none"/></g><defs><clipPath id="clip249"><path d="M325,106 L365,106 L365,164 L325,164 L325,106 z"/></clipPath></defs><g clip-path="url(#clip249)" fill="none" opacity="1" stroke="#000000" stroke-linecap="butt" stroke-linejoin="miter" stroke-miterlimit="2" stroke-opacity="1" stroke-width="1" transform="matrix(1,0,0,1,-37.5,-30.5)"><polyline fill="none" points="335,132 329,138" vector-effect="none"/></g><defs><clipPath id="clip250"><path d="M325,106 L365,106 L365,164 L325,164 L325,106 z"/></clipPath></defs><g clip-path="url(#clip250)" fill="none" opacity="1" stroke="#000000" stroke-linecap="butt" stroke-linejoin="miter" stroke-miterlimit="2" stroke-opacity="1" stroke-width="1" transform="matrix(1,0,0,1,-37.5,-30.5)"><polyline fill="none" points="329,155 335,155" vector-effect="none"/></g><defs><clipPath id="clip251"><path d="M325,106 L365,106 L365,164 L325,164 L325,106 z"/></clipPath></defs><g clip-path="url(#clip251)" fill="#000000" fill-opacity="1" opacity="1" stroke="#000000" stroke-linecap="butt" stroke-linejoin="miter" stroke-miterlimit="2" stroke-opacity="1" stroke-width="1" transform="matrix(1,0,0,1,-38,-31)"><path d="M333,153 C333,153.552 332.552,154 332,154 C331.448,154 331,153.552 331,153 C331,152.448 331.448,152 332,152 C332.552,152 333,152.448 333,153 z" fill-rule="evenodd" vector-effect="none"/><path d="M333,158 C333,158.552 332.552,159 332,159 C331.448,159 331,158.552 331,158 C331,157.448 331.448,157 332,157 C332.552,157 333,157.448 333,158 z" fill-rule="evenodd" vector-effect="none"/></g><defs><clipPath id="clip256"><path d="M-287.5,-75.5 L236.93,-75.5 L236.93,184.5 L-287.5,184.5 L-287.5,-75.5 z"/></clipPath></defs><g clip-path="url(#clip256)" fill="none" opacity="1" stroke="#000000" stroke-linecap="butt" stroke-linejoin="miter" stroke-miterlimit="2" stroke-opacity="1" stroke-width="1" transform="matrix(1,0,0,1,287.5,75.5)"><path d="M0,0 L40,0 L40,58 L0,58 L0,0 z" fill-rule="evenodd" vector-effect="none"/></g><defs><clipPath id="clip259"><path d="M-167,-63 L357.43,-63 L357.43,197 L-167,197 L-167,-63 z"/></clipPath></defs><g clip-path="url(#clip259)" fill="#61bdfc" fill-opacity="1" opacity="1" stroke="none" stroke-opacity="0" transform="matrix(1,0,0,1,167,63)"><path d="M0,0 L55,21 L0,42 L0,0 z" fill-rule="nonzero" vector-effect="none"/></g><defs><clipPath id="clip263"><path d="M-20,-21 L35,-21 L35,21 L-20,21 L-20,-21 z"/></clipPath></defs><g clip-path="url(#clip263)" fill="none" opacity="1" stroke="#000000" stroke-linecap="butt" stroke-linejoin="miter" stroke-miterlimit="2" stroke-opacity="1" stroke-width="1" transform="matrix(1,0,0,1,187,84)"><text fill="#000000" fill-opacity="1" font-family="Arial" font-size="10" font-style="normal" font-weight="400" stroke="none" textLength="36.625" x="-18.3125" xml:space="preserve" y="3.5">-gamma</text></g><defs><clipPath id="clip268"><path d="M-167.5,-63.5 L356.93,-63.5 L356.93,196.5 L-167.5,196.5 L-167.5,-63.5 z"/></clipPath></defs><g clip-path="url(#clip268)" fill="none" opacity="1" stroke="#000000" stroke-linecap="butt" stroke-linejoin="miter" stroke-miterlimit="2" stroke-opacity="1" stroke-width="1" transform="matrix(1,0,0,1,167.5,63.5)"><path d="M0,0 L55,21 L0,42 L0,0 z" fill-rule="nonzero" vector-effect="none"/></g><defs><clipPath id="clip271"><path d="M-194.93,-107 L329.5,-107 L329.5,153 L-194.93,153 L-194.93,-107 z"/></clipPath></defs><g clip-path="url(#clip271)" fill="none" opacity="1" stroke="none" stroke-opacity="0" transform="matrix(1,0,0,1,194.93,107)"><path d="M-19.3125,0 L19.3125,0 L19.3125,14 L-19.3125,14 L-19.3125,0 z" fill-rule="evenodd" vector-effect="none"/></g><defs><clipPath id="clip275"><path d="M0,0 L39,0 L39,14 L0,14 L0,0 z"/></clipPath></defs><g clip-path="url(#clip275)" fill="none" opacity="1" stroke="#000000" stroke-linecap="square" stroke-linejoin="bevel" stroke-opacity="1" stroke-width="1" transform="matrix(1,0,0,1,175.617,107)"><text fill="#000000" fill-opacity="1" font-family="Arial" font-size="10" font-style="normal" font-weight="400" stroke="none" textLength="36.625" x="1" xml:space="preserve" y="10">-gamma</text></g><defs><clipPath id="clip283"><path d="M-2,-74 L522.43,-74 L522.43,186 L-2,186 L-2,-74 z"/></clipPath></defs><g clip-path="url(#clip283)" fill="#00d100" fill-opacity="1" opacity="1" stroke="none" stroke-opacity="0" transform="matrix(1,0,0,1,2,74)"><path d="M0,10 C0,15.5228 4.47715,20 10,20 C15.5228,20 20,15.5228 20,10 C20,4.47715 15.5228,0 10,0 C4.47715,0 0,4.47715 0,10 z" fill-rule="nonzero" vector-effect="none"/></g><defs><clipPath id="clip287"><path d="M-10,-10 L10,-10 L10,10 L-10,10 L-10,-10 z"/></clipPath></defs><g clip-path="url(#clip287)" fill="none" opacity="1" stroke="#000000" stroke-linecap="butt" stroke-linejoin="miter" stroke-miterlimit="2" stroke-opacity="1" stroke-width="1" transform="matrix(1,0,0,1,12,84)"><text fill="#000000" fill-opacity="1" font-family="Arial" font-size="10" font-style="normal" font-weight="400" stroke="none" textLength="5.54688" x="-2.76562" xml:space="preserve" y="3.5">2</text></g><defs><clipPath id="clip292"><path d="M-2.5,-74.5 L521.93,-74.5 L521.93,185.5 L-2.5,185.5 L-2.5,-74.5 z"/></clipPath></defs><g clip-path="url(#clip292)" fill="none" opacity="1" stroke="#000000" stroke-linecap="butt" stroke-linejoin="miter" stroke-miterlimit="2" stroke-opacity="1" stroke-width="1" transform="matrix(1,0,0,1,2.5,74.5)"><path d="M0,10 C0,15.5228 4.47715,20 10,20 C15.5228,20 20,15.5228 20,10 C20,4.47715 15.5228,0 10,0 C4.47715,0 0,4.47715 0,10 z" fill-rule="nonzero" vector-effect="none"/></g><defs><clipPath id="clip295"><path d="M-12.4297,-96 L512,-96 L512,164 L-12.4297,164 L-12.4297,-96 z"/></clipPath></defs><g clip-path="url(#clip295)" fill="none" opacity="1" stroke="none" stroke-opacity="0" transform="matrix(1,0,0,1,12.4297,96)"><path d="M-10.4297,0 L10.4297,0 L10.4297,14 L-10.4297,14 L-10.4297,0 z" fill-rule="evenodd" vector-effect="none"/></g><defs><clipPath id="clip299"><path d="M0,0 L21,0 L21,14 L0,14 L0,0 z"/></clipPath></defs><g clip-path="url(#clip299)" fill="none" opacity="1" stroke="#000000" stroke-linecap="square" stroke-linejoin="bevel" stroke-opacity="1" stroke-width="1" transform="matrix(1,0,0,1,2,96)"><text fill="#000000" fill-opacity="1" font-family="Arial" font-size="10" font-style="normal" font-weight="400" stroke="none" textLength="18.8594" x="1" xml:space="preserve" y="10">yhat</text></g><defs><clipPath id="clip307"><path d="M-2,-14 L522.43,-14 L522.43,246 L-2,246 L-2,-14 z"/></clipPath></defs><g clip-path="url(#clip307)" fill="#00d100" fill-opacity="1" opacity="1" stroke="none" stroke-opacity="0" transform="matrix(1,0,0,1,2,14)"><path d="M0,10 C0,15.5228 4.47715,20 10,20 C15.5228,20 20,15.5228 20,10 C20,4.47715 15.5228,0 10,0 C4.47715,0 0,4.47715 0,10 z" fill-rule="nonzero" vector-effect="none"/></g><defs><clipPath id="clip311"><path d="M-10,-10 L10,-10 L10,10 L-10,10 L-10,-10 z"/></clipPath></defs><g clip-path="url(#clip311)" fill="none" opacity="1" stroke="#000000" stroke-linecap="butt" stroke-linejoin="miter" stroke-miterlimit="2" stroke-opacity="1" stroke-width="1" transform="matrix(1,0,0,1,12,24)"><text fill="#000000" fill-opacity="1" font-family="Arial" font-size="10" font-style="normal" font-weight="400" stroke="none" textLength="5.54688" x="-2.76562" xml:space="preserve" y="3.5">1</text></g><defs><clipPath id="clip316"><path d="M-2.5,-14.5 L521.93,-14.5 L521.93,245.5 L-2.5,245.5 L-2.5,-14.5 z"/></clipPath></defs><g clip-path="url(#clip316)" fill="none" opacity="1" stroke="#000000" stroke-linecap="butt" stroke-linejoin="miter" stroke-miterlimit="2" stroke-opacity="1" stroke-width="1" transform="matrix(1,0,0,1,2.5,14.5)"><path d="M0,10 C0,15.5228 4.47715,20 10,20 C15.5228,20 20,15.5228 20,10 C20,4.47715 15.5228,0 10,0 C4.47715,0 0,4.47715 0,10 z" fill-rule="nonzero" vector-effect="none"/></g><defs><clipPath id="clip319"><path d="M-12.4297,-36 L512,-36 L512,224 L-12.4297,224 L-12.4297,-36 z"/></clipPath></defs><g clip-path="url(#clip319)" fill="none" opacity="1" stroke="none" stroke-opacity="0" transform="matrix(1,0,0,1,12.4297,36)"><path d="M-6.27344,0 L6.27344,0 L6.27344,14 L-6.27344,14 L-6.27344,0 z" fill-rule="evenodd" vector-effect="none"/></g><defs><clipPath id="clip323"><path d="M0,0 L13,0 L13,14 L0,14 L0,0 z"/></clipPath></defs><g clip-path="url(#clip323)" fill="none" opacity="1" stroke="#000000" stroke-linecap="square" stroke-linejoin="bevel" stroke-opacity="1" stroke-width="1" transform="matrix(1,0,0,1,6.15625,36)"><text fill="#000000" fill-opacity="1" font-family="Arial" font-size="10" font-style="normal" font-weight="400" stroke="none" textLength="10.5469" x="1" xml:space="preserve" y="10">yp</text></g><defs><clipPath id="clip331"><path d="M-382,-104 L142.43,-104 L142.43,156 L-382,156 L-382,-104 z"/></clipPath></defs><g clip-path="url(#clip331)" fill="#000000" fill-opacity="1" opacity="1" stroke="none" stroke-opacity="0" transform="matrix(1,0,0,1,382,104)"><path d="M0,0 L-8,-4 L-8,4 L0,0 z" fill-rule="nonzero" vector-effect="none"/></g><defs><clipPath id="clip334"><path d="M37.5703,31 L562,31 L562,291 L37.5703,291 L37.5703,31 z"/></clipPath></defs><g clip-path="url(#clip334)" fill="none" opacity="1" stroke="#000000" stroke-linecap="butt" stroke-linejoin="miter" stroke-miterlimit="2" stroke-opacity="1" stroke-width="1" transform="matrix(1,0,0,1,-37.5703,-31)"><path d="M365,135 L412,135" fill-rule="evenodd" vector-effect="none"/></g><defs><clipPath id="clip337"><path d="M37.5703,31 L562,31 L562,291 L37.5703,291 L37.5703,31 z"/></clipPath></defs><g clip-path="url(#clip337)" fill="none" opacity="1" stroke="#000000" stroke-linecap="butt" stroke-linejoin="miter" stroke-miterlimit="2" stroke-opacity="1" stroke-width="1" transform="matrix(1,0,0,1,-37.5703,-31)"><path d="M460,135 L495,135" fill-rule="evenodd" vector-effect="none"/></g><defs><clipPath id="clip342"><path d="M37.5703,31 L562,31 L562,291 L37.5703,291 L37.5703,31 z"/></clipPath></defs><g clip-path="url(#clip342)" fill="none" opacity="1" stroke="#000000" stroke-linecap="butt" stroke-linejoin="miter" stroke-miterlimit="2" stroke-opacity="1" stroke-width="1" transform="matrix(1,0,0,1,-37.5703,-31)"><path d="M495,135 L495,90" fill-rule="evenodd" vector-effect="none"/></g><defs><clipPath id="clip347"><path d="M-482,-59 L42.4297,-59 L42.4297,201 L-482,201 L-482,-59 z"/></clipPath></defs><g clip-path="url(#clip347)" fill="#000000" fill-opacity="1" opacity="1" stroke="none" stroke-opacity="0" transform="matrix(1,0,0,1,482,59)"><path d="M0,0 L-8,-4 L-8,4 L0,0 z" fill-rule="nonzero" vector-effect="none"/></g><defs><clipPath id="clip350"><path d="M37.5703,31 L562,31 L562,291 L37.5703,291 L37.5703,31 z"/></clipPath></defs><g clip-path="url(#clip350)" fill="none" opacity="1" stroke="#000000" stroke-linecap="butt" stroke-linejoin="miter" stroke-miterlimit="2" stroke-opacity="1" stroke-width="1" transform="matrix(1,0,0,1,-37.5703,-31)"><path d="M495,90 L512,90" fill-rule="evenodd" vector-effect="none"/></g><defs><clipPath id="clip353"><path d="M-482,-14 L42.4297,-14 L42.4297,246 L-482,246 L-482,-14 z"/></clipPath></defs><g clip-path="url(#clip353)" fill="#000000" fill-opacity="1" opacity="1" stroke="none" stroke-opacity="0" transform="matrix(1,0,0,1,482,14)"><path d="M0,0 L-8,-4 L-8,4 L0,0 z" fill-rule="nonzero" vector-effect="none"/></g><defs><clipPath id="clip356"><path d="M37.5703,31 L562,31 L562,291 L37.5703,291 L37.5703,31 z"/></clipPath></defs><g clip-path="url(#clip356)" fill="none" opacity="1" stroke="#000000" stroke-linecap="butt" stroke-linejoin="miter" stroke-miterlimit="2" stroke-opacity="1" stroke-width="1" transform="matrix(1,0,0,1,-37.5703,-31)"><path d="M495,90 L495,45 L512,45" fill-rule="evenodd" vector-effect="none"/></g><defs><clipPath id="clip359"><path d="M-487,-104 L37.4297,-104 L37.4297,156 L-487,156 L-487,-104 z"/></clipPath></defs><g clip-path="url(#clip359)" fill="#000000" fill-opacity="1" opacity="1" stroke="none" stroke-opacity="0" transform="matrix(1,0,0,1,487,104)"><path d="M0,0 L-8,-4 L-8,4 L0,0 z" fill-rule="nonzero" vector-effect="none"/></g><defs><clipPath id="clip362"><path d="M37.5703,31 L562,31 L562,291 L37.5703,291 L37.5703,31 z"/></clipPath></defs><g clip-path="url(#clip362)" fill="none" opacity="1" stroke="#000000" stroke-linecap="butt" stroke-linejoin="miter" stroke-miterlimit="2" stroke-opacity="1" stroke-width="1" transform="matrix(1,0,0,1,-37.5703,-31)"><path d="M495,135 L517,135" fill-rule="evenodd" vector-effect="none"/></g><defs><clipPath id="clip365"><path d="M-457.43,-59 L67,-59 L67,201 L-457.43,201 L-457.43,-59 z"/></clipPath></defs><g clip-path="url(#clip365)" fill="#000000" fill-opacity="1" opacity="1" stroke="none" stroke-opacity="0" transform="matrix(1,0,0,1,457.43,59)"><path d="M2.5,0 C2.5,1.38071 1.38071,2.5 0,2.5 C-1.38071,2.5 -2.5,1.38071 -2.5,0 C-2.5,-1.38071 -1.38071,-2.5 0,-2.5 C1.38071,-2.5 2.5,-1.38071 2.5,0 z" fill-rule="evenodd" vector-effect="none"/></g><defs><clipPath id="clip368"><path d="M-457.43,-104 L67,-104 L67,156 L-457.43,156 L-457.43,-104 z"/></clipPath></defs><g clip-path="url(#clip368)" fill="#000000" fill-opacity="1" opacity="1" stroke="none" stroke-opacity="0" transform="matrix(1,0,0,1,457.43,104)"><path d="M2.5,0 C2.5,1.38071 1.38071,2.5 0,2.5 C-1.38071,2.5 -2.5,1.38071 -2.5,0 C-2.5,-1.38071 -1.38071,-2.5 0,-2.5 C1.38071,-2.5 2.5,-1.38071 2.5,0 z" fill-rule="evenodd" vector-effect="none"/></g><defs><clipPath id="clip371"><path d="M-68.5703,77.4297 L-68.5703,-447 L191.43,-447 L191.43,77.4297 L-68.5703,77.4297 z"/></clipPath></defs><g clip-path="url(#clip371)" fill="#000000" fill-opacity="1" opacity="1" stroke="none" stroke-opacity="0" transform="matrix(6.12323e-17,1,-1,6.12323e-17,77.4297,68.5703)"><path d="M0,0 L-8,-4 L-8,4 L0,0 z" fill-rule="nonzero" vector-effect="none"/></g><defs><clipPath id="clip374"><path d="M37.5703,31 L562,31 L562,291 L37.5703,291 L37.5703,31 z"/></clipPath></defs><g clip-path="url(#clip374)" fill="none" opacity="1" stroke="#000000" stroke-linecap="butt" stroke-linejoin="miter" stroke-miterlimit="2" stroke-opacity="1" stroke-width="1" transform="matrix(1,0,0,1,-37.5703,-31)"><path d="M60,55 L115,55 L115,92" fill-rule="evenodd" vector-effect="none"/></g><defs><clipPath id="clip377"><path d="M37.5703,31 L562,31 L562,291 L37.5703,291 L37.5703,31 z"/></clipPath></defs><g clip-path="url(#clip377)" fill="none" opacity="1" stroke="#000000" stroke-linecap="butt" stroke-linejoin="miter" stroke-miterlimit="2" stroke-opacity="1" stroke-width="1" transform="matrix(1,0,0,1,-37.5703,-31)"><path d="M130,115 L175,115" fill-rule="evenodd" vector-effect="none"/></g><defs><clipPath id="clip380"><path d="M-117.43,-82.5 L407,-82.5 L407,177.5 L-117.43,177.5 L-117.43,-82.5 z"/></clipPath></defs><g clip-path="url(#clip380)" fill="none" opacity="1" stroke="none" stroke-opacity="0" transform="matrix(1,0,0,1,117.43,82.5)"><path d="M-1,-12 L1,-12 L1,0 L-1,0 L-1,-12 z" fill-rule="evenodd" vector-effect="none"/></g><defs><clipPath id="clip394"><path d="M-167,-84 L357.43,-84 L357.43,176 L-167,176 L-167,-84 z"/></clipPath></defs><g clip-path="url(#clip394)" fill="#000000" fill-opacity="1" opacity="1" stroke="none" stroke-opacity="0" transform="matrix(1,0,0,1,167,84)"><path d="M0,0 L-8,-4 L-8,4 L0,0 z" fill-rule="nonzero" vector-effect="none"/></g><defs><clipPath id="clip397"><path d="M37.5703,31 L562,31 L562,291 L37.5703,291 L37.5703,31 z"/></clipPath></defs><g clip-path="url(#clip397)" fill="none" opacity="1" stroke="#000000" stroke-linecap="butt" stroke-linejoin="miter" stroke-miterlimit="2" stroke-opacity="1" stroke-width="1" transform="matrix(1,0,0,1,-37.5703,-31)"><path d="M175,115 L197,115" fill-rule="evenodd" vector-effect="none"/></g><defs><clipPath id="clip400"><path d="M-167,-34 L357.43,-34 L357.43,226 L-167,226 L-167,-34 z"/></clipPath></defs><g clip-path="url(#clip400)" fill="#000000" fill-opacity="1" opacity="1" stroke="none" stroke-opacity="0" transform="matrix(1,0,0,1,167,34)"><path d="M0,0 L-8,-4 L-8,4 L0,0 z" fill-rule="nonzero" vector-effect="none"/></g><defs><clipPath id="clip403"><path d="M37.5703,31 L562,31 L562,291 L37.5703,291 L37.5703,31 z"/></clipPath></defs><g clip-path="url(#clip403)" fill="none" opacity="1" stroke="#000000" stroke-linecap="butt" stroke-linejoin="miter" stroke-miterlimit="2" stroke-opacity="1" stroke-width="1" transform="matrix(1,0,0,1,-37.5703,-31)"><path d="M175,115 L175,65 L197,65" fill-rule="evenodd" vector-effect="none"/></g><defs><clipPath id="clip406"><path d="M-137.43,-84 L387,-84 L387,176 L-137.43,176 L-137.43,-84 z"/></clipPath></defs><g clip-path="url(#clip406)" fill="#000000" fill-opacity="1" opacity="1" stroke="none" stroke-opacity="0" transform="matrix(1,0,0,1,137.43,84)"><path d="M2.5,0 C2.5,1.38071 1.38071,2.5 0,2.5 C-1.38071,2.5 -2.5,1.38071 -2.5,0 C-2.5,-1.38071 -1.38071,-2.5 0,-2.5 C1.38071,-2.5 2.5,-1.38071 2.5,0 z" fill-rule="evenodd" vector-effect="none"/></g><defs><clipPath id="clip409"><path d="M-62,-84 L462.43,-84 L462.43,176 L-62,176 L-62,-84 z"/></clipPath></defs><g clip-path="url(#clip409)" fill="#000000" fill-opacity="1" opacity="1" stroke="none" stroke-opacity="0" transform="matrix(1,0,0,1,62,84)"><path d="M0,0 L-8,-4 L-8,4 L0,0 z" fill-rule="nonzero" vector-effect="none"/></g><defs><clipPath id="clip412"><path d="M37.5703,31 L562,31 L562,291 L37.5703,291 L37.5703,31 z"/></clipPath></defs><g clip-path="url(#clip412)" fill="none" opacity="1" stroke="#000000" stroke-linecap="butt" stroke-linejoin="miter" stroke-miterlimit="2" stroke-opacity="1" stroke-width="1" transform="matrix(1,0,0,1,-37.5703,-31)"><path d="M60,115 L92,115" fill-rule="evenodd" vector-effect="none"/></g><defs><clipPath id="clip415"><path d="M-287,-84 L237.43,-84 L237.43,176 L-287,176 L-287,-84 z"/></clipPath></defs><g clip-path="url(#clip415)" fill="#000000" fill-opacity="1" opacity="1" stroke="none" stroke-opacity="0" transform="matrix(1,0,0,1,287,84)"><path d="M0,0 L-8,-4 L-8,4 L0,0 z" fill-rule="nonzero" vector-effect="none"/></g><defs><clipPath id="clip418"><path d="M37.5703,31 L562,31 L562,291 L37.5703,291 L37.5703,31 z"/></clipPath></defs><g clip-path="url(#clip418)" fill="none" opacity="1" stroke="#000000" stroke-linecap="butt" stroke-linejoin="miter" stroke-miterlimit="2" stroke-opacity="1" stroke-width="1" transform="matrix(1,0,0,1,-37.5703,-31)"><path d="M260,115 L317,115" fill-rule="evenodd" vector-effect="none"/></g><defs><clipPath id="clip421"><path d="M-287,-124 L237.43,-124 L237.43,136 L-287,136 L-287,-124 z"/></clipPath></defs><g clip-path="url(#clip421)" fill="#000000" fill-opacity="1" opacity="1" stroke="none" stroke-opacity="0" transform="matrix(1,0,0,1,287,124)"><path d="M0,0 L-8,-4 L-8,4 L0,0 z" fill-rule="nonzero" vector-effect="none"/></g><defs><clipPath id="clip424"><path d="M37.5703,31 L562,31 L562,291 L37.5703,291 L37.5703,31 z"/></clipPath></defs><g clip-path="url(#clip424)" fill="none" opacity="1" stroke="#000000" stroke-linecap="butt" stroke-linejoin="miter" stroke-miterlimit="2" stroke-opacity="1" stroke-width="1" transform="matrix(1,0,0,1,-37.5703,-31)"><path d="M255,250 L295,250 L295,155 L317,155" fill-rule="evenodd" vector-effect="none"/></g><defs><clipPath id="clip427"><path d="M37.5703,31 L562,31 L562,291 L37.5703,291 L37.5703,31 z"/></clipPath></defs><g clip-path="url(#clip427)" fill="none" opacity="1" stroke="#000000" stroke-linecap="butt" stroke-linejoin="miter" stroke-miterlimit="2" stroke-opacity="1" stroke-width="1" transform="matrix(1,0,0,1,-37.5703,-31)"><path d="M140,195 L170,195" fill-rule="evenodd" vector-effect="none"/></g><defs><clipPath id="clip432"><path d="M-287,-104 L237.43,-104 L237.43,156 L-287,156 L-287,-104 z"/></clipPath></defs><g clip-path="url(#clip432)" fill="#000000" fill-opacity="1" opacity="1" stroke="none" stroke-opacity="0" transform="matrix(1,0,0,1,287,104)"><path d="M0,0 L-8,-4 L-8,4 L0,0 z" fill-rule="nonzero" vector-effect="none"/></g><defs><clipPath id="clip435"><path d="M37.5703,31 L562,31 L562,291 L37.5703,291 L37.5703,31 z"/></clipPath></defs><g clip-path="url(#clip435)" fill="none" opacity="1" stroke="#000000" stroke-linecap="butt" stroke-linejoin="miter" stroke-miterlimit="2" stroke-opacity="1" stroke-width="1" transform="matrix(1,0,0,1,-37.5703,-31)"><path d="M170,195 L275,195 L275,135 L317,135" fill-rule="evenodd" vector-effect="none"/></g><defs><clipPath id="clip438"><path d="M-167,-219 L357.43,-219 L357.43,41 L-167,41 L-167,-219 z"/></clipPath></defs><g clip-path="url(#clip438)" fill="#000000" fill-opacity="1" opacity="1" stroke="none" stroke-opacity="0" transform="matrix(1,0,0,1,167,219)"><path d="M0,0 L-8,-4 L-8,4 L0,0 z" fill-rule="nonzero" vector-effect="none"/></g><defs><clipPath id="clip441"><path d="M37.5703,31 L562,31 L562,291 L37.5703,291 L37.5703,31 z"/></clipPath></defs><g clip-path="url(#clip441)" fill="none" opacity="1" stroke="#000000" stroke-linecap="butt" stroke-linejoin="miter" stroke-miterlimit="2" stroke-opacity="1" stroke-width="1" transform="matrix(1,0,0,1,-37.5703,-31)"><path d="M170,195 L170,250 L197,250" fill-rule="evenodd" vector-effect="none"/></g><defs><clipPath id="clip444"><path d="M-132.43,-164 L392,-164 L392,96 L-132.43,96 L-132.43,-164 z"/></clipPath></defs><g clip-path="url(#clip444)" fill="#000000" fill-opacity="1" opacity="1" stroke="none" stroke-opacity="0" transform="matrix(1,0,0,1,132.43,164)"><path d="M2.5,0 C2.5,1.38071 1.38071,2.5 0,2.5 C-1.38071,2.5 -2.5,1.38071 -2.5,0 C-2.5,-1.38071 -1.38071,-2.5 0,-2.5 C1.38071,-2.5 2.5,-1.38071 2.5,0 z" fill-rule="evenodd" vector-effect="none"/></g></g></svg>
