<?xml version="1.0" encoding="UTF-8"?><svg width="114.829mm" height="59.0021mm" viewBox="0 0 434 223" xmlns="http://www.w3.org/2000/svg" xmlns:xlink="http://www.w3.org/1999/xlink"><g fill="none" stroke="black" stroke-width="1" fill-rule="evenodd" stroke-linecap="square" stroke-linejoin="bevel"><g clip-path="none" fill="#ffffff" fill-opacity="1" opacity="1" stroke="none" stroke-opacity="0" transform="matrix(1,0,0,1,0,0)"><path d="M0,0 L434,0 L434,223 L0,223 L0,0 z" fill-rule="evenodd" vector-effect="none"/></g><defs><clipPath id="clip3"><path d="M-244.102,-184 L189.898,-184 L189.898,39 L-244.102,39 L-244.102,-184 z"/></clipPath></defs><g clip-path="url(#clip3)" fill="#ffff80" fill-opacity="1" opacity="1" stroke="none" stroke-opacity="0" transform="matrix(1,0,0,1,244.102,184)"><path d="M-30.1016,-7 L30.1016,-7 L30.1016,7 L-30.1016,7 L-30.1016,-7 z" fill-rule="evenodd" vector-effect="none"/></g><defs><clipPath id="clip8"><path d="M-5,-5 L65,-5 L65,19 L-5,19 L-5,-5 z"/></clipPath></defs><g clip-path="url(#clip8)" fill="none" opacity="1" stroke="none" stroke-opacity="0" transform="matrix(1,0,0,1,214,177)"><path d="M1,1 L59.2031,1 L59.2031,13 L1,13 L1,1 z" fill-rule="evenodd" vector-effect="none"/></g><defs><clipPath id="clip9"><path d="M-5,-5 L65,-5 L65,19 L-5,19 L-5,-5 z"/></clipPath></defs><g clip-path="url(#clip9)" fill="#ffff80" fill-opacity="1" opacity="1" stroke="#000000" stroke-linecap="square" stroke-linejoin="bevel" stroke-opacity="1" stroke-width="1" transform="matrix(1,0,0,1,214,177)"><text fill="#000000" fill-opacity="1" font-family="Arial" font-size="10" font-style="normal" font-weight="400" stroke="none" textLength="58.2031" x="1" xml:space="preserve" y="10">k = -ap^ - am</text></g><defs><clipPath id="clip17"><path d="M-244.461,-167 L189.539,-167 L189.539,56 L-244.461,56 L-244.461,-167 z"/></clipPath></defs><g clip-path="url(#clip17)" fill="#ffff80" fill-opacity="1" opacity="1" stroke="none" stroke-opacity="0" transform="matrix(1,0,0,1,244.461,167)"><path d="M-68.4609,-7 L68.4609,-7 L68.4609,7 L-68.4609,7 L-68.4609,-7 z" fill-rule="evenodd" vector-effect="none"/></g><defs><clipPath id="clip22"><path d="M-5,-5 L141,-5 L141,19 L-5,19 L-5,-5 z"/></clipPath></defs><g clip-path="url(#clip22)" fill="none" opacity="1" stroke="none" stroke-opacity="0" transform="matrix(1,0,0,1,176,160)"><path d="M1,1 L135.922,1 L135.922,13 L1,13 L1,1 z" fill-rule="evenodd" vector-effect="none"/></g><defs><clipPath id="clip23"><path d="M-5,-5 L141,-5 L141,19 L-5,19 L-5,-5 z"/></clipPath></defs><g clip-path="url(#clip23)" fill="#ffff80" fill-opacity="1" opacity="1" stroke="#000000" stroke-linecap="square" stroke-linejoin="bevel" stroke-opacity="1" stroke-width="1" transform="matrix(1,0,0,1,176,160)"><text fill="#000000" fill-opacity="1" font-family="Arial" font-size="10" font-style="normal" font-weight="400" stroke="none" textLength="134.922" x="1" xml:space="preserve" y="10">theta = ap^ + af ou theta = ap^</text></g><defs><clipPath id="clip31"><path d="M-263.891,-43 L170.109,-43 L170.109,180 L-263.891,180 L-263.891,-43 z"/></clipPath></defs><g clip-path="url(#clip31)" fill="#ffffff" fill-opacity="1" opacity="1" stroke="none" stroke-opacity="0" transform="matrix(1,0,0,1,263.891,43)"><path d="M-8.89062,-7 L8.89062,-7 L8.89062,7 L-8.89062,7 L-8.89062,-7 z" fill-rule="evenodd" vector-effect="none"/></g><defs><clipPath id="clip36"><path d="M-5,-5 L22,-5 L22,19 L-5,19 L-5,-5 z"/></clipPath></defs><g clip-path="url(#clip36)" fill="none" opacity="1" stroke="none" stroke-opacity="0" transform="matrix(1,0,0,1,255,36)"><path d="M1,1 L16.7812,1 L16.7812,13 L1,13 L1,1 z" fill-rule="evenodd" vector-effect="none"/></g><defs><clipPath id="clip37"><path d="M-5,-5 L22,-5 L22,19 L-5,19 L-5,-5 z"/></clipPath></defs><g clip-path="url(#clip37)" fill="#ffffff" fill-opacity="1" opacity="1" stroke="#000000" stroke-linecap="square" stroke-linejoin="bevel" stroke-opacity="1" stroke-width="1" transform="matrix(1,0,0,1,255,36)"><text fill="#000000" fill-opacity="1" font-family="Arial" font-size="10" font-style="normal" font-weight="400" stroke="none" textLength="15.7812" x="1" xml:space="preserve" y="10">ap^</text></g><defs><clipPath id="clip45"><path d="M-407,-50 L27,-50 L27,173 L-407,173 L-407,-50 z"/></clipPath></defs><g clip-path="url(#clip45)" fill="#00d100" fill-opacity="1" opacity="1" stroke="none" stroke-opacity="0" transform="matrix(1,0,0,1,407,50)"><path d="M0,10 C0,15.5228 4.47715,20 10,20 C15.5228,20 20,15.5228 20,10 C20,4.47715 15.5228,0 10,0 C4.47715,0 0,4.47715 0,10 z" fill-rule="nonzero" vector-effect="none"/></g><defs><clipPath id="clip49"><path d="M-10,-10 L10,-10 L10,10 L-10,10 L-10,-10 z"/></clipPath></defs><g clip-path="url(#clip49)" fill="none" opacity="1" stroke="#000000" stroke-linecap="butt" stroke-linejoin="miter" stroke-miterlimit="2" stroke-opacity="1" stroke-width="1" transform="matrix(1,0,0,1,417,60)"><text fill="#000000" fill-opacity="1" font-family="Arial" font-size="10" font-style="normal" font-weight="400" stroke="none" textLength="5.54688" x="-2.76562" xml:space="preserve" y="3.5">1</text></g><defs><clipPath id="clip54"><path d="M-407.5,-50.5 L26.5,-50.5 L26.5,172.5 L-407.5,172.5 L-407.5,-50.5 z"/></clipPath></defs><g clip-path="url(#clip54)" fill="none" opacity="1" stroke="#000000" stroke-linecap="butt" stroke-linejoin="miter" stroke-miterlimit="2" stroke-opacity="1" stroke-width="1" transform="matrix(1,0,0,1,407.5,50.5)"><path d="M0,10 C0,15.5228 4.47715,20 10,20 C15.5228,20 20,15.5228 20,10 C20,4.47715 15.5228,0 10,0 C4.47715,0 0,4.47715 0,10 z" fill-rule="nonzero" vector-effect="none"/></g><defs><clipPath id="clip57"><path d="M-417,-72 L17,-72 L17,151 L-417,151 L-417,-72 z"/></clipPath></defs><g clip-path="url(#clip57)" fill="none" opacity="1" stroke="none" stroke-opacity="0" transform="matrix(1,0,0,1,417,72)"><path d="M-3.5,0 L3.5,0 L3.5,14 L-3.5,14 L-3.5,0 z" fill-rule="evenodd" vector-effect="none"/></g><defs><clipPath id="clip61"><path d="M0,0 L7,0 L7,14 L0,14 L0,0 z"/></clipPath></defs><g clip-path="url(#clip61)" fill="none" opacity="1" stroke="#000000" stroke-linecap="square" stroke-linejoin="bevel" stroke-opacity="1" stroke-width="1" transform="matrix(1,0,0,1,413.5,72)"><text fill="#000000" fill-opacity="1" font-family="Arial" font-size="10" font-style="normal" font-weight="400" stroke="none" textLength="5" x="1" xml:space="preserve" y="10">k</text></g><defs><clipPath id="clip69"><path d="M-407,-2 L27,-2 L27,221 L-407,221 L-407,-2 z"/></clipPath></defs><g clip-path="url(#clip69)" fill="#e8d152" fill-opacity="1" opacity="1" stroke="none" stroke-opacity="0" transform="matrix(1,0,0,1,407,2)"><path d="M0,0 L25,0 L25,26 L0,26 L0,0 z" fill-rule="evenodd" vector-effect="none"/></g><defs><clipPath id="clip73"><path d="M0,0 L25,0 L25,26 L0,26 L0,0 z"/></clipPath></defs><g clip-path="url(#clip73)" fill="none" opacity="1" stroke="none" stroke-opacity="0" transform="matrix(1,0,0,1,407,2)"><path d="M0,0 L25,0 L25,26 L0,26 L0,0 z" fill-rule="evenodd" vector-effect="none"/></g><defs><clipPath id="clip84"><path d="M-3,-5 L7,-5 L7,9 L-3,9 L-3,-5 z"/></clipPath></defs><g clip-path="url(#clip84)" fill="#000000" fill-opacity="1" opacity="1" stroke="none" stroke-opacity="0" transform="matrix(1,0,0,1,417,12.5)"><path d="M1.4375,6 L-1.59375,6 L-1.59375,5.375 L-0.609375,5.375 L-0.609375,-2.5 L-1.65625,-2.5 L-1.65625,-3.125 L0.46875,-3.125 L0.46875,2.8125 L3.09375,0.390625 L2.1875,0.390625 L2.1875,-0.234375 L5.01562,-0.234375 L5.01562,0.390625 L3.9375,0.390625 L2.09375,2.10938 L4.45312,5.375 L5.35938,5.375 L5.35938,6 L2.28125,6 L2.28125,5.375 L3.17188,5.375 L1.3125,2.8125 L0.46875,3.60938 L0.46875,5.375 L1.4375,5.375 L1.4375,6 z" fill-rule="nonzero" vector-effect="none"/></g><defs><clipPath id="clip107"><path d="M-407.5,-2.5 L26.5,-2.5 L26.5,220.5 L-407.5,220.5 L-407.5,-2.5 z"/></clipPath></defs><g clip-path="url(#clip107)" fill="none" opacity="1" stroke="#000000" stroke-linecap="butt" stroke-linejoin="miter" stroke-miterlimit="2" stroke-opacity="1" stroke-width="1" transform="matrix(1,0,0,1,407.5,2.5)"><path d="M0,0 L25,0 L25,26 L0,26 L0,0 z" fill-rule="evenodd" vector-effect="none"/></g><defs><clipPath id="clip110"><path d="M-322,-45 L112,-45 L112,178 L-322,178 L-322,-45 z"/></clipPath></defs><g clip-path="url(#clip110)" fill="#ffffff" fill-opacity="1" opacity="1" stroke="none" stroke-opacity="0" transform="matrix(1,0,0,1,322,45)"><path d="M30,15 C30,23.2843 23.2843,30 15,30 C6.71573,30 0,23.2843 0,15 C0,6.71573 6.71573,0 15,0 C23.2843,0 30,6.71573 30,15 z" fill-rule="nonzero" vector-effect="none"/></g><defs><clipPath id="clip114"><path d="M360,80 L390,80 L390,110 L360,110 L360,80 z"/></clipPath></defs><g clip-path="url(#clip114)" fill="none" opacity="1" stroke="#000000" stroke-linecap="butt" stroke-linejoin="miter" stroke-miterlimit="2" stroke-opacity="1" stroke-width="1" transform="matrix(1,0,0,1,-37.5,-34.5)"><polyline fill="none" points="363,95 367,95" vector-effect="none"/></g><defs><clipPath id="clip115"><path d="M360,80 L390,80 L390,110 L360,110 L360,80 z"/></clipPath></defs><g clip-path="url(#clip115)" fill="none" opacity="1" stroke="#000000" stroke-linecap="butt" stroke-linejoin="miter" stroke-miterlimit="2" stroke-opacity="1" stroke-width="1" transform="matrix(1,0,0,1,-37.5,-34.5)"><polyline fill="none" points="373,105 377,105" vector-effect="none"/></g><defs><clipPath id="clip120"><path d="M-322.5,-45.5 L111.5,-45.5 L111.5,177.5 L-322.5,177.5 L-322.5,-45.5 z"/></clipPath></defs><g clip-path="url(#clip120)" fill="none" opacity="1" stroke="#000000" stroke-linecap="butt" stroke-linejoin="miter" stroke-miterlimit="2" stroke-opacity="1" stroke-width="1" transform="matrix(1,0,0,1,322.5,45.5)"><path d="M30,15 C30,23.2843 23.2843,30 15,30 C6.71573,30 0,23.2843 0,15 C0,6.71573 6.71573,0 15,0 C23.2843,0 30,6.71573 30,15 z" fill-rule="nonzero" vector-effect="none"/></g><defs><clipPath id="clip123"><path d="M-192,-45 L242,-45 L242,178 L-192,178 L-192,-45 z"/></clipPath></defs><g clip-path="url(#clip123)" fill="#ffffff" fill-opacity="1" opacity="1" stroke="none" stroke-opacity="0" transform="matrix(1,0,0,1,192,45)"><path d="M30,15 C30,23.2843 23.2843,30 15,30 C6.71573,30 0,23.2843 0,15 C0,6.71573 6.71573,0 15,0 C23.2843,0 30,6.71573 30,15 z" fill-rule="nonzero" vector-effect="none"/></g><defs><clipPath id="clip127"><path d="M230,80 L260,80 L260,110 L230,110 L230,80 z"/></clipPath></defs><g clip-path="url(#clip127)" fill="none" opacity="1" stroke="#000000" stroke-linecap="butt" stroke-linejoin="miter" stroke-miterlimit="2" stroke-opacity="1" stroke-width="1" transform="matrix(1,0,0,1,-37.5,-34.5)"><polyline fill="none" points="233,95 237,95" vector-effect="none"/></g><defs><clipPath id="clip128"><path d="M230,80 L260,80 L260,110 L230,110 L230,80 z"/></clipPath></defs><g clip-path="url(#clip128)" fill="none" opacity="1" stroke="#000000" stroke-linecap="butt" stroke-linejoin="miter" stroke-miterlimit="2" stroke-opacity="1" stroke-width="1" transform="matrix(1,0,0,1,-37.5,-34.5)"><polyline fill="none" points="235,93 235,97" vector-effect="none"/></g><defs><clipPath id="clip129"><path d="M230,80 L260,80 L260,110 L230,110 L230,80 z"/></clipPath></defs><g clip-path="url(#clip129)" fill="none" opacity="1" stroke="#000000" stroke-linecap="butt" stroke-linejoin="miter" stroke-miterlimit="2" stroke-opacity="1" stroke-width="1" transform="matrix(1,0,0,1,-37.5,-34.5)"><polyline fill="none" points="243,105 247,105" vector-effect="none"/></g><defs><clipPath id="clip134"><path d="M-192.5,-45.5 L241.5,-45.5 L241.5,177.5 L-192.5,177.5 L-192.5,-45.5 z"/></clipPath></defs><g clip-path="url(#clip134)" fill="none" opacity="1" stroke="#000000" stroke-linecap="butt" stroke-linejoin="miter" stroke-miterlimit="2" stroke-opacity="1" stroke-width="1" transform="matrix(1,0,0,1,192.5,45.5)"><path d="M30,15 C30,23.2843 23.2843,30 15,30 C6.71573,30 0,23.2843 0,15 C0,6.71573 6.71573,0 15,0 C23.2843,0 30,6.71573 30,15 z" fill-rule="nonzero" vector-effect="none"/></g><defs><clipPath id="clip137"><path d="M-282,-95 L152,-95 L152,128 L-282,128 L-282,-95 z"/></clipPath></defs><g clip-path="url(#clip137)" fill="#ffffff" fill-opacity="1" opacity="1" stroke="none" stroke-opacity="0" transform="matrix(1,0,0,1,282,95)"><path d="M0,0 L30,0 L30,30 L0,30 L0,0 z" fill-rule="evenodd" vector-effect="none"/></g><defs><clipPath id="clip141"><path d="M-15,-15 L15,-15 L15,15 L-15,15 L-15,-15 z"/></clipPath></defs><g clip-path="url(#clip141)" fill="none" opacity="1" stroke="#000000" stroke-linecap="butt" stroke-linejoin="miter" stroke-miterlimit="2" stroke-opacity="1" stroke-width="1" transform="matrix(1,0,0,1,297,110)"><text fill="#000000" fill-opacity="1" font-family="Arial" font-size="10" font-style="normal" font-weight="400" stroke="none" textLength="13.875" x="-6.9375" xml:space="preserve" y="3.5">am</text></g><defs><clipPath id="clip146"><path d="M-282.5,-95.5 L151.5,-95.5 L151.5,127.5 L-282.5,127.5 L-282.5,-95.5 z"/></clipPath></defs><g clip-path="url(#clip146)" fill="none" opacity="1" stroke="#000000" stroke-linecap="butt" stroke-linejoin="miter" stroke-miterlimit="2" stroke-opacity="1" stroke-width="1" transform="matrix(1,0,0,1,282.5,95.5)"><path d="M0,0 L30,0 L30,30 L0,30 L0,0 z" fill-rule="evenodd" vector-effect="none"/></g><defs><clipPath id="clip149"><path d="M-12,-99 L422,-99 L422,124 L-12,124 L-12,-99 z"/></clipPath></defs><g clip-path="url(#clip149)" fill="#ffffff" fill-opacity="1" opacity="1" stroke="none" stroke-opacity="0" transform="matrix(1,0,0,1,12,99)"><path d="M0,0 L30,0 L30,32 L0,32 L0,0 z" fill-rule="evenodd" vector-effect="none"/></g><defs><clipPath id="clip153"><path d="M-15,-16 L15,-16 L15,16 L-15,16 L-15,-16 z"/></clipPath></defs><g clip-path="url(#clip153)" fill="none" opacity="1" stroke="#000000" stroke-linecap="butt" stroke-linejoin="miter" stroke-miterlimit="2" stroke-opacity="1" stroke-width="1" transform="matrix(1,0,0,1,27,115)"><text fill="#000000" fill-opacity="1" font-family="Arial" font-size="10" font-style="normal" font-weight="400" stroke="none" textLength="8.3125" x="-4.15625" xml:space="preserve" y="3.5">af</text></g><defs><clipPath id="clip158"><path d="M-12.5,-99.5 L421.5,-99.5 L421.5,123.5 L-12.5,123.5 L-12.5,-99.5 z"/></clipPath></defs><g clip-path="url(#clip158)" fill="none" opacity="1" stroke="#000000" stroke-linecap="butt" stroke-linejoin="miter" stroke-miterlimit="2" stroke-opacity="1" stroke-width="1" transform="matrix(1,0,0,1,12.5,99.5)"><path d="M0,0 L30,0 L30,32 L0,32 L0,0 z" fill-rule="evenodd" vector-effect="none"/></g><defs><clipPath id="clip161"><path d="M-17,-50 L417,-50 L417,173 L-17,173 L-17,-50 z"/></clipPath></defs><g clip-path="url(#clip161)" fill="#00d100" fill-opacity="1" opacity="1" stroke="none" stroke-opacity="0" transform="matrix(1,0,0,1,17,50)"><path d="M0,10 C0,15.5228 4.47715,20 10,20 C15.5228,20 20,15.5228 20,10 C20,4.47715 15.5228,0 10,0 C4.47715,0 0,4.47715 0,10 z" fill-rule="nonzero" vector-effect="none"/></g><defs><clipPath id="clip165"><path d="M-10,-10 L10,-10 L10,10 L-10,10 L-10,-10 z"/></clipPath></defs><g clip-path="url(#clip165)" fill="none" opacity="1" stroke="#000000" stroke-linecap="butt" stroke-linejoin="miter" stroke-miterlimit="2" stroke-opacity="1" stroke-width="1" transform="matrix(1,0,0,1,27,60)"><text fill="#000000" fill-opacity="1" font-family="Arial" font-size="10" font-style="normal" font-weight="400" stroke="none" textLength="5.54688" x="-2.76562" xml:space="preserve" y="3.5">1</text></g><defs><clipPath id="clip170"><path d="M-17.5,-50.5 L416.5,-50.5 L416.5,172.5 L-17.5,172.5 L-17.5,-50.5 z"/></clipPath></defs><g clip-path="url(#clip170)" fill="none" opacity="1" stroke="#000000" stroke-linecap="butt" stroke-linejoin="miter" stroke-miterlimit="2" stroke-opacity="1" stroke-width="1" transform="matrix(1,0,0,1,17.5,50.5)"><path d="M0,10 C0,15.5228 4.47715,20 10,20 C15.5228,20 20,15.5228 20,10 C20,4.47715 15.5228,0 10,0 C4.47715,0 0,4.47715 0,10 z" fill-rule="nonzero" vector-effect="none"/></g><defs><clipPath id="clip173"><path d="M-27,-72 L407,-72 L407,151 L-27,151 L-27,-72 z"/></clipPath></defs><g clip-path="url(#clip173)" fill="none" opacity="1" stroke="none" stroke-opacity="0" transform="matrix(1,0,0,1,27,72)"><path d="M-12.0859,0 L12.0859,0 L12.0859,14 L-12.0859,14 L-12.0859,0 z" fill-rule="evenodd" vector-effect="none"/></g><defs><clipPath id="clip177"><path d="M0,0 L24,0 L24,14 L0,14 L0,0 z"/></clipPath></defs><g clip-path="url(#clip177)" fill="none" opacity="1" stroke="#000000" stroke-linecap="square" stroke-linejoin="bevel" stroke-opacity="1" stroke-width="1" transform="matrix(1,0,0,1,14.9141,72)"><text fill="#000000" fill-opacity="1" font-family="Arial" font-size="10" font-style="normal" font-weight="400" stroke="none" textLength="22.1719" x="1" xml:space="preserve" y="10">theta</text></g><defs><clipPath id="clip185"><path d="M-112,-110 L322,-110 L322,113 L-112,113 L-112,-110 z"/></clipPath></defs><g clip-path="url(#clip185)" fill="#ffffff" fill-opacity="1" opacity="1" stroke="none" stroke-opacity="0" transform="matrix(1,0,0,1,112,110)"><path d="M0,0 L50,0 L50,40 L0,40 L0,0 z" fill-rule="evenodd" vector-effect="none"/></g><defs><clipPath id="clip189"><path d="M150,145 L200,145 L200,185 L150,185 L150,145 z"/></clipPath></defs><g clip-path="url(#clip189)" fill="none" opacity="1" stroke="#000000" stroke-linecap="butt" stroke-linejoin="miter" stroke-miterlimit="2" stroke-opacity="1" stroke-width="1" transform="matrix(1,0,0,1,-37.5,-34.5)"><polyline fill="none" points="170,179 170,181" vector-effect="none"/></g><defs><clipPath id="clip190"><path d="M150,145 L200,145 L200,185 L150,185 L150,145 z"/></clipPath></defs><g clip-path="url(#clip190)" fill="none" opacity="1" stroke="#000000" stroke-linecap="butt" stroke-linejoin="miter" stroke-miterlimit="2" stroke-opacity="1" stroke-width="1" transform="matrix(1,0,0,1,-37.5,-34.5)"><polyline fill="none" points="170,181 173,181" vector-effect="none"/></g><defs><clipPath id="clip191"><path d="M150,145 L200,145 L200,185 L150,185 L150,145 z"/></clipPath></defs><g clip-path="url(#clip191)" fill="none" opacity="1" stroke="#000000" stroke-linecap="butt" stroke-linejoin="miter" stroke-miterlimit="2" stroke-opacity="1" stroke-width="1" transform="matrix(1,0,0,1,-37.5,-34.5)"><polyline fill="none" points="173,181 173,178" vector-effect="none"/></g><defs><clipPath id="clip192"><path d="M150,145 L200,145 L200,185 L150,185 L150,145 z"/></clipPath></defs><g clip-path="url(#clip192)" fill="none" opacity="1" stroke="#000000" stroke-linecap="butt" stroke-linejoin="miter" stroke-miterlimit="2" stroke-opacity="1" stroke-width="1" transform="matrix(1,0,0,1,-37.5,-34.5)"><polyline fill="none" points="173,178 170,178" vector-effect="none"/></g><defs><clipPath id="clip193"><path d="M150,145 L200,145 L200,185 L150,185 L150,145 z"/></clipPath></defs><g clip-path="url(#clip193)" fill="none" opacity="1" stroke="#000000" stroke-linecap="butt" stroke-linejoin="miter" stroke-miterlimit="2" stroke-opacity="1" stroke-width="1" transform="matrix(1,0,0,1,-37.5,-34.5)"><polyline fill="none" points="170,178 170,179" vector-effect="none"/></g><defs><clipPath id="clip194"><path d="M150,145 L200,145 L200,185 L150,185 L150,145 z"/></clipPath></defs><g clip-path="url(#clip194)" fill="none" opacity="1" stroke="#000000" stroke-linecap="butt" stroke-linejoin="miter" stroke-miterlimit="2" stroke-opacity="1" stroke-width="1" transform="matrix(1,0,0,1,-37.5,-34.5)"><polyline fill="none" points="170,179 150,179" vector-effect="none"/></g><defs><clipPath id="clip195"><path d="M150,145 L200,145 L200,185 L150,185 L150,145 z"/></clipPath></defs><g clip-path="url(#clip195)" fill="none" opacity="1" stroke="#000000" stroke-linecap="butt" stroke-linejoin="miter" stroke-miterlimit="2" stroke-opacity="1" stroke-width="1" transform="matrix(1,0,0,1,-37.5,-34.5)"><polyline fill="none" points="170,151 170,153" vector-effect="none"/></g><defs><clipPath id="clip196"><path d="M150,145 L200,145 L200,185 L150,185 L150,145 z"/></clipPath></defs><g clip-path="url(#clip196)" fill="none" opacity="1" stroke="#000000" stroke-linecap="butt" stroke-linejoin="miter" stroke-miterlimit="2" stroke-opacity="1" stroke-width="1" transform="matrix(1,0,0,1,-37.5,-34.5)"><polyline fill="none" points="170,153 173,153" vector-effect="none"/></g><defs><clipPath id="clip197"><path d="M150,145 L200,145 L200,185 L150,185 L150,145 z"/></clipPath></defs><g clip-path="url(#clip197)" fill="none" opacity="1" stroke="#000000" stroke-linecap="butt" stroke-linejoin="miter" stroke-miterlimit="2" stroke-opacity="1" stroke-width="1" transform="matrix(1,0,0,1,-37.5,-34.5)"><polyline fill="none" points="173,153 173,150" vector-effect="none"/></g><defs><clipPath id="clip198"><path d="M150,145 L200,145 L200,185 L150,185 L150,145 z"/></clipPath></defs><g clip-path="url(#clip198)" fill="none" opacity="1" stroke="#000000" stroke-linecap="butt" stroke-linejoin="miter" stroke-miterlimit="2" stroke-opacity="1" stroke-width="1" transform="matrix(1,0,0,1,-37.5,-34.5)"><polyline fill="none" points="173,150 170,150" vector-effect="none"/></g><defs><clipPath id="clip199"><path d="M150,145 L200,145 L200,185 L150,185 L150,145 z"/></clipPath></defs><g clip-path="url(#clip199)" fill="none" opacity="1" stroke="#000000" stroke-linecap="butt" stroke-linejoin="miter" stroke-miterlimit="2" stroke-opacity="1" stroke-width="1" transform="matrix(1,0,0,1,-37.5,-34.5)"><polyline fill="none" points="170,150 170,151" vector-effect="none"/></g><defs><clipPath id="clip200"><path d="M150,145 L200,145 L200,185 L150,185 L150,145 z"/></clipPath></defs><g clip-path="url(#clip200)" fill="none" opacity="1" stroke="#000000" stroke-linecap="butt" stroke-linejoin="miter" stroke-miterlimit="2" stroke-opacity="1" stroke-width="1" transform="matrix(1,0,0,1,-37.5,-34.5)"><polyline fill="none" points="170,151 150,151" vector-effect="none"/></g><defs><clipPath id="clip201"><path d="M150,145 L200,145 L200,185 L150,185 L150,145 z"/></clipPath></defs><g clip-path="url(#clip201)" fill="none" opacity="1" stroke="#000000" stroke-linecap="butt" stroke-linejoin="miter" stroke-miterlimit="2" stroke-opacity="1" stroke-width="1" transform="matrix(1,0,0,1,-37.5,-34.5)"><polyline fill="none" points="172,151 190,165" vector-effect="none"/></g><defs><clipPath id="clip202"><path d="M150,145 L200,145 L200,185 L150,185 L150,145 z"/></clipPath></defs><g clip-path="url(#clip202)" fill="none" opacity="1" stroke="#000000" stroke-linecap="butt" stroke-linejoin="miter" stroke-miterlimit="2" stroke-opacity="1" stroke-width="1" transform="matrix(1,0,0,1,-37.5,-34.5)"><polyline fill="none" points="190,165 200,165" vector-effect="none"/></g><defs><clipPath id="clip203"><path d="M150,145 L200,145 L200,185 L150,185 L150,145 z"/></clipPath></defs><g clip-path="url(#clip203)" fill="none" opacity="1" stroke="#000000" stroke-linecap="butt" stroke-linejoin="miter" stroke-miterlimit="2" stroke-opacity="1" stroke-width="1" transform="matrix(1,0,0,1,-37.5,-34.5)"><polyline fill="none" points="157,169 157,161" vector-effect="none"/></g><defs><clipPath id="clip204"><path d="M150,145 L200,145 L200,185 L150,185 L150,145 z"/></clipPath></defs><g clip-path="url(#clip204)" fill="none" opacity="1" stroke="#000000" stroke-linecap="butt" stroke-linejoin="miter" stroke-miterlimit="2" stroke-opacity="1" stroke-width="1" transform="matrix(1,0,0,1,-37.5,-34.5)"><polyline fill="none" points="157,161 157,165" vector-effect="none"/></g><defs><clipPath id="clip205"><path d="M150,145 L200,145 L200,185 L150,185 L150,145 z"/></clipPath></defs><g clip-path="url(#clip205)" fill="none" opacity="1" stroke="#000000" stroke-linecap="butt" stroke-linejoin="miter" stroke-miterlimit="2" stroke-opacity="1" stroke-width="1" transform="matrix(1,0,0,1,-37.5,-34.5)"><polyline fill="none" points="157,165 150,165" vector-effect="none"/></g><defs><clipPath id="clip206"><path d="M-9,-20 L41,-20 L41,20 L-9,20 L-9,-20 z"/></clipPath></defs><g clip-path="url(#clip206)" fill="none" opacity="1" stroke="#000000" stroke-linecap="butt" stroke-linejoin="miter" stroke-miterlimit="2" stroke-opacity="1" stroke-width="1" transform="matrix(1,0,0,1,121,130)"><text fill="#000000" fill-opacity="1" font-family="Arial" font-size="10" font-style="normal" font-weight="400" stroke="none" textLength="16.9062" x="0" xml:space="preserve" y="3.5"> &gt; 0</text></g><defs><clipPath id="clip211"><path d="M-112.5,-110.5 L321.5,-110.5 L321.5,112.5 L-112.5,112.5 L-112.5,-110.5 z"/></clipPath></defs><g clip-path="url(#clip211)" fill="none" opacity="1" stroke="#000000" stroke-linecap="butt" stroke-linejoin="miter" stroke-miterlimit="2" stroke-opacity="1" stroke-width="1" transform="matrix(1,0,0,1,112.5,110.5)"><path d="M0,0 L50,0 L50,40 L0,40 L0,0 z" fill-rule="evenodd" vector-effect="none"/></g><defs><clipPath id="clip214"><path d="M-137,-152 L297,-152 L297,71 L-137,71 L-137,-152 z"/></clipPath></defs><g clip-path="url(#clip214)" fill="none" opacity="1" stroke="none" stroke-opacity="0" transform="matrix(1,0,0,1,137,152)"><path d="M-15.7031,0 L15.7031,0 L15.7031,14 L-15.7031,14 L-15.7031,0 z" fill-rule="evenodd" vector-effect="none"/></g><defs><clipPath id="clip218"><path d="M0,0 L31,0 L31,14 L0,14 L0,0 z"/></clipPath></defs><g clip-path="url(#clip218)" fill="none" opacity="1" stroke="#000000" stroke-linecap="square" stroke-linejoin="bevel" stroke-opacity="1" stroke-width="1" transform="matrix(1,0,0,1,121.297,152)"><text fill="#000000" fill-opacity="1" font-family="Arial" font-size="10" font-style="normal" font-weight="400" stroke="none" textLength="29.4062" x="1" xml:space="preserve" y="10">Switch</text></g><defs><clipPath id="clip226"><path d="M-2,-146 L432,-146 L432,77 L-2,77 L-2,-146 z"/></clipPath></defs><g clip-path="url(#clip226)" fill="#ffffff" fill-opacity="1" opacity="1" stroke="none" stroke-opacity="0" transform="matrix(1,0,0,1,2,146)"><path d="M0,0 L55,0 L55,28 L0,28 L0,0 z" fill-rule="evenodd" vector-effect="none"/></g><defs><clipPath id="clip230"><path d="M-27,-14 L28,-14 L28,14 L-27,14 L-27,-14 z"/></clipPath></defs><g clip-path="url(#clip230)" fill="none" opacity="1" stroke="#000000" stroke-linecap="butt" stroke-linejoin="miter" stroke-miterlimit="2" stroke-opacity="1" stroke-width="1" transform="matrix(1,0,0,1,29,160)"><text fill="#000000" fill-opacity="1" font-family="Arial" font-size="10" font-style="normal" font-weight="400" stroke="none" textLength="47.1406" x="-23.5625" xml:space="preserve" y="3.5">m_type - 1</text></g><defs><clipPath id="clip235"><path d="M-2.5,-146.5 L431.5,-146.5 L431.5,76.5 L-2.5,76.5 L-2.5,-146.5 z"/></clipPath></defs><g clip-path="url(#clip235)" fill="none" opacity="1" stroke="#000000" stroke-linecap="butt" stroke-linejoin="miter" stroke-miterlimit="2" stroke-opacity="1" stroke-width="1" transform="matrix(1,0,0,1,2.5,146.5)"><path d="M0,0 L55,0 L55,28 L0,28 L0,0 z" fill-rule="evenodd" vector-effect="none"/></g><defs><clipPath id="clip238"><path d="M-12,-189 L422,-189 L422,34 L-12,34 L-12,-189 z"/></clipPath></defs><g clip-path="url(#clip238)" fill="#ffffff" fill-opacity="1" opacity="1" stroke="none" stroke-opacity="0" transform="matrix(1,0,0,1,12,189)"><path d="M0,0 L30,0 L30,32 L0,32 L0,0 z" fill-rule="evenodd" vector-effect="none"/></g><defs><clipPath id="clip242"><path d="M-15,-16 L15,-16 L15,16 L-15,16 L-15,-16 z"/></clipPath></defs><g clip-path="url(#clip242)" fill="none" opacity="1" stroke="#000000" stroke-linecap="butt" stroke-linejoin="miter" stroke-miterlimit="2" stroke-opacity="1" stroke-width="1" transform="matrix(1,0,0,1,27,205)"><text fill="#000000" fill-opacity="1" font-family="Arial" font-size="10" font-style="normal" font-weight="400" stroke="none" textLength="5.54688" x="-2.76562" xml:space="preserve" y="3.5">0</text></g><defs><clipPath id="clip247"><path d="M-12.5,-189.5 L421.5,-189.5 L421.5,33.5 L-12.5,33.5 L-12.5,-189.5 z"/></clipPath></defs><g clip-path="url(#clip247)" fill="none" opacity="1" stroke="#000000" stroke-linecap="butt" stroke-linejoin="miter" stroke-miterlimit="2" stroke-opacity="1" stroke-width="1" transform="matrix(1,0,0,1,12.5,189.5)"><path d="M0,0 L30,0 L30,32 L0,32 L0,0 z" fill-rule="evenodd" vector-effect="none"/></g><defs><clipPath id="clip250"><path d="M-192,-60 L242,-60 L242,163 L-192,163 L-192,-60 z"/></clipPath></defs><g clip-path="url(#clip250)" fill="#000000" fill-opacity="1" opacity="1" stroke="none" stroke-opacity="0" transform="matrix(1,0,0,1,192,60)"><path d="M0,0 L-8,-4 L-8,4 L0,0 z" fill-rule="nonzero" vector-effect="none"/></g><defs><clipPath id="clip253"><path d="M38,35 L472,35 L472,258 L38,258 L38,35 z"/></clipPath></defs><g clip-path="url(#clip253)" fill="none" opacity="1" stroke="#000000" stroke-linecap="butt" stroke-linejoin="miter" stroke-miterlimit="2" stroke-opacity="1" stroke-width="1" transform="matrix(1,0,0,1,-38,-35)"><path d="M75,95 L222,95" fill-rule="evenodd" vector-effect="none"/></g><defs><clipPath id="clip256"><path d="M-322,-60 L112,-60 L112,163 L-322,163 L-322,-60 z"/></clipPath></defs><g clip-path="url(#clip256)" fill="#000000" fill-opacity="1" opacity="1" stroke="none" stroke-opacity="0" transform="matrix(1,0,0,1,322,60)"><path d="M0,0 L-8,-4 L-8,4 L0,0 z" fill-rule="nonzero" vector-effect="none"/></g><defs><clipPath id="clip259"><path d="M38,35 L472,35 L472,258 L38,258 L38,35 z"/></clipPath></defs><g clip-path="url(#clip259)" fill="none" opacity="1" stroke="#000000" stroke-linecap="butt" stroke-linejoin="miter" stroke-miterlimit="2" stroke-opacity="1" stroke-width="1" transform="matrix(1,0,0,1,-38,-35)"><path d="M260,95 L352,95" fill-rule="evenodd" vector-effect="none"/></g><defs><clipPath id="clip262"><path d="M75,-337 L75,97 L-148,97 L-148,-337 L75,-337 z"/></clipPath></defs><g clip-path="url(#clip262)" fill="#000000" fill-opacity="1" opacity="1" stroke="none" stroke-opacity="0" transform="matrix(6.12323e-17,-1,1,6.12323e-17,337,75)"><path d="M0,0 L-8,-4 L-8,4 L0,0 z" fill-rule="nonzero" vector-effect="none"/></g><defs><clipPath id="clip265"><path d="M38,35 L472,35 L472,258 L38,258 L38,35 z"/></clipPath></defs><g clip-path="url(#clip265)" fill="none" opacity="1" stroke="#000000" stroke-linecap="butt" stroke-linejoin="miter" stroke-miterlimit="2" stroke-opacity="1" stroke-width="1" transform="matrix(1,0,0,1,-38,-35)"><path d="M350,145 L375,145 L375,118" fill-rule="evenodd" vector-effect="none"/></g><defs><clipPath id="clip268"><path d="M38,35 L472,35 L472,258 L38,258 L38,35 z"/></clipPath></defs><g clip-path="url(#clip268)" fill="none" opacity="1" stroke="#000000" stroke-linecap="butt" stroke-linejoin="miter" stroke-miterlimit="2" stroke-opacity="1" stroke-width="1" transform="matrix(1,0,0,1,-38,-35)"><path d="M390,95 L416,95" fill-rule="evenodd" vector-effect="none"/></g><defs><clipPath id="clip273"><path d="M-407,-60 L27,-60 L27,163 L-407,163 L-407,-60 z"/></clipPath></defs><g clip-path="url(#clip273)" fill="#000000" fill-opacity="1" opacity="1" stroke="none" stroke-opacity="0" transform="matrix(1,0,0,1,407,60)"><path d="M0,0 L-8,-4 L-8,4 L0,0 z" fill-rule="nonzero" vector-effect="none"/></g><defs><clipPath id="clip276"><path d="M38,35 L472,35 L472,258 L38,258 L38,35 z"/></clipPath></defs><g clip-path="url(#clip276)" fill="none" opacity="1" stroke="#000000" stroke-linecap="butt" stroke-linejoin="miter" stroke-miterlimit="2" stroke-opacity="1" stroke-width="1" transform="matrix(1,0,0,1,-38,-35)"><path d="M416,95 L437,95" fill-rule="evenodd" vector-effect="none"/></g><defs><clipPath id="clip279"><path d="M-407,-15 L27,-15 L27,208 L-407,208 L-407,-15 z"/></clipPath></defs><g clip-path="url(#clip279)" fill="#000000" fill-opacity="1" opacity="1" stroke="none" stroke-opacity="0" transform="matrix(1,0,0,1,407,15)"><path d="M0,0 L-8,-4 L-8,4 L0,0 z" fill-rule="nonzero" vector-effect="none"/></g><defs><clipPath id="clip282"><path d="M38,35 L472,35 L472,258 L38,258 L38,35 z"/></clipPath></defs><g clip-path="url(#clip282)" fill="none" opacity="1" stroke="#000000" stroke-linecap="butt" stroke-linejoin="miter" stroke-miterlimit="2" stroke-opacity="1" stroke-width="1" transform="matrix(1,0,0,1,-38,-35)"><path d="M416,95 L416,50 L437,50" fill-rule="evenodd" vector-effect="none"/></g><defs><clipPath id="clip285"><path d="M-378,-60 L56,-60 L56,163 L-378,163 L-378,-60 z"/></clipPath></defs><g clip-path="url(#clip285)" fill="#000000" fill-opacity="1" opacity="1" stroke="none" stroke-opacity="0" transform="matrix(1,0,0,1,378,60)"><path d="M2.5,0 C2.5,1.38071 1.38071,2.5 0,2.5 C-1.38071,2.5 -2.5,1.38071 -2.5,0 C-2.5,-1.38071 -1.38071,-2.5 0,-2.5 C1.38071,-2.5 2.5,-1.38071 2.5,0 z" fill-rule="evenodd" vector-effect="none"/></g><defs><clipPath id="clip288"><path d="M-112,-130 L322,-130 L322,93 L-112,93 L-112,-130 z"/></clipPath></defs><g clip-path="url(#clip288)" fill="#000000" fill-opacity="1" opacity="1" stroke="none" stroke-opacity="0" transform="matrix(1,0,0,1,112,130)"><path d="M0,0 L-8,-4 L-8,4 L0,0 z" fill-rule="nonzero" vector-effect="none"/></g><defs><clipPath id="clip291"><path d="M38,35 L472,35 L472,258 L38,258 L38,35 z"/></clipPath></defs><g clip-path="url(#clip291)" fill="none" opacity="1" stroke="#000000" stroke-linecap="butt" stroke-linejoin="miter" stroke-miterlimit="2" stroke-opacity="1" stroke-width="1" transform="matrix(1,0,0,1,-38,-35)"><path d="M95,195 L113,195 L113,165 L142,165" fill-rule="evenodd" vector-effect="none"/></g><defs><clipPath id="clip294"><path d="M-112,-145 L322,-145 L322,78 L-112,78 L-112,-145 z"/></clipPath></defs><g clip-path="url(#clip294)" fill="#000000" fill-opacity="1" opacity="1" stroke="none" stroke-opacity="0" transform="matrix(1,0,0,1,112,145)"><path d="M0,0 L-8,-4 L-8,4 L0,0 z" fill-rule="nonzero" vector-effect="none"/></g><defs><clipPath id="clip297"><path d="M38,35 L472,35 L472,258 L38,258 L38,35 z"/></clipPath></defs><g clip-path="url(#clip297)" fill="none" opacity="1" stroke="#000000" stroke-linecap="butt" stroke-linejoin="miter" stroke-miterlimit="2" stroke-opacity="1" stroke-width="1" transform="matrix(1,0,0,1,-38,-35)"><path d="M80,240 L125,240 L125,180 L142,180" fill-rule="evenodd" vector-effect="none"/></g><defs><clipPath id="clip300"><path d="M-112,-115 L322,-115 L322,108 L-112,108 L-112,-115 z"/></clipPath></defs><g clip-path="url(#clip300)" fill="#000000" fill-opacity="1" opacity="1" stroke="none" stroke-opacity="0" transform="matrix(1,0,0,1,112,115)"><path d="M0,0 L-8,-4 L-8,4 L0,0 z" fill-rule="nonzero" vector-effect="none"/></g><defs><clipPath id="clip303"><path d="M38,35 L472,35 L472,258 L38,258 L38,35 z"/></clipPath></defs><g clip-path="url(#clip303)" fill="none" opacity="1" stroke="#000000" stroke-linecap="butt" stroke-linejoin="miter" stroke-miterlimit="2" stroke-opacity="1" stroke-width="1" transform="matrix(1,0,0,1,-38,-35)"><path d="M80,150 L142,150" fill-rule="evenodd" vector-effect="none"/></g><defs><clipPath id="clip306"><path d="M75,-207 L75,227 L-148,227 L-148,-207 L75,-207 z"/></clipPath></defs><g clip-path="url(#clip306)" fill="#000000" fill-opacity="1" opacity="1" stroke="none" stroke-opacity="0" transform="matrix(6.12323e-17,-1,1,6.12323e-17,207,75)"><path d="M0,0 L-8,-4 L-8,4 L0,0 z" fill-rule="nonzero" vector-effect="none"/></g><defs><clipPath id="clip309"><path d="M38,35 L472,35 L472,258 L38,258 L38,35 z"/></clipPath></defs><g clip-path="url(#clip309)" fill="none" opacity="1" stroke="#000000" stroke-linecap="butt" stroke-linejoin="miter" stroke-miterlimit="2" stroke-opacity="1" stroke-width="1" transform="matrix(1,0,0,1,-38,-35)"><path d="M200,165 L245,165 L245,118" fill-rule="evenodd" vector-effect="none"/></g></g></svg>
