<?xml version="1.0" encoding="UTF-8"?><svg width="192.352mm" height="88.6354mm" viewBox="0 0 727 335" xmlns="http://www.w3.org/2000/svg" xmlns:xlink="http://www.w3.org/1999/xlink"><g fill="none" stroke="black" stroke-width="1" fill-rule="evenodd" stroke-linecap="square" stroke-linejoin="bevel"><g clip-path="none" fill="#ffffff" fill-opacity="1" opacity="1" stroke="none" stroke-opacity="0" transform="matrix(1,0,0,1,0,0)"><path d="M0,0 L727.445,0 L727.445,335 L0,335 L0,0 z" fill-rule="evenodd" vector-effect="none"/></g><defs><clipPath id="clip3"><path d="M-374.547,-108 L352.898,-108 L352.898,227 L-374.547,227 L-374.547,-108 z"/></clipPath></defs><g clip-path="url(#clip3)" fill="#ffffff" fill-opacity="1" opacity="1" stroke="none" stroke-opacity="0" transform="matrix(1,0,0,1,374.547,108)"><path d="M-6.54688,-7 L6.54688,-7 L6.54688,7 L-6.54688,7 L-6.54688,-7 z" fill-rule="evenodd" vector-effect="none"/></g><defs><clipPath id="clip8"><path d="M-5,-5 L18,-5 L18,19 L-5,19 L-5,-5 z"/></clipPath></defs><g clip-path="url(#clip8)" fill="none" opacity="1" stroke="none" stroke-opacity="0" transform="matrix(1,0,0,1,368,101)"><path d="M1,1 L12.0938,1 L12.0938,13 L1,13 L1,1 z" fill-rule="evenodd" vector-effect="none"/></g><defs><clipPath id="clip9"><path d="M-5,-5 L18,-5 L18,19 L-5,19 L-5,-5 z"/></clipPath></defs><g clip-path="url(#clip9)" fill="#ffffff" fill-opacity="1" opacity="1" stroke="#000000" stroke-linecap="square" stroke-linejoin="bevel" stroke-opacity="1" stroke-width="1" transform="matrix(1,0,0,1,368,101)"><text fill="#000000" fill-opacity="1" font-family="Arial" font-size="10" font-style="normal" font-weight="400" stroke="none" textLength="11.0938" x="1" xml:space="preserve" y="10">e0</text></g><defs><clipPath id="clip17"><path d="M-415,-56 L312.445,-56 L312.445,279 L-415,279 L-415,-56 z"/></clipPath></defs><g clip-path="url(#clip17)" fill="#e8d152" fill-opacity="1" opacity="1" stroke="none" stroke-opacity="0" transform="matrix(1,0,0,1,415,56)"><path d="M0,0 L25,0 L25,26 L0,26 L0,0 z" fill-rule="evenodd" vector-effect="none"/></g><defs><clipPath id="clip21"><path d="M0,0 L25,0 L25,26 L0,26 L0,0 z"/></clipPath></defs><g clip-path="url(#clip21)" fill="none" opacity="1" stroke="none" stroke-opacity="0" transform="matrix(1,0,0,1,415,56)"><path d="M0,0 L25,0 L25,26 L0,26 L0,0 z" fill-rule="evenodd" vector-effect="none"/></g><defs><clipPath id="clip32"><path d="M-6,-5 L11,-5 L11,9 L-6,9 L-6,-5 z"/></clipPath></defs><g clip-path="url(#clip32)" fill="#000000" fill-opacity="1" opacity="1" stroke="none" stroke-opacity="0" transform="matrix(1,0,0,1,425.445,66.5)"><path d="M1.5,3 L-3.14062,3 L-3.14062,3.04688 C-3.14062,3.89062 -2.98177,4.52604 -2.66406,4.95312 C-2.34635,5.38021 -1.88021,5.59375 -1.26562,5.59375 C-0.796875,5.59375 -0.411458,5.46875 -0.109375,5.21875 C0.192708,4.96875 0.40625,4.59896 0.53125,4.10938 L1.40625,4.10938 C1.22917,4.79688 0.908854,5.3125 0.445312,5.65625 C-0.0182292,6 -0.625,6.17188 -1.375,6.17188 C-2.29167,6.17188 -3.02604,5.8724 -3.57812,5.27344 C-4.13021,4.67448 -4.40625,3.875 -4.40625,2.875 C-4.40625,1.89583 -4.13281,1.10417 -3.58594,0.5 C-3.03906,-0.104167 -2.32812,-0.40625 -1.45312,-0.40625 C-0.505208,-0.40625 0.21875,-0.114583 0.71875,0.46875 C1.21875,1.05208 1.47917,1.89583 1.5,3 M0.234375,2.375 C0.213542,1.64583 0.0598958,1.09896 -0.226562,0.734375 C-0.513021,0.369792 -0.921875,0.1875 -1.45312,0.1875 C-1.94271,0.1875 -2.33073,0.372396 -2.61719,0.742188 C-2.90365,1.11198 -3.07812,1.65625 -3.14062,2.375 L0.234375,2.375 M5.90625,5.59375 C6.51042,5.59375 6.96094,5.26562 7.25781,4.60938 C7.55469,3.95312 7.70312,2.96354 7.70312,1.64062 C7.70312,0.307292 7.55469,-0.6875 7.25781,-1.34375 C6.96094,-2 6.51042,-2.32812 5.90625,-2.32812 C5.3125,-2.32812 4.86719,-2 4.57031,-1.34375 C4.27344,-0.6875 4.125,0.307292 4.125,1.64062 C4.125,2.96354 4.27344,3.95312 4.57031,4.60938 C4.86719,5.26562 5.3125,5.59375 5.90625,5.59375 M5.90625,6.17188 C4.95833,6.17188 4.21875,5.77344 3.6875,4.97656 C3.15625,4.17969 2.89062,3.06771 2.89062,1.64062 C2.89062,0.203125 3.15625,-0.914062 3.6875,-1.71094 C4.21875,-2.50781 4.95833,-2.90625 5.90625,-2.90625 C6.86458,-2.90625 7.60938,-2.50781 8.14062,-1.71094 C8.67188,-0.914062 8.9375,0.203125 8.9375,1.64062 C8.9375,3.06771 8.67188,4.17969 8.14062,4.97656 C7.60938,5.77344 6.86458,6.17188 5.90625,6.17188" fill-rule="nonzero" vector-effect="none"/></g><defs><clipPath id="clip55"><path d="M-415.5,-56.5 L311.945,-56.5 L311.945,278.5 L-415.5,278.5 L-415.5,-56.5 z"/></clipPath></defs><g clip-path="url(#clip55)" fill="none" opacity="1" stroke="#000000" stroke-linecap="butt" stroke-linejoin="miter" stroke-miterlimit="2" stroke-opacity="1" stroke-width="1" transform="matrix(1,0,0,1,415.5,56.5)"><path d="M0,0 L25,0 L25,26 L0,26 L0,0 z" fill-rule="evenodd" vector-effect="none"/></g><defs><clipPath id="clip58"><path d="M-135,-99 L592.445,-99 L592.445,236 L-135,236 L-135,-99 z"/></clipPath></defs><g clip-path="url(#clip58)" fill="#ffffff" fill-opacity="1" opacity="1" stroke="none" stroke-opacity="0" transform="matrix(1,0,0,1,135,99)"><path d="M30,15 C30,23.2843 23.2843,30 15,30 C6.71573,30 0,23.2843 0,15 C0,6.71573 6.71573,0 15,0 C23.2843,0 30,6.71573 30,15 z" fill-rule="nonzero" vector-effect="none"/></g><defs><clipPath id="clip62"><path d="M155,120 L185,120 L185,150 L155,150 L155,120 z"/></clipPath></defs><g clip-path="url(#clip62)" fill="none" opacity="1" stroke="#000000" stroke-linecap="butt" stroke-linejoin="miter" stroke-miterlimit="2" stroke-opacity="1" stroke-width="1" transform="matrix(1,0,0,1,-19.5,-20.5)"><polyline fill="none" points="158,135 162,135" vector-effect="none"/></g><defs><clipPath id="clip63"><path d="M155,120 L185,120 L185,150 L155,150 L155,120 z"/></clipPath></defs><g clip-path="url(#clip63)" fill="none" opacity="1" stroke="#000000" stroke-linecap="butt" stroke-linejoin="miter" stroke-miterlimit="2" stroke-opacity="1" stroke-width="1" transform="matrix(1,0,0,1,-19.5,-20.5)"><polyline fill="none" points="160,133 160,137" vector-effect="none"/></g><defs><clipPath id="clip64"><path d="M155,120 L185,120 L185,150 L155,150 L155,120 z"/></clipPath></defs><g clip-path="url(#clip64)" fill="none" opacity="1" stroke="#000000" stroke-linecap="butt" stroke-linejoin="miter" stroke-miterlimit="2" stroke-opacity="1" stroke-width="1" transform="matrix(1,0,0,1,-19.5,-20.5)"><polyline fill="none" points="168,145 172,145" vector-effect="none"/></g><defs><clipPath id="clip65"><path d="M155,120 L185,120 L185,150 L155,150 L155,120 z"/></clipPath></defs><g clip-path="url(#clip65)" fill="none" opacity="1" stroke="#000000" stroke-linecap="butt" stroke-linejoin="miter" stroke-miterlimit="2" stroke-opacity="1" stroke-width="1" transform="matrix(1,0,0,1,-19.5,-20.5)"><polyline fill="none" points="170,143 170,147" vector-effect="none"/></g><defs><clipPath id="clip70"><path d="M-135.5,-99.5 L591.945,-99.5 L591.945,235.5 L-135.5,235.5 L-135.5,-99.5 z"/></clipPath></defs><g clip-path="url(#clip70)" fill="none" opacity="1" stroke="#000000" stroke-linecap="butt" stroke-linejoin="miter" stroke-miterlimit="2" stroke-opacity="1" stroke-width="1" transform="matrix(1,0,0,1,135.5,99.5)"><path d="M30,15 C30,23.2843 23.2843,30 15,30 C6.71573,30 0,23.2843 0,15 C0,6.71573 6.71573,0 15,0 C23.2843,0 30,6.71573 30,15 z" fill-rule="nonzero" vector-effect="none"/></g><defs><clipPath id="clip73"><path d="M-330,-99 L397.445,-99 L397.445,236 L-330,236 L-330,-99 z"/></clipPath></defs><g clip-path="url(#clip73)" fill="#ffffff" fill-opacity="1" opacity="1" stroke="none" stroke-opacity="0" transform="matrix(1,0,0,1,330,99)"><path d="M30,15 C30,23.2843 23.2843,30 15,30 C6.71573,30 0,23.2843 0,15 C0,6.71573 6.71573,0 15,0 C23.2843,0 30,6.71573 30,15 z" fill-rule="nonzero" vector-effect="none"/></g><defs><clipPath id="clip77"><path d="M350,120 L380,120 L380,150 L350,150 L350,120 z"/></clipPath></defs><g clip-path="url(#clip77)" fill="none" opacity="1" stroke="#000000" stroke-linecap="butt" stroke-linejoin="miter" stroke-miterlimit="2" stroke-opacity="1" stroke-width="1" transform="matrix(1,0,0,1,-19.5,-20.5)"><polyline fill="none" points="363,125 367,125" vector-effect="none"/></g><defs><clipPath id="clip78"><path d="M350,120 L380,120 L380,150 L350,150 L350,120 z"/></clipPath></defs><g clip-path="url(#clip78)" fill="none" opacity="1" stroke="#000000" stroke-linecap="butt" stroke-linejoin="miter" stroke-miterlimit="2" stroke-opacity="1" stroke-width="1" transform="matrix(1,0,0,1,-19.5,-20.5)"><polyline fill="none" points="353,135 357,135" vector-effect="none"/></g><defs><clipPath id="clip79"><path d="M350,120 L380,120 L380,150 L350,150 L350,120 z"/></clipPath></defs><g clip-path="url(#clip79)" fill="none" opacity="1" stroke="#000000" stroke-linecap="butt" stroke-linejoin="miter" stroke-miterlimit="2" stroke-opacity="1" stroke-width="1" transform="matrix(1,0,0,1,-19.5,-20.5)"><polyline fill="none" points="355,133 355,137" vector-effect="none"/></g><defs><clipPath id="clip84"><path d="M-330.5,-99.5 L396.945,-99.5 L396.945,235.5 L-330.5,235.5 L-330.5,-99.5 z"/></clipPath></defs><g clip-path="url(#clip84)" fill="none" opacity="1" stroke="#000000" stroke-linecap="butt" stroke-linejoin="miter" stroke-miterlimit="2" stroke-opacity="1" stroke-width="1" transform="matrix(1,0,0,1,330.5,99.5)"><path d="M30,15 C30,23.2843 23.2843,30 15,30 C6.71573,30 0,23.2843 0,15 C0,6.71573 6.71573,0 15,0 C23.2843,0 30,6.71573 30,15 z" fill-rule="nonzero" vector-effect="none"/></g><defs><clipPath id="clip87"><path d="M-415,-99 L312.445,-99 L312.445,236 L-415,236 L-415,-99 z"/></clipPath></defs><g clip-path="url(#clip87)" fill="#ffffff" fill-opacity="1" opacity="1" stroke="none" stroke-opacity="0" transform="matrix(1,0,0,1,415,99)"><path d="M0,0 L30,0 L30,30 L0,30 L0,0 z" fill-rule="evenodd" vector-effect="none"/></g><defs><clipPath id="clip91"><path d="M435,120 L465,120 L465,150 L435,150 L435,120 z"/></clipPath></defs><g clip-path="url(#clip91)" fill="none" opacity="1" stroke="#000000" stroke-linecap="butt" stroke-linejoin="miter" stroke-miterlimit="2" stroke-opacity="1" stroke-width="1" transform="matrix(1,0,0,1,-19.5,-20.5)"><polyline fill="none" points="439,124 461,124 461,135 439,135 439,124" vector-effect="none"/></g><defs><clipPath id="clip96"><path d="M-415.5,-99.5 L311.945,-99.5 L311.945,235.5 L-415.5,235.5 L-415.5,-99.5 z"/></clipPath></defs><g clip-path="url(#clip96)" fill="none" opacity="1" stroke="#000000" stroke-linecap="butt" stroke-linejoin="miter" stroke-miterlimit="2" stroke-opacity="1" stroke-width="1" transform="matrix(1,0,0,1,415.5,99.5)"><path d="M0,0 L30,0 L30,30 L0,30 L0,0 z" fill-rule="evenodd" vector-effect="none"/></g><defs><clipPath id="clip99"><path d="M-10,-2 L717.445,-2 L717.445,333 L-10,333 L-10,-2 z"/></clipPath></defs><g clip-path="url(#clip99)" fill="#ff8000" fill-opacity="1" opacity="1" stroke="none" stroke-opacity="0" transform="matrix(1,0,0,1,10,2)"><path d="M0,0 L60,0 L60,54 L0,54 L0,0 z" fill-rule="evenodd" vector-effect="none"/></g><defs><clipPath id="clip103"><path d="M-57,-27 L3,-27 L3,27 L-57,27 L-57,-27 z"/></clipPath></defs><g clip-path="url(#clip103)" fill="none" opacity="1" stroke="#000000" stroke-linecap="butt" stroke-linejoin="miter" stroke-miterlimit="2" stroke-opacity="1" stroke-width="1" transform="matrix(1,0,0,1,67,29)"><text fill="#000000" fill-opacity="1" font-family="Arial" font-size="9" font-style="normal" font-weight="400" stroke="none" textLength="2.98438" x="-2.98438" xml:space="preserve" y="3">r</text></g><defs><clipPath id="clip108"><path d="M-10.5,-2.5 L716.945,-2.5 L716.945,332.5 L-10.5,332.5 L-10.5,-2.5 z"/></clipPath></defs><g clip-path="url(#clip108)" fill="none" opacity="1" stroke="#000000" stroke-linecap="butt" stroke-linejoin="miter" stroke-miterlimit="2" stroke-opacity="1" stroke-width="1" transform="matrix(1,0,0,1,10.5,2.5)"><path d="M0,0 L60,0 L60,54 L0,54 L0,0 z" fill-rule="evenodd" vector-effect="none"/></g><defs><clipPath id="clip111"><path d="M-40.4453,-58 L687,-58 L687,277 L-40.4453,277 L-40.4453,-58 z"/></clipPath></defs><g clip-path="url(#clip111)" fill="none" opacity="1" stroke="none" stroke-opacity="0" transform="matrix(1,0,0,1,40.4453,58)"><path d="M-38.4453,0 L38.4453,0 L38.4453,14 L-38.4453,14 L-38.4453,0 z" fill-rule="evenodd" vector-effect="none"/></g><defs><clipPath id="clip115"><path d="M0,0 L77,0 L77,14 L0,14 L0,0 z"/></clipPath></defs><g clip-path="url(#clip115)" fill="none" opacity="1" stroke="#000000" stroke-linecap="square" stroke-linejoin="bevel" stroke-opacity="1" stroke-width="1" transform="matrix(1,0,0,1,2,58)"><text fill="#000000" fill-opacity="1" font-family="Arial" font-size="10" font-style="normal" font-weight="400" stroke="none" textLength="74.8906" x="1" xml:space="preserve" y="10">Reference signal</text></g><defs><clipPath id="clip123"><path d="M-210,-295 L517.445,-295 L517.445,40 L-210,40 L-210,-295 z"/></clipPath></defs><g clip-path="url(#clip123)" fill="#ffffff" fill-opacity="1" opacity="1" stroke="none" stroke-opacity="0" transform="matrix(1,0,0,1,210,295)"><path d="M0,0 L40,0 L40,38 L0,38 L0,0 z" fill-rule="evenodd" vector-effect="none"/></g><defs><clipPath id="clip127"><path d="M230,316 L270,316 L270,354 L230,354 L230,316 z"/></clipPath></defs><g clip-path="url(#clip127)" fill="none" opacity="1" stroke="#000000" stroke-linecap="butt" stroke-linejoin="miter" stroke-miterlimit="2" stroke-opacity="1" stroke-width="1" transform="matrix(1,0,0,1,-19.5,-20.5)"><polyline fill="none" points="253,338 247,332" vector-effect="none"/></g><defs><clipPath id="clip128"><path d="M230,316 L270,316 L270,354 L230,354 L230,316 z"/></clipPath></defs><g clip-path="url(#clip128)" fill="none" opacity="1" stroke="#000000" stroke-linecap="butt" stroke-linejoin="miter" stroke-miterlimit="2" stroke-opacity="1" stroke-width="1" transform="matrix(1,0,0,1,-19.5,-20.5)"><polyline fill="none" points="253,332 247,338" vector-effect="none"/></g><defs><clipPath id="clip133"><path d="M-210.5,-295.5 L516.945,-295.5 L516.945,39.5 L-210.5,39.5 L-210.5,-295.5 z"/></clipPath></defs><g clip-path="url(#clip133)" fill="none" opacity="1" stroke="#000000" stroke-linecap="butt" stroke-linejoin="miter" stroke-miterlimit="2" stroke-opacity="1" stroke-width="1" transform="matrix(1,0,0,1,210.5,295.5)"><path d="M0,0 L40,0 L40,38 L0,38 L0,0 z" fill-rule="evenodd" vector-effect="none"/></g><defs><clipPath id="clip136"><path d="M-360,-196 L367.445,-196 L367.445,139 L-360,139 L-360,-196 z"/></clipPath></defs><g clip-path="url(#clip136)" fill="#80ff80" fill-opacity="1" opacity="1" stroke="none" stroke-opacity="0" transform="matrix(1,0,0,1,360,196)"><path d="M0,0 L75,0 L75,76 L0,76 L0,0 z" fill-rule="evenodd" vector-effect="none"/></g><defs><clipPath id="clip140"><path d="M-3,-18 L72,-18 L72,58 L-3,58 L-3,-18 z"/></clipPath></defs><g clip-path="url(#clip140)" fill="none" opacity="1" stroke="#000000" stroke-linecap="butt" stroke-linejoin="miter" stroke-miterlimit="2" stroke-opacity="1" stroke-width="1" transform="matrix(1,0,0,1,363,214)"><text fill="#000000" fill-opacity="1" font-family="Arial" font-size="9" font-style="normal" font-weight="400" stroke="none" textLength="9.5" x="0" xml:space="preserve" y="3">yp</text></g><defs><clipPath id="clip141"><path d="M-3,-58 L72,-58 L72,18 L-3,18 L-3,-58 z"/></clipPath></defs><g clip-path="url(#clip141)" fill="none" opacity="1" stroke="#000000" stroke-linecap="butt" stroke-linejoin="miter" stroke-miterlimit="2" stroke-opacity="1" stroke-width="1" transform="matrix(1,0,0,1,363,254)"><text fill="#000000" fill-opacity="1" font-family="Arial" font-size="9" font-style="normal" font-weight="400" stroke="none" textLength="5" x="0" xml:space="preserve" y="3">u</text></g><defs><clipPath id="clip142"><path d="M-72,-38 L3,-38 L3,38 L-72,38 L-72,-38 z"/></clipPath></defs><g clip-path="url(#clip142)" fill="none" opacity="1" stroke="#000000" stroke-linecap="butt" stroke-linejoin="miter" stroke-miterlimit="2" stroke-opacity="1" stroke-width="1" transform="matrix(1,0,0,1,432,234)"><text fill="#000000" fill-opacity="1" font-family="Arial" font-size="9" font-style="normal" font-weight="400" stroke="none" textLength="17" x="-17" xml:space="preserve" y="3">yhat</text></g><defs><clipPath id="clip147"><path d="M-360.5,-196.5 L366.945,-196.5 L366.945,138.5 L-360.5,138.5 L-360.5,-196.5 z"/></clipPath></defs><g clip-path="url(#clip147)" fill="none" opacity="1" stroke="#000000" stroke-linecap="butt" stroke-linejoin="miter" stroke-miterlimit="2" stroke-opacity="1" stroke-width="1" transform="matrix(1,0,0,1,360.5,196.5)"><path d="M0,0 L75,0 L75,76 L0,76 L0,0 z" fill-rule="evenodd" vector-effect="none"/></g><defs><clipPath id="clip150"><path d="M-397.945,-274 L329.5,-274 L329.5,61 L-397.945,61 L-397.945,-274 z"/></clipPath></defs><g clip-path="url(#clip150)" fill="none" opacity="1" stroke="none" stroke-opacity="0" transform="matrix(1,0,0,1,397.945,274)"><path d="M-23.1875,0 L23.1875,0 L23.1875,14 L-23.1875,14 L-23.1875,0 z" fill-rule="evenodd" vector-effect="none"/></g><defs><clipPath id="clip154"><path d="M0,0 L46,0 L46,14 L0,14 L0,0 z"/></clipPath></defs><g clip-path="url(#clip154)" fill="none" opacity="1" stroke="#000000" stroke-linecap="square" stroke-linejoin="bevel" stroke-opacity="1" stroke-width="1" transform="matrix(1,0,0,1,374.758,274)"><text fill="#000000" fill-opacity="1" font-family="Arial" font-size="10" font-style="normal" font-weight="400" stroke="none" textLength="44.375" x="1" xml:space="preserve" y="10">Prediction</text></g><defs><clipPath id="clip162"><path d="M-210,-88 L517.445,-88 L517.445,247 L-210,247 L-210,-88 z"/></clipPath></defs><g clip-path="url(#clip162)" fill="#c0c0c0" fill-opacity="1" opacity="1" stroke="none" stroke-opacity="0" transform="matrix(1,0,0,1,210,88)"><path d="M0,0 L55,0 L55,52 L0,52 L0,0 z" fill-rule="evenodd" vector-effect="none"/></g><defs><clipPath id="clip166"><path d="M-3,-26 L52,-26 L52,26 L-3,26 L-3,-26 z"/></clipPath></defs><g clip-path="url(#clip166)" fill="none" opacity="1" stroke="#000000" stroke-linecap="butt" stroke-linejoin="miter" stroke-miterlimit="2" stroke-opacity="1" stroke-width="1" transform="matrix(1,0,0,1,213,114)"><text fill="#000000" fill-opacity="1" font-family="Arial" font-size="9" font-style="normal" font-weight="400" stroke="none" textLength="5" x="0" xml:space="preserve" y="3">u</text></g><defs><clipPath id="clip167"><path d="M-52,-26 L3,-26 L3,26 L-52,26 L-52,-26 z"/></clipPath></defs><g clip-path="url(#clip167)" fill="none" opacity="1" stroke="#000000" stroke-linecap="butt" stroke-linejoin="miter" stroke-miterlimit="2" stroke-opacity="1" stroke-width="1" transform="matrix(1,0,0,1,262,114)"><text fill="#000000" fill-opacity="1" font-family="Arial" font-size="9" font-style="normal" font-weight="400" stroke="none" textLength="9.5" x="-9.5" xml:space="preserve" y="3">yp</text></g><defs><clipPath id="clip172"><path d="M-210.5,-88.5 L516.945,-88.5 L516.945,246.5 L-210.5,246.5 L-210.5,-88.5 z"/></clipPath></defs><g clip-path="url(#clip172)" fill="none" opacity="1" stroke="#000000" stroke-linecap="butt" stroke-linejoin="miter" stroke-miterlimit="2" stroke-opacity="1" stroke-width="1" transform="matrix(1,0,0,1,210.5,88.5)"><path d="M0,0 L55,0 L55,52 L0,52 L0,0 z" fill-rule="evenodd" vector-effect="none"/></g><defs><clipPath id="clip175"><path d="M-237.945,-142 L489.5,-142 L489.5,193 L-237.945,193 L-237.945,-142 z"/></clipPath></defs><g clip-path="url(#clip175)" fill="none" opacity="1" stroke="none" stroke-opacity="0" transform="matrix(1,0,0,1,237.945,142)"><path d="M-12.3672,0 L12.3672,0 L12.3672,14 L-12.3672,14 L-12.3672,0 z" fill-rule="evenodd" vector-effect="none"/></g><defs><clipPath id="clip179"><path d="M0,0 L25,0 L25,14 L0,14 L0,0 z"/></clipPath></defs><g clip-path="url(#clip179)" fill="none" opacity="1" stroke="#000000" stroke-linecap="square" stroke-linejoin="bevel" stroke-opacity="1" stroke-width="1" transform="matrix(1,0,0,1,225.578,142)"><text fill="#000000" fill-opacity="1" font-family="Arial" font-size="10" font-style="normal" font-weight="400" stroke="none" textLength="22.7344" x="1" xml:space="preserve" y="10">Plant</text></g><defs><clipPath id="clip187"><path d="M-210,-3 L517.445,-3 L517.445,332 L-210,332 L-210,-3 z"/></clipPath></defs><g clip-path="url(#clip187)" fill="#00d100" fill-opacity="1" opacity="1" stroke="none" stroke-opacity="0" transform="matrix(1,0,0,1,210,3)"><path d="M0,0 L55,0 L55,52 L0,52 L0,0 z" fill-rule="evenodd" vector-effect="none"/></g><defs><clipPath id="clip191"><path d="M-3,-26 L52,-26 L52,26 L-3,26 L-3,-26 z"/></clipPath></defs><g clip-path="url(#clip191)" fill="none" opacity="1" stroke="#000000" stroke-linecap="butt" stroke-linejoin="miter" stroke-miterlimit="2" stroke-opacity="1" stroke-width="1" transform="matrix(1,0,0,1,213,29)"><text fill="#000000" fill-opacity="1" font-family="Arial" font-size="9" font-style="normal" font-weight="400" stroke="none" textLength="2.98438" x="0" xml:space="preserve" y="3">r</text></g><defs><clipPath id="clip192"><path d="M-52,-26 L3,-26 L3,26 L-52,26 L-52,-26 z"/></clipPath></defs><g clip-path="url(#clip192)" fill="none" opacity="1" stroke="#000000" stroke-linecap="butt" stroke-linejoin="miter" stroke-miterlimit="2" stroke-opacity="1" stroke-width="1" transform="matrix(1,0,0,1,262,29)"><text fill="#000000" fill-opacity="1" font-family="Arial" font-size="9" font-style="normal" font-weight="400" stroke="none" textLength="11.9844" x="-11.9844" xml:space="preserve" y="3">ym</text></g><defs><clipPath id="clip197"><path d="M-210.5,-3.5 L516.945,-3.5 L516.945,331.5 L-210.5,331.5 L-210.5,-3.5 z"/></clipPath></defs><g clip-path="url(#clip197)" fill="none" opacity="1" stroke="#000000" stroke-linecap="butt" stroke-linejoin="miter" stroke-miterlimit="2" stroke-opacity="1" stroke-width="1" transform="matrix(1,0,0,1,210.5,3.5)"><path d="M0,0 L55,0 L55,52 L0,52 L0,0 z" fill-rule="evenodd" vector-effect="none"/></g><defs><clipPath id="clip200"><path d="M-237.945,-57 L489.5,-57 L489.5,278 L-237.945,278 L-237.945,-57 z"/></clipPath></defs><g clip-path="url(#clip200)" fill="none" opacity="1" stroke="none" stroke-opacity="0" transform="matrix(1,0,0,1,237.945,57)"><path d="M-14.5938,0 L14.5938,0 L14.5938,14 L-14.5938,14 L-14.5938,0 z" fill-rule="evenodd" vector-effect="none"/></g><defs><clipPath id="clip204"><path d="M0,0 L29,0 L29,14 L0,14 L0,0 z"/></clipPath></defs><g clip-path="url(#clip204)" fill="none" opacity="1" stroke="#000000" stroke-linecap="square" stroke-linejoin="bevel" stroke-opacity="1" stroke-width="1" transform="matrix(1,0,0,1,223.352,57)"><text fill="#000000" fill-opacity="1" font-family="Arial" font-size="10" font-style="normal" font-weight="400" stroke="none" textLength="27.1875" x="1" xml:space="preserve" y="10">Model</text></g><defs><clipPath id="clip212"><path d="M-620,-183 L107.445,-183 L107.445,152 L-620,152 L-620,-183 z"/></clipPath></defs><g clip-path="url(#clip212)" fill="#80ff80" fill-opacity="1" opacity="1" stroke="none" stroke-opacity="0" transform="matrix(1,0,0,1,620,183)"><path d="M0,0 L70,0 L70,62 L0,62 L0,0 z" fill-rule="evenodd" vector-effect="none"/></g><defs><clipPath id="clip216"><path d="M-3,-31 L67,-31 L67,31 L-3,31 L-3,-31 z"/></clipPath></defs><g clip-path="url(#clip216)" fill="none" opacity="1" stroke="#000000" stroke-linecap="butt" stroke-linejoin="miter" stroke-miterlimit="2" stroke-opacity="1" stroke-width="1" transform="matrix(1,0,0,1,623,214)"><text fill="#000000" fill-opacity="1" font-family="Arial" font-size="9" font-style="normal" font-weight="400" stroke="none" textLength="20" x="0" xml:space="preserve" y="3">theta</text></g><defs><clipPath id="clip217"><path d="M-67,-31 L3,-31 L3,31 L-67,31 L-67,-31 z"/></clipPath></defs><g clip-path="url(#clip217)" fill="none" opacity="1" stroke="#000000" stroke-linecap="butt" stroke-linejoin="miter" stroke-miterlimit="2" stroke-opacity="1" stroke-width="1" transform="matrix(1,0,0,1,687,214)"><text fill="#000000" fill-opacity="1" font-family="Arial" font-size="9" font-style="normal" font-weight="400" stroke="none" textLength="4.5" x="-4.5" xml:space="preserve" y="3">k</text></g><defs><clipPath id="clip222"><path d="M-620.5,-183.5 L106.945,-183.5 L106.945,151.5 L-620.5,151.5 L-620.5,-183.5 z"/></clipPath></defs><g clip-path="url(#clip222)" fill="none" opacity="1" stroke="#000000" stroke-linecap="butt" stroke-linejoin="miter" stroke-miterlimit="2" stroke-opacity="1" stroke-width="1" transform="matrix(1,0,0,1,620.5,183.5)"><path d="M0,0 L70,0 L70,62 L0,62 L0,0 z" fill-rule="evenodd" vector-effect="none"/></g><defs><clipPath id="clip225"><path d="M-655.445,-247 L72,-247 L72,88 L-655.445,88 L-655.445,-247 z"/></clipPath></defs><g clip-path="url(#clip225)" fill="none" opacity="1" stroke="none" stroke-opacity="0" transform="matrix(1,0,0,1,655.445,247)"><path d="M-16.5391,0 L16.5391,0 L16.5391,14 L-16.5391,14 L-16.5391,0 z" fill-rule="evenodd" vector-effect="none"/></g><defs><clipPath id="clip229"><path d="M0,0 L33,0 L33,14 L0,14 L0,0 z"/></clipPath></defs><g clip-path="url(#clip229)" fill="none" opacity="1" stroke="#000000" stroke-linecap="square" stroke-linejoin="bevel" stroke-opacity="1" stroke-width="1" transform="matrix(1,0,0,1,638.906,247)"><text fill="#000000" fill-opacity="1" font-family="Arial" font-size="10" font-style="normal" font-weight="400" stroke="none" textLength="31.0781" x="1" xml:space="preserve" y="10">Design</text></g><defs><clipPath id="clip237"><path d="M-490,-166 L237.445,-166 L237.445,169 L-490,169 L-490,-166 z"/></clipPath></defs><g clip-path="url(#clip237)" fill="#ffff80" fill-opacity="1" opacity="1" stroke="none" stroke-opacity="0" transform="matrix(1,0,0,1,490,166)"><path d="M0,0 L95,0 L95,91 L0,91 L0,0 z" fill-rule="evenodd" vector-effect="none"/></g><defs><clipPath id="clip241"><path d="M-3,-23 L92,-23 L92,68 L-3,68 L-3,-23 z"/></clipPath></defs><g clip-path="url(#clip241)" fill="none" opacity="1" stroke="#000000" stroke-linecap="butt" stroke-linejoin="miter" stroke-miterlimit="2" stroke-opacity="1" stroke-width="1" transform="matrix(1,0,0,1,493,189)"><text fill="#000000" fill-opacity="1" font-family="Arial" font-size="9" font-style="normal" font-weight="400" stroke="none" textLength="9.5" x="0" xml:space="preserve" y="3">yp</text></g><defs><clipPath id="clip242"><path d="M-3,-68 L92,-68 L92,23 L-3,23 L-3,-68 z"/></clipPath></defs><g clip-path="url(#clip242)" fill="none" opacity="1" stroke="#000000" stroke-linecap="butt" stroke-linejoin="miter" stroke-miterlimit="2" stroke-opacity="1" stroke-width="1" transform="matrix(1,0,0,1,493,234)"><text fill="#000000" fill-opacity="1" font-family="Arial" font-size="9" font-style="normal" font-weight="400" stroke="none" textLength="17" x="0" xml:space="preserve" y="3">yhat</text></g><defs><clipPath id="clip243"><path d="M-92,-48 L3,-48 L3,43 L-92,43 L-92,-48 z"/></clipPath></defs><g clip-path="url(#clip243)" fill="none" opacity="1" stroke="#000000" stroke-linecap="butt" stroke-linejoin="miter" stroke-miterlimit="2" stroke-opacity="1" stroke-width="1" transform="matrix(1,0,0,1,582,214)"><text fill="#000000" fill-opacity="1" font-family="Arial" font-size="9" font-style="normal" font-weight="400" stroke="none" textLength="20" x="-20" xml:space="preserve" y="3">theta</text></g><defs><clipPath id="clip248"><path d="M-490.5,-166.5 L236.945,-166.5 L236.945,168.5 L-490.5,168.5 L-490.5,-166.5 z"/></clipPath></defs><g clip-path="url(#clip248)" fill="none" opacity="1" stroke="#000000" stroke-linecap="butt" stroke-linejoin="miter" stroke-miterlimit="2" stroke-opacity="1" stroke-width="1" transform="matrix(1,0,0,1,490.5,166.5)"><path d="M0,0 L95,0 L95,91 L0,91 L0,0 z" fill-rule="evenodd" vector-effect="none"/></g><defs><clipPath id="clip251"><path d="M-537.945,-259 L189.5,-259 L189.5,76 L-537.945,76 L-537.945,-259 z"/></clipPath></defs><g clip-path="url(#clip251)" fill="none" opacity="1" stroke="none" stroke-opacity="0" transform="matrix(1,0,0,1,537.945,259)"><path d="M-24.8438,0 L24.8438,0 L24.8438,14 L-24.8438,14 L-24.8438,0 z" fill-rule="evenodd" vector-effect="none"/></g><defs><clipPath id="clip255"><path d="M0,0 L50,0 L50,14 L0,14 L0,0 z"/></clipPath></defs><g clip-path="url(#clip255)" fill="none" opacity="1" stroke="#000000" stroke-linecap="square" stroke-linejoin="bevel" stroke-opacity="1" stroke-width="1" transform="matrix(1,0,0,1,513.102,259)"><text fill="#000000" fill-opacity="1" font-family="Arial" font-size="10" font-style="normal" font-weight="400" stroke="none" textLength="47.6875" x="1" xml:space="preserve" y="10">Adaptation</text></g><defs><clipPath id="clip263"><path d="M19.5547,21 L747,21 L747,356 L19.5547,356 L19.5547,21 z"/></clipPath></defs><g clip-path="url(#clip263)" fill="none" opacity="1" stroke="#000000" stroke-linecap="butt" stroke-linejoin="miter" stroke-miterlimit="2" stroke-opacity="1" stroke-width="1" transform="matrix(1,0,0,1,-19.5547,-21)"><path d="M380,135 L410,135" fill-rule="evenodd" vector-effect="none"/></g><defs><clipPath id="clip268"><path d="M-415,-114 L312.445,-114 L312.445,221 L-415,221 L-415,-114 z"/></clipPath></defs><g clip-path="url(#clip268)" fill="#000000" fill-opacity="1" opacity="1" stroke="none" stroke-opacity="0" transform="matrix(1,0,0,1,415,114)"><path d="M0,0 L-8,-4 L-8,4 L0,0 z" fill-rule="nonzero" vector-effect="none"/></g><defs><clipPath id="clip271"><path d="M19.5547,21 L747,21 L747,356 L19.5547,356 L19.5547,21 z"/></clipPath></defs><g clip-path="url(#clip271)" fill="none" opacity="1" stroke="#000000" stroke-linecap="butt" stroke-linejoin="miter" stroke-miterlimit="2" stroke-opacity="1" stroke-width="1" transform="matrix(1,0,0,1,-19.5547,-21)"><path d="M410,135 L427,135" fill-rule="evenodd" vector-effect="none"/></g><defs><clipPath id="clip274"><path d="M-415,-69 L312.445,-69 L312.445,266 L-415,266 L-415,-69 z"/></clipPath></defs><g clip-path="url(#clip274)" fill="#000000" fill-opacity="1" opacity="1" stroke="none" stroke-opacity="0" transform="matrix(1,0,0,1,415,69)"><path d="M0,0 L-8,-4 L-8,4 L0,0 z" fill-rule="nonzero" vector-effect="none"/></g><defs><clipPath id="clip277"><path d="M19.5547,21 L747,21 L747,356 L19.5547,356 L19.5547,21 z"/></clipPath></defs><g clip-path="url(#clip277)" fill="none" opacity="1" stroke="#000000" stroke-linecap="butt" stroke-linejoin="miter" stroke-miterlimit="2" stroke-opacity="1" stroke-width="1" transform="matrix(1,0,0,1,-19.5547,-21)"><path d="M410,135 L410,90 L427,90" fill-rule="evenodd" vector-effect="none"/></g><defs><clipPath id="clip280"><path d="M-390.445,-114 L337,-114 L337,221 L-390.445,221 L-390.445,-114 z"/></clipPath></defs><g clip-path="url(#clip280)" fill="#000000" fill-opacity="1" opacity="1" stroke="none" stroke-opacity="0" transform="matrix(1,0,0,1,390.445,114)"><path d="M2.5,0 C2.5,1.38071 1.38071,2.5 0,2.5 C-1.38071,2.5 -2.5,1.38071 -2.5,0 C-2.5,-1.38071 -1.38071,-2.5 0,-2.5 C1.38071,-2.5 2.5,-1.38071 2.5,0 z" fill-rule="evenodd" vector-effect="none"/></g><defs><clipPath id="clip283"><path d="M-98.5547,345.445 L-98.5547,-382 L236.445,-382 L236.445,345.445 L-98.5547,345.445 z"/></clipPath></defs><g clip-path="url(#clip283)" fill="#000000" fill-opacity="1" opacity="1" stroke="none" stroke-opacity="0" transform="matrix(6.12323e-17,1,-1,6.12323e-17,345.445,98.5547)"><path d="M0,0 L-8,-4 L-8,4 L0,0 z" fill-rule="nonzero" vector-effect="none"/></g><defs><clipPath id="clip286"><path d="M19.5547,21 L747,21 L747,356 L19.5547,356 L19.5547,21 z"/></clipPath></defs><g clip-path="url(#clip286)" fill="none" opacity="1" stroke="#000000" stroke-linecap="butt" stroke-linejoin="miter" stroke-miterlimit="2" stroke-opacity="1" stroke-width="1" transform="matrix(1,0,0,1,-19.5547,-21)"><path d="M285,50 L365,50 L365,112" fill-rule="evenodd" vector-effect="none"/></g><defs><clipPath id="clip289"><path d="M19.5547,21 L747,21 L747,356 L19.5547,356 L19.5547,21 z"/></clipPath></defs><g clip-path="url(#clip289)" fill="none" opacity="1" stroke="#000000" stroke-linecap="butt" stroke-linejoin="miter" stroke-miterlimit="2" stroke-opacity="1" stroke-width="1" transform="matrix(1,0,0,1,-19.5547,-21)"><path d="M285,135 L310,135" fill-rule="evenodd" vector-effect="none"/></g><defs><clipPath id="clip294"><path d="M-330,-114 L397.445,-114 L397.445,221 L-330,221 L-330,-114 z"/></clipPath></defs><g clip-path="url(#clip294)" fill="#000000" fill-opacity="1" opacity="1" stroke="none" stroke-opacity="0" transform="matrix(1,0,0,1,330,114)"><path d="M0,0 L-8,-4 L-8,4 L0,0 z" fill-rule="nonzero" vector-effect="none"/></g><defs><clipPath id="clip297"><path d="M19.5547,21 L747,21 L747,356 L19.5547,356 L19.5547,21 z"/></clipPath></defs><g clip-path="url(#clip297)" fill="none" opacity="1" stroke="#000000" stroke-linecap="butt" stroke-linejoin="miter" stroke-miterlimit="2" stroke-opacity="1" stroke-width="1" transform="matrix(1,0,0,1,-19.5547,-21)"><path d="M310,135 L342,135" fill-rule="evenodd" vector-effect="none"/></g><defs><clipPath id="clip300"><path d="M19.5547,21 L747,21 L747,356 L19.5547,356 L19.5547,21 z"/></clipPath></defs><g clip-path="url(#clip300)" fill="none" opacity="1" stroke="#000000" stroke-linecap="butt" stroke-linejoin="miter" stroke-miterlimit="2" stroke-opacity="1" stroke-width="1" transform="matrix(1,0,0,1,-19.5547,-21)"><path d="M310,135 L310,235" fill-rule="evenodd" vector-effect="none"/></g><defs><clipPath id="clip305"><path d="M250.891,304 L-476.555,304 L-476.555,-31 L250.891,-31 L250.891,304 z"/></clipPath></defs><g clip-path="url(#clip305)" fill="#000000" fill-opacity="1" opacity="1" stroke="none" stroke-opacity="0" transform="matrix(-1,1.22465e-16,-1.22465e-16,-1,250.891,304)"><path d="M0,0 L-8,-4 L-8,4 L0,0 z" fill-rule="nonzero" vector-effect="none"/></g><defs><clipPath id="clip308"><path d="M19.5547,21 L747,21 L747,356 L19.5547,356 L19.5547,21 z"/></clipPath></defs><g clip-path="url(#clip308)" fill="none" opacity="1" stroke="#000000" stroke-linecap="butt" stroke-linejoin="miter" stroke-miterlimit="2" stroke-opacity="1" stroke-width="1" transform="matrix(1,0,0,1,-19.5547,-21)"><path d="M310,235 L310,269.5 M310,280.5 L310,325 L278,325" fill-rule="evenodd" vector-effect="none"/></g><defs><clipPath id="clip309"><path d="M19.5547,21 L747,21 L747,356 L19.5547,356 L19.5547,21 z"/></clipPath></defs><g clip-path="url(#clip309)" fill="none" opacity="1" stroke="#333333" stroke-linecap="butt" stroke-linejoin="miter" stroke-miterlimit="2" stroke-opacity="1" stroke-width="1" transform="matrix(1,0,0,1,-19.5547,-21)"><polyline fill="none" points="310,269.5 310,270.5" vector-effect="none"/><polyline fill="none" points="310,280.5 310,279.5" vector-effect="none"/></g><defs><clipPath id="clip310"><path d="M19.5547,21 L747,21 L747,356 L19.5547,356 L19.5547,21 z"/></clipPath></defs><g clip-path="url(#clip310)" fill="none" opacity="1" stroke="#666666" stroke-linecap="butt" stroke-linejoin="miter" stroke-miterlimit="2" stroke-opacity="1" stroke-width="1" transform="matrix(1,0,0,1,-19.5547,-21)"><polyline fill="none" points="310,270.5 310,271.5" vector-effect="none"/><polyline fill="none" points="310,279.5 310,278.5" vector-effect="none"/></g><defs><clipPath id="clip311"><path d="M19.5547,21 L747,21 L747,356 L19.5547,356 L19.5547,21 z"/></clipPath></defs><g clip-path="url(#clip311)" fill="none" opacity="1" stroke="#999999" stroke-linecap="butt" stroke-linejoin="miter" stroke-miterlimit="2" stroke-opacity="1" stroke-width="1" transform="matrix(1,0,0,1,-19.5547,-21)"><polyline fill="none" points="310,271.5 310,272.5" vector-effect="none"/><polyline fill="none" points="310,278.5 310,277.5" vector-effect="none"/></g><defs><clipPath id="clip312"><path d="M19.5547,21 L747,21 L747,356 L19.5547,356 L19.5547,21 z"/></clipPath></defs><g clip-path="url(#clip312)" fill="none" opacity="1" stroke="#cccccc" stroke-linecap="butt" stroke-linejoin="miter" stroke-miterlimit="2" stroke-opacity="1" stroke-width="1" transform="matrix(1,0,0,1,-19.5547,-21)"><polyline fill="none" points="310,272.5 310,273.5" vector-effect="none"/><polyline fill="none" points="310,277.5 310,276.5" vector-effect="none"/></g><defs><clipPath id="clip315"><path d="M-490,-189 L237.445,-189 L237.445,146 L-490,146 L-490,-189 z"/></clipPath></defs><g clip-path="url(#clip315)" fill="#000000" fill-opacity="1" opacity="1" stroke="none" stroke-opacity="0" transform="matrix(1,0,0,1,490,189)"><path d="M0,0 L-8,-4 L-8,4 L0,0 z" fill-rule="nonzero" vector-effect="none"/></g><defs><clipPath id="clip318"><path d="M19.5547,21 L747,21 L747,356 L19.5547,356 L19.5547,21 z"/></clipPath></defs><g clip-path="url(#clip318)" fill="none" opacity="1" stroke="#000000" stroke-linecap="butt" stroke-linejoin="miter" stroke-miterlimit="2" stroke-opacity="1" stroke-width="1" transform="matrix(1,0,0,1,-19.5547,-21)"><path d="M345,235 L345,180 L480,180 L480,210 L502,210" fill-rule="evenodd" vector-effect="none"/></g><defs><clipPath id="clip321"><path d="M-360,-214 L367.445,-214 L367.445,121 L-360,121 L-360,-214 z"/></clipPath></defs><g clip-path="url(#clip321)" fill="#000000" fill-opacity="1" opacity="1" stroke="none" stroke-opacity="0" transform="matrix(1,0,0,1,360,214)"><path d="M0,0 L-8,-4 L-8,4 L0,0 z" fill-rule="nonzero" vector-effect="none"/></g><defs><clipPath id="clip324"><path d="M19.5547,21 L747,21 L747,356 L19.5547,356 L19.5547,21 z"/></clipPath></defs><g clip-path="url(#clip324)" fill="none" opacity="1" stroke="#000000" stroke-linecap="butt" stroke-linejoin="miter" stroke-miterlimit="2" stroke-opacity="1" stroke-width="1" transform="matrix(1,0,0,1,-19.5547,-21)"><path d="M345,235 L372,235" fill-rule="evenodd" vector-effect="none"/></g><defs><clipPath id="clip327"><path d="M19.5547,21 L747,21 L747,356 L19.5547,356 L19.5547,21 z"/></clipPath></defs><g clip-path="url(#clip327)" fill="none" opacity="1" stroke="#000000" stroke-linecap="butt" stroke-linejoin="miter" stroke-miterlimit="2" stroke-opacity="1" stroke-width="1" transform="matrix(1,0,0,1,-19.5547,-21)"><path d="M310,235 L345,235" fill-rule="evenodd" vector-effect="none"/></g><defs><clipPath id="clip332"><path d="M-290.445,-114 L437,-114 L437,221 L-290.445,221 L-290.445,-114 z"/></clipPath></defs><g clip-path="url(#clip332)" fill="#000000" fill-opacity="1" opacity="1" stroke="none" stroke-opacity="0" transform="matrix(1,0,0,1,290.445,114)"><path d="M2.5,0 C2.5,1.38071 1.38071,2.5 0,2.5 C-1.38071,2.5 -2.5,1.38071 -2.5,0 C-2.5,-1.38071 -1.38071,-2.5 0,-2.5 C1.38071,-2.5 2.5,-1.38071 2.5,0 z" fill-rule="evenodd" vector-effect="none"/></g><defs><clipPath id="clip335"><path d="M-325.445,-214 L402,-214 L402,121 L-325.445,121 L-325.445,-214 z"/></clipPath></defs><g clip-path="url(#clip335)" fill="#000000" fill-opacity="1" opacity="1" stroke="none" stroke-opacity="0" transform="matrix(1,0,0,1,325.445,214)"><path d="M2.5,0 C2.5,1.38071 1.38071,2.5 0,2.5 C-1.38071,2.5 -2.5,1.38071 -2.5,0 C-2.5,-1.38071 -1.38071,-2.5 0,-2.5 C1.38071,-2.5 2.5,-1.38071 2.5,0 z" fill-rule="evenodd" vector-effect="none"/></g><defs><clipPath id="clip338"><path d="M-290.445,-214 L437,-214 L437,121 L-290.445,121 L-290.445,-214 z"/></clipPath></defs><g clip-path="url(#clip338)" fill="#000000" fill-opacity="1" opacity="1" stroke="none" stroke-opacity="0" transform="matrix(1,0,0,1,290.445,214)"><path d="M2.5,0 C2.5,1.38071 1.38071,2.5 0,2.5 C-1.38071,2.5 -2.5,1.38071 -2.5,0 C-2.5,-1.38071 -1.38071,-2.5 0,-2.5 C1.38071,-2.5 2.5,-1.38071 2.5,0 z" fill-rule="evenodd" vector-effect="none"/></g><defs><clipPath id="clip341"><path d="M19.5547,21 L747,21 L747,356 L19.5547,356 L19.5547,21 z"/></clipPath></defs><g clip-path="url(#clip341)" fill="none" opacity="1" stroke="#000000" stroke-linecap="butt" stroke-linejoin="miter" stroke-miterlimit="2" stroke-opacity="1" stroke-width="1" transform="matrix(1,0,0,1,-19.5547,-21)"><path d="M90,50 L120,50" fill-rule="evenodd" vector-effect="none"/></g><defs><clipPath id="clip346"><path d="M-135,-114 L592.445,-114 L592.445,221 L-135,221 L-135,-114 z"/></clipPath></defs><g clip-path="url(#clip346)" fill="#000000" fill-opacity="1" opacity="1" stroke="none" stroke-opacity="0" transform="matrix(1,0,0,1,135,114)"><path d="M0,0 L-8,-4 L-8,4 L0,0 z" fill-rule="nonzero" vector-effect="none"/></g><defs><clipPath id="clip349"><path d="M19.5547,21 L747,21 L747,356 L19.5547,356 L19.5547,21 z"/></clipPath></defs><g clip-path="url(#clip349)" fill="none" opacity="1" stroke="#000000" stroke-linecap="butt" stroke-linejoin="miter" stroke-miterlimit="2" stroke-opacity="1" stroke-width="1" transform="matrix(1,0,0,1,-19.5547,-21)"><path d="M120,50 L120,135 L147,135" fill-rule="evenodd" vector-effect="none"/></g><defs><clipPath id="clip352"><path d="M-210,-29 L517.445,-29 L517.445,306 L-210,306 L-210,-29 z"/></clipPath></defs><g clip-path="url(#clip352)" fill="#000000" fill-opacity="1" opacity="1" stroke="none" stroke-opacity="0" transform="matrix(1,0,0,1,210,29)"><path d="M0,0 L-8,-4 L-8,4 L0,0 z" fill-rule="nonzero" vector-effect="none"/></g><defs><clipPath id="clip355"><path d="M19.5547,21 L747,21 L747,356 L19.5547,356 L19.5547,21 z"/></clipPath></defs><g clip-path="url(#clip355)" fill="none" opacity="1" stroke="#000000" stroke-linecap="butt" stroke-linejoin="miter" stroke-miterlimit="2" stroke-opacity="1" stroke-width="1" transform="matrix(1,0,0,1,-19.5547,-21)"><path d="M120,50 L222,50" fill-rule="evenodd" vector-effect="none"/></g><defs><clipPath id="clip358"><path d="M-100.445,-29 L627,-29 L627,306 L-100.445,306 L-100.445,-29 z"/></clipPath></defs><g clip-path="url(#clip358)" fill="#000000" fill-opacity="1" opacity="1" stroke="none" stroke-opacity="0" transform="matrix(1,0,0,1,100.445,29)"><path d="M2.5,0 C2.5,1.38071 1.38071,2.5 0,2.5 C-1.38071,2.5 -2.5,1.38071 -2.5,0 C-2.5,-1.38071 -1.38071,-2.5 0,-2.5 C1.38071,-2.5 2.5,-1.38071 2.5,0 z" fill-rule="evenodd" vector-effect="none"/></g><defs><clipPath id="clip361"><path d="M19.5547,21 L747,21 L747,356 L19.5547,356 L19.5547,21 z"/></clipPath></defs><g clip-path="url(#clip361)" fill="none" opacity="1" stroke="#000000" stroke-linecap="butt" stroke-linejoin="miter" stroke-miterlimit="2" stroke-opacity="1" stroke-width="1" transform="matrix(1,0,0,1,-19.5547,-21)"><path d="M185,135 L205,135" fill-rule="evenodd" vector-effect="none"/></g><defs><clipPath id="clip366"><path d="M-210,-114 L517.445,-114 L517.445,221 L-210,221 L-210,-114 z"/></clipPath></defs><g clip-path="url(#clip366)" fill="#000000" fill-opacity="1" opacity="1" stroke="none" stroke-opacity="0" transform="matrix(1,0,0,1,210,114)"><path d="M0,0 L-8,-4 L-8,4 L0,0 z" fill-rule="nonzero" vector-effect="none"/></g><defs><clipPath id="clip369"><path d="M19.5547,21 L747,21 L747,356 L19.5547,356 L19.5547,21 z"/></clipPath></defs><g clip-path="url(#clip369)" fill="none" opacity="1" stroke="#000000" stroke-linecap="butt" stroke-linejoin="miter" stroke-miterlimit="2" stroke-opacity="1" stroke-width="1" transform="matrix(1,0,0,1,-19.5547,-21)"><path d="M205,135 L222,135" fill-rule="evenodd" vector-effect="none"/></g><defs><clipPath id="clip372"><path d="M-360,-254 L367.445,-254 L367.445,81 L-360,81 L-360,-254 z"/></clipPath></defs><g clip-path="url(#clip372)" fill="#000000" fill-opacity="1" opacity="1" stroke="none" stroke-opacity="0" transform="matrix(1,0,0,1,360,254)"><path d="M0,0 L-8,-4 L-8,4 L0,0 z" fill-rule="nonzero" vector-effect="none"/></g><defs><clipPath id="clip375"><path d="M19.5547,21 L747,21 L747,356 L19.5547,356 L19.5547,21 z"/></clipPath></defs><g clip-path="url(#clip375)" fill="none" opacity="1" stroke="#000000" stroke-linecap="butt" stroke-linejoin="miter" stroke-miterlimit="2" stroke-opacity="1" stroke-width="1" transform="matrix(1,0,0,1,-19.5547,-21)"><path d="M205,135 L205,275 L372,275" fill-rule="evenodd" vector-effect="none"/></g><defs><clipPath id="clip378"><path d="M-185.445,-114 L542,-114 L542,221 L-185.445,221 L-185.445,-114 z"/></clipPath></defs><g clip-path="url(#clip378)" fill="#000000" fill-opacity="1" opacity="1" stroke="none" stroke-opacity="0" transform="matrix(1,0,0,1,185.445,114)"><path d="M2.5,0 C2.5,1.38071 1.38071,2.5 0,2.5 C-1.38071,2.5 -2.5,1.38071 -2.5,0 C-2.5,-1.38071 -1.38071,-2.5 0,-2.5 C1.38071,-2.5 2.5,-1.38071 2.5,0 z" fill-rule="evenodd" vector-effect="none"/></g><defs><clipPath id="clip381"><path d="M129.445,-150.445 L129.445,577 L-205.555,577 L-205.555,-150.445 L129.445,-150.445 z"/></clipPath></defs><g clip-path="url(#clip381)" fill="#000000" fill-opacity="1" opacity="1" stroke="none" stroke-opacity="0" transform="matrix(6.12323e-17,-1,1,6.12323e-17,150.445,129.445)"><path d="M0,0 L-8,-4 L-8,4 L0,0 z" fill-rule="nonzero" vector-effect="none"/></g><defs><clipPath id="clip384"><path d="M19.5547,21 L747,21 L747,356 L19.5547,356 L19.5547,21 z"/></clipPath></defs><g clip-path="url(#clip384)" fill="none" opacity="1" stroke="#000000" stroke-linecap="butt" stroke-linejoin="miter" stroke-miterlimit="2" stroke-opacity="1" stroke-width="1" transform="matrix(1,0,0,1,-19.5547,-21)"><path d="M230,335 L170,335 L170,158" fill-rule="evenodd" vector-effect="none"/></g><defs><clipPath id="clip387"><path d="M-620,-214 L107.445,-214 L107.445,121 L-620,121 L-620,-214 z"/></clipPath></defs><g clip-path="url(#clip387)" fill="#000000" fill-opacity="1" opacity="1" stroke="none" stroke-opacity="0" transform="matrix(1,0,0,1,620,214)"><path d="M0,0 L-8,-4 L-8,4 L0,0 z" fill-rule="nonzero" vector-effect="none"/></g><defs><clipPath id="clip390"><path d="M19.5547,21 L747,21 L747,356 L19.5547,356 L19.5547,21 z"/></clipPath></defs><g clip-path="url(#clip390)" fill="none" opacity="1" stroke="#000000" stroke-linecap="butt" stroke-linejoin="miter" stroke-miterlimit="2" stroke-opacity="1" stroke-width="1" transform="matrix(1,0,0,1,-19.5547,-21)"><path d="M605,235 L632,235" fill-rule="evenodd" vector-effect="none"/></g><defs><clipPath id="clip393"><path d="M250.891,324 L-476.555,324 L-476.555,-11 L250.891,-11 L250.891,324 z"/></clipPath></defs><g clip-path="url(#clip393)" fill="#000000" fill-opacity="1" opacity="1" stroke="none" stroke-opacity="0" transform="matrix(-1,1.22465e-16,-1.22465e-16,-1,250.891,324)"><path d="M0,0 L-8,-4 L-8,4 L0,0 z" fill-rule="nonzero" vector-effect="none"/></g><defs><clipPath id="clip396"><path d="M19.5547,21 L747,21 L747,356 L19.5547,356 L19.5547,21 z"/></clipPath></defs><g clip-path="url(#clip396)" fill="none" opacity="1" stroke="#000000" stroke-linecap="butt" stroke-linejoin="miter" stroke-miterlimit="2" stroke-opacity="1" stroke-width="1" transform="matrix(1,0,0,1,-19.5547,-21)"><path d="M710,235 L745,235 L745,345 L278,345" fill-rule="evenodd" vector-effect="none"/></g><defs><clipPath id="clip399"><path d="M-490,-234 L237.445,-234 L237.445,101 L-490,101 L-490,-234 z"/></clipPath></defs><g clip-path="url(#clip399)" fill="#000000" fill-opacity="1" opacity="1" stroke="none" stroke-opacity="0" transform="matrix(1,0,0,1,490,234)"><path d="M0,0 L-8,-4 L-8,4 L0,0 z" fill-rule="nonzero" vector-effect="none"/></g><defs><clipPath id="clip402"><path d="M19.5547,21 L747,21 L747,356 L19.5547,356 L19.5547,21 z"/></clipPath></defs><g clip-path="url(#clip402)" fill="none" opacity="1" stroke="#000000" stroke-linecap="butt" stroke-linejoin="miter" stroke-miterlimit="2" stroke-opacity="1" stroke-width="1" transform="matrix(1,0,0,1,-19.5547,-21)"><path d="M455,255 L502,255" fill-rule="evenodd" vector-effect="none"/></g></g></svg>
