<?xml version="1.0" encoding="UTF-8"?><svg width="74.0833mm" height="21.6958mm" viewBox="0 0 280 82" xmlns="http://www.w3.org/2000/svg" xmlns:xlink="http://www.w3.org/1999/xlink"><g fill="none" stroke="black" stroke-width="1" fill-rule="evenodd" stroke-linecap="square" stroke-linejoin="bevel"><g clip-path="none" fill="#ffffff" fill-opacity="1" opacity="1" stroke="none" stroke-opacity="0" transform="matrix(1,0,0,1,0,0)"><path d="M0,0 L280.414,0 L280.414,82 L0,82 L0,0 z" fill-rule="evenodd" vector-effect="none"/></g><defs><clipPath id="clip3"><path d="M-245.414,-73 L35,-73 L35,9 L-245.414,9 L-245.414,-73 z"/></clipPath></defs><g clip-path="url(#clip3)" fill="#ffff80" fill-opacity="1" opacity="1" stroke="none" stroke-opacity="0" transform="matrix(1,0,0,1,245.414,73)"><path d="M-33.4141,-7 L33.4141,-7 L33.4141,7 L-33.4141,7 L-33.4141,-7 z" fill-rule="evenodd" vector-effect="none"/></g><defs><clipPath id="clip8"><path d="M-5,-5 L68,-5 L68,16 L-5,16 L-5,-5 z"/></clipPath></defs><g clip-path="url(#clip8)" fill="none" opacity="1" stroke="none" stroke-opacity="0" transform="matrix(1,0,0,1,212,66)"><path d="M1,1 L65.8281,1 L65.8281,13 L1,13 L1,1 z" fill-rule="evenodd" vector-effect="none"/></g><defs><clipPath id="clip9"><path d="M-5,-5 L68,-5 L68,16 L-5,16 L-5,-5 z"/></clipPath></defs><g clip-path="url(#clip9)" fill="#ffff80" fill-opacity="1" opacity="1" stroke="#000000" stroke-linecap="square" stroke-linejoin="bevel" stroke-opacity="1" stroke-width="1" transform="matrix(1,0,0,1,212,66)"><text fill="#000000" fill-opacity="1" font-family="Arial" font-size="10" font-style="normal" font-weight="400" stroke="none" textLength="64.8281" x="1" xml:space="preserve" y="10">m^2 = yf^2 + 1</text></g><defs><clipPath id="clip17"><path d="M-204.281,-13 L76.1328,-13 L76.1328,69 L-204.281,69 L-204.281,-13 z"/></clipPath></defs><g clip-path="url(#clip17)" fill="#ffffff" fill-opacity="1" opacity="1" stroke="none" stroke-opacity="0" transform="matrix(1,0,0,1,204.281,13)"><path d="M-10.2812,-7 L10.2812,-7 L10.2812,7 L-10.2812,7 L-10.2812,-7 z" fill-rule="evenodd" vector-effect="none"/></g><defs><clipPath id="clip22"><path d="M-5,-5 L25,-5 L25,19 L-5,19 L-5,-5 z"/></clipPath></defs><g clip-path="url(#clip22)" fill="none" opacity="1" stroke="none" stroke-opacity="0" transform="matrix(1,0,0,1,194,6)"><path d="M1,1 L19.5625,1 L19.5625,13 L1,13 L1,1 z" fill-rule="evenodd" vector-effect="none"/></g><defs><clipPath id="clip23"><path d="M-5,-5 L25,-5 L25,19 L-5,19 L-5,-5 z"/></clipPath></defs><g clip-path="url(#clip23)" fill="#ffffff" fill-opacity="1" opacity="1" stroke="#000000" stroke-linecap="square" stroke-linejoin="bevel" stroke-opacity="1" stroke-width="1" transform="matrix(1,0,0,1,194,6)"><text fill="#000000" fill-opacity="1" font-family="Arial" font-size="10" font-style="normal" font-weight="400" stroke="none" textLength="18.5625" x="1" xml:space="preserve" y="10">m^2</text></g><defs><clipPath id="clip31"><path d="M-124,-13 L156.414,-13 L156.414,69 L-124,69 L-124,-13 z"/></clipPath></defs><g clip-path="url(#clip31)" fill="#ffffff" fill-opacity="1" opacity="1" stroke="none" stroke-opacity="0" transform="matrix(1,0,0,1,124,13)"><path d="M-10,-7 L10,-7 L10,7 L-10,7 L-10,-7 z" fill-rule="evenodd" vector-effect="none"/></g><defs><clipPath id="clip36"><path d="M-5,-5 L25,-5 L25,19 L-5,19 L-5,-5 z"/></clipPath></defs><g clip-path="url(#clip36)" fill="none" opacity="1" stroke="none" stroke-opacity="0" transform="matrix(1,0,0,1,114,6)"><path d="M1,1 L19,1 L19,13 L1,13 L1,1 z" fill-rule="evenodd" vector-effect="none"/></g><defs><clipPath id="clip37"><path d="M-5,-5 L25,-5 L25,19 L-5,19 L-5,-5 z"/></clipPath></defs><g clip-path="url(#clip37)" fill="#ffffff" fill-opacity="1" opacity="1" stroke="#000000" stroke-linecap="square" stroke-linejoin="bevel" stroke-opacity="1" stroke-width="1" transform="matrix(1,0,0,1,114,6)"><text fill="#000000" fill-opacity="1" font-family="Arial" font-size="10" font-style="normal" font-weight="400" stroke="none" textLength="18" x="1" xml:space="preserve" y="10">yf^2</text></g><defs><clipPath id="clip45"><path d="M-237,-11 L43.4141,-11 L43.4141,71 L-237,71 L-237,-11 z"/></clipPath></defs><g clip-path="url(#clip45)" fill="#00d100" fill-opacity="1" opacity="1" stroke="none" stroke-opacity="0" transform="matrix(1,0,0,1,237,11)"><path d="M0,10 C0,15.5228 4.47715,20 10,20 C15.5228,20 20,15.5228 20,10 C20,4.47715 15.5228,0 10,0 C4.47715,0 0,4.47715 0,10 z" fill-rule="nonzero" vector-effect="none"/></g><defs><clipPath id="clip49"><path d="M-10,-10 L10,-10 L10,10 L-10,10 L-10,-10 z"/></clipPath></defs><g clip-path="url(#clip49)" fill="none" opacity="1" stroke="#000000" stroke-linecap="butt" stroke-linejoin="miter" stroke-miterlimit="2" stroke-opacity="1" stroke-width="1" transform="matrix(1,0,0,1,247,21)"><text fill="#000000" fill-opacity="1" font-family="Arial" font-size="10" font-style="normal" font-weight="400" stroke="none" textLength="5.54688" x="-2.76562" xml:space="preserve" y="3.5">1</text></g><defs><clipPath id="clip54"><path d="M-237.5,-11.5 L42.9141,-11.5 L42.9141,70.5 L-237.5,70.5 L-237.5,-11.5 z"/></clipPath></defs><g clip-path="url(#clip54)" fill="none" opacity="1" stroke="#000000" stroke-linecap="butt" stroke-linejoin="miter" stroke-miterlimit="2" stroke-opacity="1" stroke-width="1" transform="matrix(1,0,0,1,237.5,11.5)"><path d="M0,10 C0,15.5228 4.47715,20 10,20 C15.5228,20 20,15.5228 20,10 C20,4.47715 15.5228,0 10,0 C4.47715,0 0,4.47715 0,10 z" fill-rule="nonzero" vector-effect="none"/></g><defs><clipPath id="clip57"><path d="M-247,-33 L33.4141,-33 L33.4141,49 L-247,49 L-247,-33 z"/></clipPath></defs><g clip-path="url(#clip57)" fill="none" opacity="1" stroke="none" stroke-opacity="0" transform="matrix(1,0,0,1,247,33)"><path d="M-7.9375,0 L7.9375,0 L7.9375,14 L-7.9375,14 L-7.9375,0 z" fill-rule="evenodd" vector-effect="none"/></g><defs><clipPath id="clip61"><path d="M0,0 L16,0 L16,14 L0,14 L0,0 z"/></clipPath></defs><g clip-path="url(#clip61)" fill="none" opacity="1" stroke="#000000" stroke-linecap="square" stroke-linejoin="bevel" stroke-opacity="1" stroke-width="1" transform="matrix(1,0,0,1,239.062,33)"><text fill="#000000" fill-opacity="1" font-family="Arial" font-size="10" font-style="normal" font-weight="400" stroke="none" textLength="13.875" x="1" xml:space="preserve" y="10">m2</text></g><defs><clipPath id="clip69"><path d="M-157,-6 L123.414,-6 L123.414,76 L-157,76 L-157,-6 z"/></clipPath></defs><g clip-path="url(#clip69)" fill="#ffffff" fill-opacity="1" opacity="1" stroke="none" stroke-opacity="0" transform="matrix(1,0,0,1,157,6)"><path d="M30,15 C30,23.2843 23.2843,30 15,30 C6.71573,30 0,23.2843 0,15 C0,6.71573 6.71573,0 15,0 C23.2843,0 30,6.71573 30,15 z" fill-rule="nonzero" vector-effect="none"/></g><defs><clipPath id="clip73"><path d="M215,55 L245,55 L245,85 L215,85 L215,55 z"/></clipPath></defs><g clip-path="url(#clip73)" fill="none" opacity="1" stroke="#000000" stroke-linecap="butt" stroke-linejoin="miter" stroke-miterlimit="2" stroke-opacity="1" stroke-width="1" transform="matrix(1,0,0,1,-57.5,-48.5)"><polyline fill="none" points="218,70 222,70" vector-effect="none"/></g><defs><clipPath id="clip74"><path d="M215,55 L245,55 L245,85 L215,85 L215,55 z"/></clipPath></defs><g clip-path="url(#clip74)" fill="none" opacity="1" stroke="#000000" stroke-linecap="butt" stroke-linejoin="miter" stroke-miterlimit="2" stroke-opacity="1" stroke-width="1" transform="matrix(1,0,0,1,-57.5,-48.5)"><polyline fill="none" points="220,68 220,72" vector-effect="none"/></g><defs><clipPath id="clip75"><path d="M215,55 L245,55 L245,85 L215,85 L215,55 z"/></clipPath></defs><g clip-path="url(#clip75)" fill="none" opacity="1" stroke="#000000" stroke-linecap="butt" stroke-linejoin="miter" stroke-miterlimit="2" stroke-opacity="1" stroke-width="1" transform="matrix(1,0,0,1,-57.5,-48.5)"><polyline fill="none" points="228,80 232,80" vector-effect="none"/></g><defs><clipPath id="clip76"><path d="M215,55 L245,55 L245,85 L215,85 L215,55 z"/></clipPath></defs><g clip-path="url(#clip76)" fill="none" opacity="1" stroke="#000000" stroke-linecap="butt" stroke-linejoin="miter" stroke-miterlimit="2" stroke-opacity="1" stroke-width="1" transform="matrix(1,0,0,1,-57.5,-48.5)"><polyline fill="none" points="230,78 230,82" vector-effect="none"/></g><defs><clipPath id="clip81"><path d="M-157.5,-6.5 L122.914,-6.5 L122.914,75.5 L-157.5,75.5 L-157.5,-6.5 z"/></clipPath></defs><g clip-path="url(#clip81)" fill="none" opacity="1" stroke="#000000" stroke-linecap="butt" stroke-linejoin="miter" stroke-miterlimit="2" stroke-opacity="1" stroke-width="1" transform="matrix(1,0,0,1,157.5,6.5)"><path d="M30,15 C30,23.2843 23.2843,30 15,30 C6.71573,30 0,23.2843 0,15 C0,6.71573 6.71573,0 15,0 C23.2843,0 30,6.71573 30,15 z" fill-rule="nonzero" vector-effect="none"/></g><defs><clipPath id="clip84"><path d="M-62,-2 L218.414,-2 L218.414,80 L-62,80 L-62,-2 z"/></clipPath></defs><g clip-path="url(#clip84)" fill="#ffffff" fill-opacity="1" opacity="1" stroke="none" stroke-opacity="0" transform="matrix(1,0,0,1,62,2)"><path d="M0,0 L40,0 L40,38 L0,38 L0,0 z" fill-rule="evenodd" vector-effect="none"/></g><defs><clipPath id="clip88"><path d="M0,0 L40,0 L40,38 L0,38 L0,0 z"/></clipPath></defs><g clip-path="url(#clip88)" fill="none" opacity="1" stroke="none" stroke-opacity="0" transform="matrix(1,0,0,1,62,2)"><path d="M0,0 L40,0 L40,38 L0,38 L0,0 z" fill-rule="evenodd" vector-effect="none"/></g><defs><clipPath id="clip99"><path d="M-6,-6 L11,-6 L11,10 L-6,10 L-6,-6 z"/></clipPath></defs><g clip-path="url(#clip99)" fill="#000000" fill-opacity="1" opacity="1" stroke="none" stroke-opacity="0" transform="matrix(1,0,0,1,79.5,18.5)"><path d="M1.29688,0.25 L2.45312,0.25 L1.28125,6.32812 L2.375,6.32812 L2.25,7 L-0.015625,7 L0.21875,5.8125 C-0.09375,6.26042 -0.442708,6.60156 -0.828125,6.83594 C-1.21354,7.07031 -1.63542,7.1875 -2.09375,7.1875 C-2.83333,7.1875 -3.33854,6.97396 -3.60938,6.54688 C-3.77604,6.28646 -3.85938,5.94271 -3.85938,5.51562 C-3.85938,5.22396 -3.82292,4.90104 -3.75,4.54688 L-3.0625,0.9375 L-4.10938,0.9375 L-3.98438,0.25 L-1.75,0.25 L-2.51562,4.1875 C-2.59896,4.61458 -2.64062,4.97396 -2.64062,5.26562 C-2.64062,5.52604 -2.60417,5.72917 -2.53125,5.875 C-2.39583,6.17708 -2.06771,6.32812 -1.54688,6.32812 C-1.00521,6.32812 -0.554688,6.13021 -0.195312,5.73438 C0.164062,5.33854 0.416667,4.76042 0.5625,4 L1.29688,0.25 z" fill-rule="nonzero" vector-effect="none"/></g><defs><clipPath id="clip100"><path d="M-6,-6 L11,-6 L11,10 L-6,10 L-6,-6 z"/></clipPath></defs><g clip-path="url(#clip100)" fill="#000000" fill-opacity="1" opacity="1" stroke="none" stroke-opacity="0" transform="matrix(1,0,0,1,79.5,18.5)"><path d="M4.15625,-3 L3.65625,-3 L3.65625,-4.17188 C3.96875,-4.33854 4.28385,-4.46615 4.60156,-4.55469 C4.91927,-4.64323 5.23438,-4.6875 5.54688,-4.6875 C6.22396,-4.6875 6.76042,-4.52083 7.15625,-4.1875 C7.55208,-3.85417 7.75,-3.40104 7.75,-2.82812 C7.75,-2.19271 7.30208,-1.42708 6.40625,-0.53125 C6.33333,-0.46875 6.28125,-0.416667 6.25,-0.375 L4.59375,1.28125 L7.32812,1.28125 L7.32812,0.46875 L7.84375,0.46875 L7.84375,2 L3.60938,2 L3.60938,1.51562 L5.60938,-0.46875 C6.04688,-0.90625 6.35938,-1.3099 6.54688,-1.67969 C6.73438,-2.04948 6.82812,-2.43229 6.82812,-2.82812 C6.82812,-3.27604 6.71354,-3.625 6.48438,-3.875 C6.25521,-4.125 5.9375,-4.25 5.53125,-4.25 C5.11458,-4.25 4.79167,-4.14583 4.5625,-3.9375 C4.33333,-3.72917 4.19792,-3.41667 4.15625,-3 z" fill-rule="nonzero" vector-effect="none"/></g><defs><clipPath id="clip123"><path d="M-62.5,-2.5 L217.914,-2.5 L217.914,79.5 L-62.5,79.5 L-62.5,-2.5 z"/></clipPath></defs><g clip-path="url(#clip123)" fill="none" opacity="1" stroke="#000000" stroke-linecap="butt" stroke-linejoin="miter" stroke-miterlimit="2" stroke-opacity="1" stroke-width="1" transform="matrix(1,0,0,1,62.5,2.5)"><path d="M0,0 L40,0 L40,38 L0,38 L0,0 z" fill-rule="evenodd" vector-effect="none"/></g><defs><clipPath id="clip126"><path d="M-117,-52 L163.414,-52 L163.414,30 L-117,30 L-117,-52 z"/></clipPath></defs><g clip-path="url(#clip126)" fill="#ffffff" fill-opacity="1" opacity="1" stroke="none" stroke-opacity="0" transform="matrix(1,0,0,1,117,52)"><path d="M0,0 L30,0 L30,28 L0,28 L0,0 z" fill-rule="evenodd" vector-effect="none"/></g><defs><clipPath id="clip130"><path d="M-15,-14 L15,-14 L15,14 L-15,14 L-15,-14 z"/></clipPath></defs><g clip-path="url(#clip130)" fill="none" opacity="1" stroke="#000000" stroke-linecap="butt" stroke-linejoin="miter" stroke-miterlimit="2" stroke-opacity="1" stroke-width="1" transform="matrix(1,0,0,1,132,66)"><text fill="#000000" fill-opacity="1" font-family="Arial" font-size="10" font-style="normal" font-weight="400" stroke="none" textLength="5.54688" x="-2.76562" xml:space="preserve" y="3.5">1</text></g><defs><clipPath id="clip135"><path d="M-117.5,-52.5 L162.914,-52.5 L162.914,29.5 L-117.5,29.5 L-117.5,-52.5 z"/></clipPath></defs><g clip-path="url(#clip135)" fill="none" opacity="1" stroke="#000000" stroke-linecap="butt" stroke-linejoin="miter" stroke-miterlimit="2" stroke-opacity="1" stroke-width="1" transform="matrix(1,0,0,1,117.5,52.5)"><path d="M0,0 L30,0 L30,28 L0,28 L0,0 z" fill-rule="evenodd" vector-effect="none"/></g><defs><clipPath id="clip138"><path d="M-2,-11 L278.414,-11 L278.414,71 L-2,71 L-2,-11 z"/></clipPath></defs><g clip-path="url(#clip138)" fill="#00d100" fill-opacity="1" opacity="1" stroke="none" stroke-opacity="0" transform="matrix(1,0,0,1,2,11)"><path d="M0,10 C0,15.5228 4.47715,20 10,20 C15.5228,20 20,15.5228 20,10 C20,4.47715 15.5228,0 10,0 C4.47715,0 0,4.47715 0,10 z" fill-rule="nonzero" vector-effect="none"/></g><defs><clipPath id="clip142"><path d="M-10,-10 L10,-10 L10,10 L-10,10 L-10,-10 z"/></clipPath></defs><g clip-path="url(#clip142)" fill="none" opacity="1" stroke="#000000" stroke-linecap="butt" stroke-linejoin="miter" stroke-miterlimit="2" stroke-opacity="1" stroke-width="1" transform="matrix(1,0,0,1,12,21)"><text fill="#000000" fill-opacity="1" font-family="Arial" font-size="10" font-style="normal" font-weight="400" stroke="none" textLength="5.54688" x="-2.76562" xml:space="preserve" y="3.5">1</text></g><defs><clipPath id="clip147"><path d="M-2.5,-11.5 L277.914,-11.5 L277.914,70.5 L-2.5,70.5 L-2.5,-11.5 z"/></clipPath></defs><g clip-path="url(#clip147)" fill="none" opacity="1" stroke="#000000" stroke-linecap="butt" stroke-linejoin="miter" stroke-miterlimit="2" stroke-opacity="1" stroke-width="1" transform="matrix(1,0,0,1,2.5,11.5)"><path d="M0,10 C0,15.5228 4.47715,20 10,20 C15.5228,20 20,15.5228 20,10 C20,4.47715 15.5228,0 10,0 C4.47715,0 0,4.47715 0,10 z" fill-rule="nonzero" vector-effect="none"/></g><defs><clipPath id="clip150"><path d="M-12,-33 L268.414,-33 L268.414,49 L-12,49 L-12,-33 z"/></clipPath></defs><g clip-path="url(#clip150)" fill="none" opacity="1" stroke="none" stroke-opacity="0" transform="matrix(1,0,0,1,12,33)"><path d="M-5.38281,0 L5.38281,0 L5.38281,14 L-5.38281,14 L-5.38281,0 z" fill-rule="evenodd" vector-effect="none"/></g><defs><clipPath id="clip154"><path d="M0,0 L11,0 L11,14 L0,14 L0,0 z"/></clipPath></defs><g clip-path="url(#clip154)" fill="none" opacity="1" stroke="#000000" stroke-linecap="square" stroke-linejoin="bevel" stroke-opacity="1" stroke-width="1" transform="matrix(1,0,0,1,6.61719,33)"><text fill="#000000" fill-opacity="1" font-family="Arial" font-size="10" font-style="normal" font-weight="400" stroke="none" textLength="7.76562" x="1.5" xml:space="preserve" y="10">yf</text></g><defs><clipPath id="clip162"><path d="M-62,-21 L218.414,-21 L218.414,61 L-62,61 L-62,-21 z"/></clipPath></defs><g clip-path="url(#clip162)" fill="#000000" fill-opacity="1" opacity="1" stroke="none" stroke-opacity="0" transform="matrix(1,0,0,1,62,21)"><path d="M0,0 L-8,-4 L-8,4 L0,0 z" fill-rule="nonzero" vector-effect="none"/></g><defs><clipPath id="clip165"><path d="M58,49 L338.414,49 L338.414,131 L58,131 L58,49 z"/></clipPath></defs><g clip-path="url(#clip165)" fill="none" opacity="1" stroke="#000000" stroke-linecap="butt" stroke-linejoin="miter" stroke-miterlimit="2" stroke-opacity="1" stroke-width="1" transform="matrix(1,0,0,1,-58,-49)"><path d="M80,70 L112,70" fill-rule="evenodd" vector-effect="none"/></g><defs><clipPath id="clip168"><path d="M-157,-21 L123.414,-21 L123.414,61 L-157,61 L-157,-21 z"/></clipPath></defs><g clip-path="url(#clip168)" fill="#000000" fill-opacity="1" opacity="1" stroke="none" stroke-opacity="0" transform="matrix(1,0,0,1,157,21)"><path d="M0,0 L-8,-4 L-8,4 L0,0 z" fill-rule="nonzero" vector-effect="none"/></g><defs><clipPath id="clip171"><path d="M58,49 L338.414,49 L338.414,131 L58,131 L58,49 z"/></clipPath></defs><g clip-path="url(#clip171)" fill="none" opacity="1" stroke="#000000" stroke-linecap="butt" stroke-linejoin="miter" stroke-miterlimit="2" stroke-opacity="1" stroke-width="1" transform="matrix(1,0,0,1,-58,-49)"><path d="M160,70 L207,70" fill-rule="evenodd" vector-effect="none"/></g><defs><clipPath id="clip174"><path d="M36,-172 L36,108.414 L-46,108.414 L-46,-172 L36,-172 z"/></clipPath></defs><g clip-path="url(#clip174)" fill="#000000" fill-opacity="1" opacity="1" stroke="none" stroke-opacity="0" transform="matrix(6.12323e-17,-1,1,6.12323e-17,172,36)"><path d="M0,0 L-8,-4 L-8,4 L0,0 z" fill-rule="nonzero" vector-effect="none"/></g><defs><clipPath id="clip177"><path d="M58,49 L338.414,49 L338.414,131 L58,131 L58,49 z"/></clipPath></defs><g clip-path="url(#clip177)" fill="none" opacity="1" stroke="#000000" stroke-linecap="butt" stroke-linejoin="miter" stroke-miterlimit="2" stroke-opacity="1" stroke-width="1" transform="matrix(1,0,0,1,-58,-49)"><path d="M205,115 L230,115 L230,93" fill-rule="evenodd" vector-effect="none"/></g><defs><clipPath id="clip180"><path d="M-237,-21 L43.4141,-21 L43.4141,61 L-237,61 L-237,-21 z"/></clipPath></defs><g clip-path="url(#clip180)" fill="#000000" fill-opacity="1" opacity="1" stroke="none" stroke-opacity="0" transform="matrix(1,0,0,1,237,21)"><path d="M0,0 L-8,-4 L-8,4 L0,0 z" fill-rule="nonzero" vector-effect="none"/></g><defs><clipPath id="clip183"><path d="M58,49 L338.414,49 L338.414,131 L58,131 L58,49 z"/></clipPath></defs><g clip-path="url(#clip183)" fill="none" opacity="1" stroke="#000000" stroke-linecap="butt" stroke-linejoin="miter" stroke-miterlimit="2" stroke-opacity="1" stroke-width="1" transform="matrix(1,0,0,1,-58,-49)"><path d="M245,70 L287,70" fill-rule="evenodd" vector-effect="none"/></g></g></svg>
