<?xml version="1.0" encoding="UTF-8"?><svg width="63.2354mm" height="28.8396mm" viewBox="0 0 239 109" xmlns="http://www.w3.org/2000/svg" xmlns:xlink="http://www.w3.org/1999/xlink"><g fill="none" stroke="black" stroke-width="1" fill-rule="evenodd" stroke-linecap="square" stroke-linejoin="bevel"><g clip-path="none" fill="#ffffff" fill-opacity="1" opacity="1" stroke="none" stroke-opacity="0" transform="matrix(1,0,0,1,0,0)"><path d="M0,0 L239,0 L239,109 L0,109 L0,0 z" fill-rule="evenodd" vector-effect="none"/></g><defs><clipPath id="clip3"><path d="M-49.7734,-62 L189.227,-62 L189.227,47 L-49.7734,47 L-49.7734,-62 z"/></clipPath></defs><g clip-path="url(#clip3)" fill="#ffffff" fill-opacity="1" opacity="1" stroke="none" stroke-opacity="0" transform="matrix(1,0,0,1,49.7734,62)"><path d="M-3.77344,-7 L3.77344,-7 L3.77344,7 L-3.77344,7 L-3.77344,-7 z" fill-rule="evenodd" vector-effect="none"/></g><defs><clipPath id="clip8"><path d="M-5,-5 L12,-5 L12,19 L-5,19 L-5,-5 z"/></clipPath></defs><g clip-path="url(#clip8)" fill="none" opacity="1" stroke="none" stroke-opacity="0" transform="matrix(1,0,0,1,46,55)"><path d="M1,1 L6.54688,1 L6.54688,13 L1,13 L1,1 z" fill-rule="evenodd" vector-effect="none"/></g><defs><clipPath id="clip9"><path d="M-5,-5 L12,-5 L12,19 L-5,19 L-5,-5 z"/></clipPath></defs><g clip-path="url(#clip9)" fill="#ffffff" fill-opacity="1" opacity="1" stroke="#000000" stroke-linecap="square" stroke-linejoin="bevel" stroke-opacity="1" stroke-width="1" transform="matrix(1,0,0,1,46,55)"><text fill="#000000" fill-opacity="1" font-family="Arial" font-size="10" font-style="normal" font-weight="400" stroke="none" textLength="5.54688" x="1" xml:space="preserve" y="10">u</text></g><defs><clipPath id="clip17"><path d="M-165.273,-55 L73.7266,-55 L73.7266,54 L-165.273,54 L-165.273,-55 z"/></clipPath></defs><g clip-path="url(#clip17)" fill="#ffffff" fill-opacity="1" opacity="1" stroke="none" stroke-opacity="0" transform="matrix(1,0,0,1,165.273,55)"><path d="M-6.27344,-7 L6.27344,-7 L6.27344,7 L-6.27344,7 L-6.27344,-7 z" fill-rule="evenodd" vector-effect="none"/></g><defs><clipPath id="clip22"><path d="M-5,-5 L17,-5 L17,19 L-5,19 L-5,-5 z"/></clipPath></defs><g clip-path="url(#clip22)" fill="none" opacity="1" stroke="none" stroke-opacity="0" transform="matrix(1,0,0,1,159,48)"><path d="M1,1 L11.5469,1 L11.5469,13 L1,13 L1,1 z" fill-rule="evenodd" vector-effect="none"/></g><defs><clipPath id="clip23"><path d="M-5,-5 L17,-5 L17,19 L-5,19 L-5,-5 z"/></clipPath></defs><g clip-path="url(#clip23)" fill="#ffffff" fill-opacity="1" opacity="1" stroke="#000000" stroke-linecap="square" stroke-linejoin="bevel" stroke-opacity="1" stroke-width="1" transform="matrix(1,0,0,1,159,48)"><text fill="#000000" fill-opacity="1" font-family="Arial" font-size="10" font-style="normal" font-weight="400" stroke="none" textLength="10.5469" x="1" xml:space="preserve" y="10">yp</text></g><defs><clipPath id="clip31"><path d="M-217,-60 L22,-60 L22,49 L-217,49 L-217,-60 z"/></clipPath></defs><g clip-path="url(#clip31)" fill="#00d100" fill-opacity="1" opacity="1" stroke="none" stroke-opacity="0" transform="matrix(1,0,0,1,217,60)"><path d="M0,10 C0,15.5228 4.47715,20 10,20 C15.5228,20 20,15.5228 20,10 C20,4.47715 15.5228,0 10,0 C4.47715,0 0,4.47715 0,10 z" fill-rule="nonzero" vector-effect="none"/></g><defs><clipPath id="clip35"><path d="M-10,-10 L10,-10 L10,10 L-10,10 L-10,-10 z"/></clipPath></defs><g clip-path="url(#clip35)" fill="none" opacity="1" stroke="#000000" stroke-linecap="butt" stroke-linejoin="miter" stroke-miterlimit="2" stroke-opacity="1" stroke-width="1" transform="matrix(1,0,0,1,227,70)"><text fill="#000000" fill-opacity="1" font-family="Arial" font-size="10" font-style="normal" font-weight="400" stroke="none" textLength="5.54688" x="-2.76562" xml:space="preserve" y="3.5">1</text></g><defs><clipPath id="clip40"><path d="M-217.5,-60.5 L21.5,-60.5 L21.5,48.5 L-217.5,48.5 L-217.5,-60.5 z"/></clipPath></defs><g clip-path="url(#clip40)" fill="none" opacity="1" stroke="#000000" stroke-linecap="butt" stroke-linejoin="miter" stroke-miterlimit="2" stroke-opacity="1" stroke-width="1" transform="matrix(1,0,0,1,217.5,60.5)"><path d="M0,10 C0,15.5228 4.47715,20 10,20 C15.5228,20 20,15.5228 20,10 C20,4.47715 15.5228,0 10,0 C4.47715,0 0,4.47715 0,10 z" fill-rule="nonzero" vector-effect="none"/></g><defs><clipPath id="clip43"><path d="M-227,-82 L12,-82 L12,27 L-227,27 L-227,-82 z"/></clipPath></defs><g clip-path="url(#clip43)" fill="none" opacity="1" stroke="none" stroke-opacity="0" transform="matrix(1,0,0,1,227,82)"><path d="M-6.27344,0 L6.27344,0 L6.27344,14 L-6.27344,14 L-6.27344,0 z" fill-rule="evenodd" vector-effect="none"/></g><defs><clipPath id="clip47"><path d="M0,0 L13,0 L13,14 L0,14 L0,0 z"/></clipPath></defs><g clip-path="url(#clip47)" fill="none" opacity="1" stroke="#000000" stroke-linecap="square" stroke-linejoin="bevel" stroke-opacity="1" stroke-width="1" transform="matrix(1,0,0,1,220.727,82)"><text fill="#000000" fill-opacity="1" font-family="Arial" font-size="10" font-style="normal" font-weight="400" stroke="none" textLength="10.5469" x="1" xml:space="preserve" y="10">yp</text></g><defs><clipPath id="clip55"><path d="M-72,-2 L167,-2 L167,107 L-72,107 L-72,-2 z"/></clipPath></defs><g clip-path="url(#clip55)" fill="#e8d152" fill-opacity="1" opacity="1" stroke="none" stroke-opacity="0" transform="matrix(1,0,0,1,72,2)"><path d="M0,0 L25,0 L25,26 L0,26 L0,0 z" fill-rule="evenodd" vector-effect="none"/></g><defs><clipPath id="clip59"><path d="M0,0 L25,0 L25,26 L0,26 L0,0 z"/></clipPath></defs><g clip-path="url(#clip59)" fill="none" opacity="1" stroke="none" stroke-opacity="0" transform="matrix(1,0,0,1,72,2)"><path d="M0,0 L25,0 L25,26 L0,26 L0,0 z" fill-rule="evenodd" vector-effect="none"/></g><defs><clipPath id="clip70"><path d="M-3,-5 L7,-5 L7,9 L-3,9 L-3,-5 z"/></clipPath></defs><g clip-path="url(#clip70)" fill="#000000" fill-opacity="1" opacity="1" stroke="none" stroke-opacity="0" transform="matrix(1,0,0,1,82,12.5)"><path d="M2.25,-0.234375 L4.26562,-0.234375 L4.26562,5.375 L5.28125,5.375 L5.28125,6 L3.1875,6 L3.1875,4.89062 C2.98958,5.30729 2.73177,5.625 2.41406,5.84375 C2.09635,6.0625 1.72917,6.17188 1.3125,6.17188 C0.625,6.17188 0.117188,5.97396 -0.210938,5.57812 C-0.539062,5.18229 -0.703125,4.56771 -0.703125,3.73438 L-0.703125,0.390625 L-1.67188,0.390625 L-1.67188,-0.234375 L0.375,-0.234375 L0.375,3.39062 C0.375,4.15104 0.46875,4.67188 0.65625,4.95312 C0.84375,5.23438 1.17708,5.375 1.65625,5.375 C2.15625,5.375 2.53646,5.19271 2.79688,4.82812 C3.05729,4.46354 3.1875,3.93229 3.1875,3.23438 L3.1875,0.390625 L2.25,0.390625 L2.25,-0.234375 z" fill-rule="nonzero" vector-effect="none"/></g><defs><clipPath id="clip93"><path d="M-72.5,-2.5 L166.5,-2.5 L166.5,106.5 L-72.5,106.5 L-72.5,-2.5 z"/></clipPath></defs><g clip-path="url(#clip93)" fill="none" opacity="1" stroke="#000000" stroke-linecap="butt" stroke-linejoin="miter" stroke-miterlimit="2" stroke-opacity="1" stroke-width="1" transform="matrix(1,0,0,1,72.5,2.5)"><path d="M0,0 L25,0 L25,26 L0,26 L0,0 z" fill-rule="evenodd" vector-effect="none"/></g><defs><clipPath id="clip96"><path d="M-212,-2 L27,-2 L27,107 L-212,107 L-212,-2 z"/></clipPath></defs><g clip-path="url(#clip96)" fill="#e8d152" fill-opacity="1" opacity="1" stroke="none" stroke-opacity="0" transform="matrix(1,0,0,1,212,2)"><path d="M0,0 L25,0 L25,26 L0,26 L0,0 z" fill-rule="evenodd" vector-effect="none"/></g><defs><clipPath id="clip100"><path d="M0,0 L25,0 L25,26 L0,26 L0,0 z"/></clipPath></defs><g clip-path="url(#clip100)" fill="none" opacity="1" stroke="none" stroke-opacity="0" transform="matrix(1,0,0,1,212,2)"><path d="M0,0 L25,0 L25,26 L0,26 L0,0 z" fill-rule="evenodd" vector-effect="none"/></g><defs><clipPath id="clip111"><path d="M-6,-5 L11,-5 L11,9 L-6,9 L-6,-5 z"/></clipPath></defs><g clip-path="url(#clip111)" fill="#000000" fill-opacity="1" opacity="1" stroke="none" stroke-opacity="0" transform="matrix(1,0,0,1,222,12.5)"><path d="M-2.40625,7.14062 L-2,6.10938 L-4.32812,0.390625 L-5.03125,0.390625 L-5.03125,-0.234375 L-2.17188,-0.234375 L-2.17188,0.390625 L-3.17188,0.390625 L-1.40625,4.6875 L0.34375,0.390625 L-0.59375,0.390625 L-0.59375,-0.234375 L1.75,-0.234375 L1.75,0.390625 L1.04688,0.390625 L-1.8125,7.40625 C-2,7.89583 -2.21354,8.22917 -2.45312,8.40625 C-2.69271,8.58333 -3.03125,8.67188 -3.46875,8.67188 C-3.64583,8.67188 -3.83073,8.65625 -4.02344,8.625 C-4.21615,8.59375 -4.41146,8.54688 -4.60938,8.48438 L-4.60938,7.29688 L-4.0625,7.29688 C-4.04167,7.55729 -3.97396,7.7474 -3.85938,7.86719 C-3.74479,7.98698 -3.57292,8.04688 -3.34375,8.04688 C-3.125,8.04688 -2.95052,7.98698 -2.82031,7.86719 C-2.6901,7.7474 -2.55208,7.50521 -2.40625,7.14062 M4.23438,2.57812 L4.23438,3.1875 C4.23438,3.9375 4.3776,4.51042 4.66406,4.90625 C4.95052,5.30208 5.36458,5.5 5.90625,5.5 C6.45833,5.5 6.875,5.27865 7.15625,4.83594 C7.4375,4.39323 7.57812,3.73958 7.57812,2.875 C7.57812,2.02083 7.4375,1.375 7.15625,0.9375 C6.875,0.5 6.45833,0.28125 5.90625,0.28125 C5.36458,0.28125 4.95052,0.476562 4.66406,0.867188 C4.3776,1.25781 4.23438,1.82812 4.23438,2.57812 M3.15625,0.390625 L2.10938,0.390625 L2.10938,-0.234375 L4.23438,-0.234375 L4.23438,0.75 C4.44271,0.354167 4.70833,0.0625 5.03125,-0.125 C5.35417,-0.3125 5.76042,-0.40625 6.25,-0.40625 C7.01042,-0.40625 7.63281,-0.101562 8.11719,0.507812 C8.60156,1.11719 8.84375,1.90625 8.84375,2.875 C8.84375,3.85417 8.60156,4.64844 8.11719,5.25781 C7.63281,5.86719 7.01042,6.17188 6.25,6.17188 C5.76042,6.17188 5.35417,6.07812 5.03125,5.89062 C4.70833,5.70312 4.44271,5.41667 4.23438,5.03125 L4.23438,7.875 L5.25,7.875 L5.25,8.5 L2.10938,8.5 L2.10938,7.875 L3.15625,7.875 L3.15625,0.390625" fill-rule="nonzero" vector-effect="none"/></g><defs><clipPath id="clip134"><path d="M-212.5,-2.5 L26.5,-2.5 L26.5,106.5 L-212.5,106.5 L-212.5,-2.5 z"/></clipPath></defs><g clip-path="url(#clip134)" fill="none" opacity="1" stroke="#000000" stroke-linecap="butt" stroke-linejoin="miter" stroke-miterlimit="2" stroke-opacity="1" stroke-width="1" transform="matrix(1,0,0,1,212.5,2.5)"><path d="M0,0 L25,0 L25,26 L0,26 L0,0 z" fill-rule="evenodd" vector-effect="none"/></g><defs><clipPath id="clip137"><path d="M-72,-49 L167,-49 L167,60 L-72,60 L-72,-49 z"/></clipPath></defs><g clip-path="url(#clip137)" fill="#c0c0c0" fill-opacity="1" opacity="1" stroke="none" stroke-opacity="0" transform="matrix(1,0,0,1,72,49)"><path d="M0,0 L75,0 L75,42 L0,42 L0,0 z" fill-rule="evenodd" vector-effect="none"/></g><defs><clipPath id="clip141"><path d="M-37,-21 L38,-21 L38,21 L-37,21 L-37,-21 z"/></clipPath></defs><g clip-path="url(#clip141)" fill="none" opacity="1" stroke="#000000" stroke-linecap="butt" stroke-linejoin="miter" stroke-miterlimit="2" stroke-opacity="1" stroke-width="1" transform="matrix(1,0,0,1,109,70)"><text fill="#000000" fill-opacity="1" font-family="Arial" font-size="10" font-style="normal" font-weight="400" stroke="none" textLength="6.65625" x="-3.32812" xml:space="preserve" y="3.5">P</text></g><defs><clipPath id="clip146"><path d="M-72.5,-49.5 L166.5,-49.5 L166.5,59.5 L-72.5,59.5 L-72.5,-49.5 z"/></clipPath></defs><g clip-path="url(#clip146)" fill="none" opacity="1" stroke="#000000" stroke-linecap="butt" stroke-linejoin="miter" stroke-miterlimit="2" stroke-opacity="1" stroke-width="1" transform="matrix(1,0,0,1,72.5,49.5)"><path d="M0,0 L75,0 L75,42 L0,42 L0,0 z" fill-rule="evenodd" vector-effect="none"/></g><defs><clipPath id="clip149"><path d="M-109.5,-93 L129.5,-93 L129.5,16 L-109.5,16 L-109.5,-93 z"/></clipPath></defs><g clip-path="url(#clip149)" fill="none" opacity="1" stroke="none" stroke-opacity="0" transform="matrix(1,0,0,1,109.5,93)"><path d="M-15.1406,0 L15.1406,0 L15.1406,14 L-15.1406,14 L-15.1406,0 z" fill-rule="evenodd" vector-effect="none"/></g><defs><clipPath id="clip153"><path d="M0,0 L30,0 L30,14 L0,14 L0,0 z"/></clipPath></defs><g clip-path="url(#clip153)" fill="none" opacity="1" stroke="#000000" stroke-linecap="square" stroke-linejoin="bevel" stroke-opacity="1" stroke-width="1" transform="matrix(1,0,0,1,94.3594,93)"><text fill="#000000" fill-opacity="1" font-family="Arial" font-size="10" font-style="normal" font-weight="400" stroke="none" textLength="28.2812" x="1" xml:space="preserve" y="10">Planta</text></g><defs><clipPath id="clip161"><path d="M-2,-60 L237,-60 L237,49 L-2,49 L-2,-60 z"/></clipPath></defs><g clip-path="url(#clip161)" fill="#00d100" fill-opacity="1" opacity="1" stroke="none" stroke-opacity="0" transform="matrix(1,0,0,1,2,60)"><path d="M0,10 C0,15.5228 4.47715,20 10,20 C15.5228,20 20,15.5228 20,10 C20,4.47715 15.5228,0 10,0 C4.47715,0 0,4.47715 0,10 z" fill-rule="nonzero" vector-effect="none"/></g><defs><clipPath id="clip165"><path d="M-10,-10 L10,-10 L10,10 L-10,10 L-10,-10 z"/></clipPath></defs><g clip-path="url(#clip165)" fill="none" opacity="1" stroke="#000000" stroke-linecap="butt" stroke-linejoin="miter" stroke-miterlimit="2" stroke-opacity="1" stroke-width="1" transform="matrix(1,0,0,1,12,70)"><text fill="#000000" fill-opacity="1" font-family="Arial" font-size="10" font-style="normal" font-weight="400" stroke="none" textLength="5.54688" x="-2.76562" xml:space="preserve" y="3.5">1</text></g><defs><clipPath id="clip170"><path d="M-2.5,-60.5 L236.5,-60.5 L236.5,48.5 L-2.5,48.5 L-2.5,-60.5 z"/></clipPath></defs><g clip-path="url(#clip170)" fill="none" opacity="1" stroke="#000000" stroke-linecap="butt" stroke-linejoin="miter" stroke-miterlimit="2" stroke-opacity="1" stroke-width="1" transform="matrix(1,0,0,1,2.5,60.5)"><path d="M0,10 C0,15.5228 4.47715,20 10,20 C15.5228,20 20,15.5228 20,10 C20,4.47715 15.5228,0 10,0 C4.47715,0 0,4.47715 0,10 z" fill-rule="nonzero" vector-effect="none"/></g><defs><clipPath id="clip173"><path d="M-12,-82 L227,-82 L227,27 L-12,27 L-12,-82 z"/></clipPath></defs><g clip-path="url(#clip173)" fill="none" opacity="1" stroke="none" stroke-opacity="0" transform="matrix(1,0,0,1,12,82)"><path d="M-3.77344,0 L3.77344,0 L3.77344,14 L-3.77344,14 L-3.77344,0 z" fill-rule="evenodd" vector-effect="none"/></g><defs><clipPath id="clip177"><path d="M0,0 L8,0 L8,14 L0,14 L0,0 z"/></clipPath></defs><g clip-path="url(#clip177)" fill="none" opacity="1" stroke="#000000" stroke-linecap="square" stroke-linejoin="bevel" stroke-opacity="1" stroke-width="1" transform="matrix(1,0,0,1,8.22656,82)"><text fill="#000000" fill-opacity="1" font-family="Arial" font-size="10" font-style="normal" font-weight="400" stroke="none" textLength="5.54688" x="1" xml:space="preserve" y="10">u</text></g><defs><clipPath id="clip185"><path d="M48,40 L287,40 L287,149 L48,149 L48,40 z"/></clipPath></defs><g clip-path="url(#clip185)" fill="none" opacity="1" stroke="#000000" stroke-linecap="butt" stroke-linejoin="miter" stroke-miterlimit="2" stroke-opacity="1" stroke-width="1" transform="matrix(1,0,0,1,-48,-40)"><path d="M70,110 L85,110" fill-rule="evenodd" vector-effect="none"/></g><defs><clipPath id="clip190"><path d="M-72,-15 L167,-15 L167,94 L-72,94 L-72,-15 z"/></clipPath></defs><g clip-path="url(#clip190)" fill="#000000" fill-opacity="1" opacity="1" stroke="none" stroke-opacity="0" transform="matrix(1,0,0,1,72,15)"><path d="M0,0 L-8,-4 L-8,4 L0,0 z" fill-rule="nonzero" vector-effect="none"/></g><defs><clipPath id="clip193"><path d="M48,40 L287,40 L287,149 L48,149 L48,40 z"/></clipPath></defs><g clip-path="url(#clip193)" fill="none" opacity="1" stroke="#000000" stroke-linecap="butt" stroke-linejoin="miter" stroke-miterlimit="2" stroke-opacity="1" stroke-width="1" transform="matrix(1,0,0,1,-48,-40)"><path d="M85,110 L85,55 L112,55" fill-rule="evenodd" vector-effect="none"/></g><defs><clipPath id="clip196"><path d="M-72,-70 L167,-70 L167,39 L-72,39 L-72,-70 z"/></clipPath></defs><g clip-path="url(#clip196)" fill="#000000" fill-opacity="1" opacity="1" stroke="none" stroke-opacity="0" transform="matrix(1,0,0,1,72,70)"><path d="M0,0 L-8,-4 L-8,4 L0,0 z" fill-rule="nonzero" vector-effect="none"/></g><defs><clipPath id="clip199"><path d="M48,40 L287,40 L287,149 L48,149 L48,40 z"/></clipPath></defs><g clip-path="url(#clip199)" fill="none" opacity="1" stroke="#000000" stroke-linecap="butt" stroke-linejoin="miter" stroke-miterlimit="2" stroke-opacity="1" stroke-width="1" transform="matrix(1,0,0,1,-48,-40)"><path d="M85,110 L112,110" fill-rule="evenodd" vector-effect="none"/></g><defs><clipPath id="clip202"><path d="M-37,-70 L202,-70 L202,39 L-37,39 L-37,-70 z"/></clipPath></defs><g clip-path="url(#clip202)" fill="#000000" fill-opacity="1" opacity="1" stroke="none" stroke-opacity="0" transform="matrix(1,0,0,1,37,70)"><path d="M2.5,0 C2.5,1.38071 1.38071,2.5 0,2.5 C-1.38071,2.5 -2.5,1.38071 -2.5,0 C-2.5,-1.38071 -1.38071,-2.5 0,-2.5 C1.38071,-2.5 2.5,-1.38071 2.5,0 z" fill-rule="evenodd" vector-effect="none"/></g><defs><clipPath id="clip205"><path d="M48,40 L287,40 L287,149 L48,149 L48,40 z"/></clipPath></defs><g clip-path="url(#clip205)" fill="none" opacity="1" stroke="#000000" stroke-linecap="butt" stroke-linejoin="miter" stroke-miterlimit="2" stroke-opacity="1" stroke-width="1" transform="matrix(1,0,0,1,-48,-40)"><path d="M195,110 L230,110" fill-rule="evenodd" vector-effect="none"/></g><defs><clipPath id="clip210"><path d="M-217,-70 L22,-70 L22,39 L-217,39 L-217,-70 z"/></clipPath></defs><g clip-path="url(#clip210)" fill="#000000" fill-opacity="1" opacity="1" stroke="none" stroke-opacity="0" transform="matrix(1,0,0,1,217,70)"><path d="M0,0 L-8,-4 L-8,4 L0,0 z" fill-rule="nonzero" vector-effect="none"/></g><defs><clipPath id="clip213"><path d="M48,40 L287,40 L287,149 L48,149 L48,40 z"/></clipPath></defs><g clip-path="url(#clip213)" fill="none" opacity="1" stroke="#000000" stroke-linecap="butt" stroke-linejoin="miter" stroke-miterlimit="2" stroke-opacity="1" stroke-width="1" transform="matrix(1,0,0,1,-48,-40)"><path d="M230,110 L257,110" fill-rule="evenodd" vector-effect="none"/></g><defs><clipPath id="clip216"><path d="M-212,-15 L27,-15 L27,94 L-212,94 L-212,-15 z"/></clipPath></defs><g clip-path="url(#clip216)" fill="#000000" fill-opacity="1" opacity="1" stroke="none" stroke-opacity="0" transform="matrix(1,0,0,1,212,15)"><path d="M0,0 L-8,-4 L-8,4 L0,0 z" fill-rule="nonzero" vector-effect="none"/></g><defs><clipPath id="clip219"><path d="M48,40 L287,40 L287,149 L48,149 L48,40 z"/></clipPath></defs><g clip-path="url(#clip219)" fill="none" opacity="1" stroke="#000000" stroke-linecap="butt" stroke-linejoin="miter" stroke-miterlimit="2" stroke-opacity="1" stroke-width="1" transform="matrix(1,0,0,1,-48,-40)"><path d="M230,110 L230,55 L252,55" fill-rule="evenodd" vector-effect="none"/></g><defs><clipPath id="clip222"><path d="M-182,-70 L57,-70 L57,39 L-182,39 L-182,-70 z"/></clipPath></defs><g clip-path="url(#clip222)" fill="#000000" fill-opacity="1" opacity="1" stroke="none" stroke-opacity="0" transform="matrix(1,0,0,1,182,70)"><path d="M2.5,0 C2.5,1.38071 1.38071,2.5 0,2.5 C-1.38071,2.5 -2.5,1.38071 -2.5,0 C-2.5,-1.38071 -1.38071,-2.5 0,-2.5 C1.38071,-2.5 2.5,-1.38071 2.5,0 z" fill-rule="evenodd" vector-effect="none"/></g></g></svg>
